<svg xmlns="http://www.w3.org/2000/svg" width="384" height="48" viewBox="0 0 384 48" fill="none"><defs><filter id="food_fruit-soft-shadow" x="-40%" y="-40%" width="180%" height="180%"><feGaussianBlur in="SourceAlpha" stdDeviation="1.2" /><feOffset dx="0.5" dy="1" result="offsetblur" /><feComponentTransfer><feFuncA type="linear" slope="0.26" /></feComponentTransfer><feMerge><feMergeNode /><feMergeNode in="SourceGraphic" /></feMerge></filter></defs><g transform="translate(0 0)">
      <rect x="0" y="0" width="48" height="48" fill="none"/>
      <path d="M 24 10.92 L 24 18.92"
            stroke="#7a4e27" stroke-width="2.1" stroke-linecap="round"/>
      <path d="M 24 12.92
               Q 29 6.92
                 34 13.92
               Q 28 15.92
                 24 12.92 Z"
            fill="currentColor" opacity="0.86"/>
      <circle cx="24" cy="26.12" r="8.5" fill="currentColor"/>
      <path d="M 19.5 22.42
               Q 23.5 19.92
                 28 21.72"
            stroke="rgba(255,255,255,0.28)" stroke-width="1.1" fill="none"/>
      <circle cx="21.8" cy="23.12" r="1.2" fill="white" opacity="0.85"/>
    </g><g transform="translate(48 0)">
      <rect x="0" y="0" width="48" height="48" fill="none"/>
      <path d="M 24 10.92 L 24 18.92"
            stroke="#7a4e27" stroke-width="2.1" stroke-linecap="round"/>
      <path d="M 24 12.92
               Q 31.53 6.92
                 34 13.92
               Q 28 15.92
                 24 12.92 Z"
            fill="currentColor" opacity="0.86"/>
      <circle cx="24" cy="26.12" r="9.17" fill="currentColor"/>
      <path d="M 19.5 22.42
               Q 23.5 19.92
                 28 21.72"
            stroke="rgba(255,255,255,0.28)" stroke-width="1.1" fill="none"/>
      <circle cx="21.8" cy="23.12" r="1.2" fill="white" opacity="0.85"/>
    </g><g transform="translate(96 0)">
      <rect x="0" y="0" width="48" height="48" fill="none"/>
      <path d="M 24 10.92 L 24 18.92"
            stroke="#7a4e27" stroke-width="2.1" stroke-linecap="round"/>
      <path d="M 24 12.92
               Q 30.18 6.92
                 34 13.92
               Q 28 15.92
                 24 12.92 Z"
            fill="currentColor" opacity="0.86"/>
      <circle cx="24" cy="26.12" r="8.29" fill="currentColor"/>
      <path d="M 19.5 22.42
               Q 23.5 19.92
                 28 21.72"
            stroke="rgba(255,255,255,0.28)" stroke-width="1.1" fill="none"/>
      <circle cx="21.8" cy="23.12" r="1.2" fill="white" opacity="0.85"/>
    </g><g transform="translate(144 0)">
      <rect x="0" y="0" width="48" height="48" fill="none"/>
      <path d="M 24 10.92 L 24 18.92"
            stroke="#7a4e27" stroke-width="2.1" stroke-linecap="round"/>
      <path d="M 24 12.92
               Q 27.02 6.92
                 34 13.92
               Q 28 15.92
                 24 12.92 Z"
            fill="currentColor" opacity="0.86"/>
      <circle cx="24" cy="26.12" r="7.89" fill="currentColor"/>
      <path d="M 19.5 22.42
               Q 23.5 19.92
                 28 21.72"
            stroke="rgba(255,255,255,0.28)" stroke-width="1.1" fill="none"/>
      <circle cx="21.8" cy="23.12" r="1.2" fill="white" opacity="0.85"/>
    </g><g transform="translate(192 0)">
      <rect x="0" y="0" width="48" height="48" fill="none"/>
      <path d="M 24 10.92 L 24 18.92"
            stroke="#7a4e27" stroke-width="2.1" stroke-linecap="round"/>
      <path d="M 24 12.92
               Q 26.9 6.92
                 34 13.92
               Q 28 15.92
                 24 12.92 Z"
            fill="currentColor" opacity="0.86"/>
      <circle cx="24" cy="26.12" r="8.9" fill="currentColor"/>
      <path d="M 19.5 22.42
               Q 23.5 19.92
                 28 21.72"
            stroke="rgba(255,255,255,0.28)" stroke-width="1.1" fill="none"/>
      <circle cx="21.8" cy="23.12" r="1.2" fill="white" opacity="0.85"/>
    </g><g transform="translate(240 0)">
      <rect x="0" y="0" width="48" height="48" fill="none"/>
      <path d="M 24 10.92 L 24 18.92"
            stroke="#7a4e27" stroke-width="2.1" stroke-linecap="round"/>
      <path d="M 24 12.92
               Q 29.99 6.92
                 34 13.92
               Q 28 15.92
                 24 12.92 Z"
            fill="currentColor" opacity="0.86"/>
      <circle cx="24" cy="26.12" r="8.98" fill="currentColor"/>
      <path d="M 19.5 22.42
               Q 23.5 19.92
                 28 21.72"
            stroke="rgba(255,255,255,0.28)" stroke-width="1.1" fill="none"/>
      <circle cx="21.8" cy="23.12" r="1.2" fill="white" opacity="0.85"/>
    </g><g transform="translate(288 0)">
      <rect x="0" y="0" width="48" height="48" fill="none"/>
      <path d="M 24 10.92 L 24 18.92"
            stroke="#7a4e27" stroke-width="2.1" stroke-linecap="round"/>
      <path d="M 24 12.92
               Q 31.57 6.92
                 34 13.92
               Q 28 15.92
                 24 12.92 Z"
            fill="currentColor" opacity="0.86"/>
      <circle cx="24" cy="26.12" r="7.95" fill="currentColor"/>
      <path d="M 19.5 22.42
               Q 23.5 19.92
                 28 21.72"
            stroke="rgba(255,255,255,0.28)" stroke-width="1.1" fill="none"/>
      <circle cx="21.8" cy="23.12" r="1.2" fill="white" opacity="0.85"/>
    </g><g transform="translate(336 0)">
      <rect x="0" y="0" width="48" height="48" fill="none"/>
      <path d="M 24 10.92 L 24 18.92"
            stroke="#7a4e27" stroke-width="2.1" stroke-linecap="round"/>
      <path d="M 24 12.92
               Q 29.2 6.92
                 34 13.92
               Q 28 15.92
                 24 12.92 Z"
            fill="currentColor" opacity="0.86"/>
      <circle cx="24" cy="26.12" r="8.19" fill="currentColor"/>
      <path d="M 19.5 22.42
               Q 23.5 19.92
                 28 21.72"
            stroke="rgba(255,255,255,0.28)" stroke-width="1.1" fill="none"/>
      <circle cx="21.8" cy="23.12" r="1.2" fill="white" opacity="0.85"/>
    </g></svg>
