<svg xmlns="http://www.w3.org/2000/svg" width="384" height="48" viewBox="0 0 384 48" fill="none"><defs><filter id="food_berries-soft-shadow" x="-40%" y="-40%" width="180%" height="180%"><feGaussianBlur in="SourceAlpha" stdDeviation="1.2" /><feOffset dx="0.5" dy="1" result="offsetblur" /><feComponentTransfer><feFuncA type="linear" slope="0.26" /></feComponentTransfer><feMerge><feMergeNode /><feMergeNode in="SourceGraphic" /></feMerge></filter></defs><g transform="translate(0 0)">
      <rect x="0" y="0" width="48" height="48" fill="none"/>
      <path d="M 24 9.92 Q 19 15.92 16 22.92"
            stroke="currentColor" stroke-width="2" fill="none" opacity="0.55"/>
      <ellipse cx="28" cy="12.92" rx="4.4" ry="2.8" fill="currentColor" opacity="0.78"/>
      <circle cx="18.4" cy="25.92" r="4.2" fill="currentColor" />
      <circle cx="25.5" cy="29.32" r="4.73" fill="currentColor" opacity="0.95"/>
      <circle cx="32.6" cy="26.12" r="4.04" fill="currentColor" opacity="0.88"/>
      <circle cx="19.2" cy="25.12" r="1.05" fill="white" opacity="0.85"/>
      <circle cx="26.2" cy="28.42" r="1.1" fill="white" opacity="0.9"/>
    </g><g transform="translate(48 0)">
      <rect x="0" y="0" width="48" height="48" fill="none"/>
      <path d="M 24 9.92 Q 19.99 15.92 16 22.92"
            stroke="currentColor" stroke-width="2" fill="none" opacity="0.55"/>
      <ellipse cx="28" cy="13.61" rx="4.4" ry="2.8" fill="currentColor" opacity="0.78"/>
      <circle cx="18.4" cy="26.82" r="4.53" fill="currentColor" />
      <circle cx="25.5" cy="29" r="4.74" fill="currentColor" opacity="0.95"/>
      <circle cx="32.6" cy="26.62" r="3.83" fill="currentColor" opacity="0.88"/>
      <circle cx="19.2" cy="25.12" r="1.05" fill="white" opacity="0.85"/>
      <circle cx="26.2" cy="28.42" r="1.1" fill="white" opacity="0.9"/>
    </g><g transform="translate(96 0)">
      <rect x="0" y="0" width="48" height="48" fill="none"/>
      <path d="M 24 9.92 Q 19.31 15.92 16 22.92"
            stroke="currentColor" stroke-width="2" fill="none" opacity="0.55"/>
      <ellipse cx="28" cy="13.14" rx="4.4" ry="2.8" fill="currentColor" opacity="0.78"/>
      <circle cx="18.4" cy="25.92" r="4.1" fill="currentColor" />
      <circle cx="25.5" cy="29.32" r="4.38" fill="currentColor" opacity="0.95"/>
      <circle cx="32.6" cy="26.12" r="3.76" fill="currentColor" opacity="0.88"/>
      <circle cx="19.2" cy="25.12" r="1.05" fill="white" opacity="0.85"/>
      <circle cx="26.2" cy="28.42" r="1.1" fill="white" opacity="0.9"/>
    </g><g transform="translate(144 0)">
      <rect x="0" y="0" width="48" height="48" fill="none"/>
      <path d="M 24 9.92 Q 18.11 15.92 16 22.92"
            stroke="currentColor" stroke-width="2" fill="none" opacity="0.55"/>
      <ellipse cx="28" cy="12.3" rx="4.4" ry="2.8" fill="currentColor" opacity="0.78"/>
      <circle cx="18.4" cy="25.02" r="3.9" fill="currentColor" />
      <circle cx="25.5" cy="29.64" r="4.59" fill="currentColor" opacity="0.95"/>
      <circle cx="32.6" cy="25.63" r="3.97" fill="currentColor" opacity="0.88"/>
      <circle cx="19.2" cy="25.12" r="1.05" fill="white" opacity="0.85"/>
      <circle cx="26.2" cy="28.42" r="1.1" fill="white" opacity="0.9"/>
    </g><g transform="translate(192 0)">
      <rect x="0" y="0" width="48" height="48" fill="none"/>
      <path d="M 24 9.92 Q 18.41 15.92 16 22.92"
            stroke="currentColor" stroke-width="2" fill="none" opacity="0.55"/>
      <ellipse cx="28" cy="12.51" rx="4.4" ry="2.8" fill="currentColor" opacity="0.78"/>
      <circle cx="18.4" cy="25.92" r="4.4" fill="currentColor" />
      <circle cx="25.5" cy="29.32" r="4.82" fill="currentColor" opacity="0.95"/>
      <circle cx="32.6" cy="26.12" r="4.04" fill="currentColor" opacity="0.88"/>
      <circle cx="19.2" cy="25.12" r="1.05" fill="white" opacity="0.85"/>
      <circle cx="26.2" cy="28.42" r="1.1" fill="white" opacity="0.9"/>
    </g><g transform="translate(240 0)">
      <rect x="0" y="0" width="48" height="48" fill="none"/>
      <path d="M 24 9.92 Q 19.71 15.92 16 22.92"
            stroke="currentColor" stroke-width="2" fill="none" opacity="0.55"/>
      <ellipse cx="28" cy="13.41" rx="4.4" ry="2.8" fill="currentColor" opacity="0.78"/>
      <circle cx="18.4" cy="26.82" r="4.44" fill="currentColor" />
      <circle cx="25.5" cy="29" r="4.47" fill="currentColor" opacity="0.95"/>
      <circle cx="32.6" cy="26.62" r="3.83" fill="currentColor" opacity="0.88"/>
      <circle cx="19.2" cy="25.12" r="1.05" fill="white" opacity="0.85"/>
      <circle cx="26.2" cy="28.42" r="1.1" fill="white" opacity="0.9"/>
    </g><g transform="translate(288 0)">
      <rect x="0" y="0" width="48" height="48" fill="none"/>
      <path d="M 24 9.92 Q 19.81 15.92 16 22.92"
            stroke="currentColor" stroke-width="2" fill="none" opacity="0.55"/>
      <ellipse cx="28" cy="13.49" rx="4.4" ry="2.8" fill="currentColor" opacity="0.78"/>
      <circle cx="18.4" cy="25.92" r="3.93" fill="currentColor" />
      <circle cx="25.5" cy="29.32" r="4.46" fill="currentColor" opacity="0.95"/>
      <circle cx="32.6" cy="26.12" r="3.76" fill="currentColor" opacity="0.88"/>
      <circle cx="19.2" cy="25.12" r="1.05" fill="white" opacity="0.85"/>
      <circle cx="26.2" cy="28.42" r="1.1" fill="white" opacity="0.9"/>
    </g><g transform="translate(336 0)">
      <rect x="0" y="0" width="48" height="48" fill="none"/>
      <path d="M 24 9.92 Q 18.55 15.92 16 22.92"
            stroke="currentColor" stroke-width="2" fill="none" opacity="0.55"/>
      <ellipse cx="28" cy="12.6" rx="4.4" ry="2.8" fill="currentColor" opacity="0.78"/>
      <circle cx="18.4" cy="25.02" r="4.05" fill="currentColor" />
      <circle cx="25.5" cy="29.64" r="4.82" fill="currentColor" opacity="0.95"/>
      <circle cx="32.6" cy="25.63" r="3.97" fill="currentColor" opacity="0.88"/>
      <circle cx="19.2" cy="25.12" r="1.05" fill="white" opacity="0.85"/>
      <circle cx="26.2" cy="28.42" r="1.1" fill="white" opacity="0.9"/>
    </g></svg>
