<svg xmlns="http://www.w3.org/2000/svg" width="768" height="96" viewBox="0 0 768 96" fill="none"><defs><filter id="env_rocks-soft-shadow" x="-40%" y="-40%" width="180%" height="180%"><feGaussianBlur in="SourceAlpha" stdDeviation="1.2" /><feOffset dx="0.5" dy="1" result="offsetblur" /><feComponentTransfer><feFuncA type="linear" slope="0.26" /></feComponentTransfer><feMerge><feMergeNode /><feMergeNode in="SourceGraphic" /></feMerge></filter></defs><g transform="translate(0 0)">

    <rect x="0" y="0" width="96" height="96" fill="none"/>
    <ellipse cx="48" cy="78.72" rx="22" ry="5" fill="rgba(0,0,0,0.24)"/>

      <path d="M 21 69.88
               L 31 49.88
               L 53 40.88
               L 74 55.88
               L 79 70.88
               Q 55 80.88 21 69.88 Z"
            fill="#68737a"/>
      <path d="M 34 53.88 L 52 43.88 L 63 56.88 L 44 60.88 Z" fill="rgba(255,255,255,0.22)"/>
      <path d="M 24 70.88 Q 52 76.88 76 68.88" stroke="rgba(0,0,0,0.18)" stroke-width="2" fill="none"/>
    </g><g transform="translate(96 0)">

    <rect x="0" y="0" width="96" height="96" fill="none"/>
    <ellipse cx="48" cy="78.72" rx="22" ry="5" fill="rgba(0,0,0,0.24)"/>

      <path d="M 21 69.88
               L 31 49.88
               L 53 40.88
               L 74 55.88
               L 79 70.88
               Q 55 80.88 21 69.88 Z"
            fill="#7e8588"/>
      <path d="M 34 53.88 L 52 43.88 L 63 56.88 L 44 60.88 Z" fill="rgba(255,255,255,0.22)"/>
      <path d="M 24 70.88 Q 52 76.88 76 68.88" stroke="rgba(0,0,0,0.18)" stroke-width="2" fill="none"/>
    </g><g transform="translate(192 0)">

    <rect x="0" y="0" width="96" height="96" fill="none"/>
    <ellipse cx="48" cy="78.72" rx="22" ry="5" fill="rgba(0,0,0,0.24)"/>

      <path d="M 21 69.88
               L 31 49.88
               L 53 40.88
               L 74 55.88
               L 79 70.88
               Q 55 80.88 21 69.88 Z"
            fill="#59666d"/>
      <path d="M 34 53.88 L 52 43.88 L 63 56.88 L 44 60.88 Z" fill="rgba(255,255,255,0.22)"/>
      <path d="M 24 70.88 Q 52 76.88 76 68.88" stroke="rgba(0,0,0,0.18)" stroke-width="2" fill="none"/>
    </g><g transform="translate(288 0)">

    <rect x="0" y="0" width="96" height="96" fill="none"/>
    <ellipse cx="48" cy="78.72" rx="22" ry="5" fill="rgba(0,0,0,0.24)"/>

      <path d="M 21 69.88
               L 31 49.88
               L 53 40.88
               L 74 55.88
               L 79 70.88
               Q 55 80.88 21 69.88 Z"
            fill="#8b8277"/>
      <path d="M 34 53.88 L 52 43.88 L 63 56.88 L 44 60.88 Z" fill="rgba(255,255,255,0.22)"/>
      <path d="M 24 70.88 Q 52 76.88 76 68.88" stroke="rgba(0,0,0,0.18)" stroke-width="2" fill="none"/>
    </g><g transform="translate(384 0)">

    <rect x="0" y="0" width="96" height="96" fill="none"/>
    <ellipse cx="48" cy="78.72" rx="22" ry="5" fill="rgba(0,0,0,0.24)"/>

      <path d="M 21 69.88
               L 31 49.88
               L 53 40.88
               L 74 55.88
               L 79 70.88
               Q 55 80.88 21 69.88 Z"
            fill="#596d57"/>
      <path d="M 34 53.88 L 52 43.88 L 63 56.88 L 44 60.88 Z" fill="rgba(255,255,255,0.22)"/>
      <path d="M 24 70.88 Q 52 76.88 76 68.88" stroke="rgba(0,0,0,0.18)" stroke-width="2" fill="none"/>
    </g><g transform="translate(480 0)">

    <rect x="0" y="0" width="96" height="96" fill="none"/>
    <ellipse cx="48" cy="78.72" rx="22" ry="5" fill="rgba(0,0,0,0.24)"/>

      <path d="M 21 69.88
               L 31 49.88
               L 53 40.88
               L 74 55.88
               L 79 70.88
               Q 55 80.88 21 69.88 Z"
            fill="#7b7ee5"/>
      <path d="M 34 53.88 L 52 43.88 L 63 56.88 L 44 60.88 Z" fill="rgba(180,230,255,0.55)"/>
      <path d="M 24 70.88 Q 52 76.88 76 68.88" stroke="rgba(0,0,0,0.18)" stroke-width="2" fill="none"/>
    </g><g transform="translate(576 0)">

    <rect x="0" y="0" width="96" height="96" fill="none"/>
    <ellipse cx="48" cy="78.72" rx="22" ry="5" fill="rgba(0,0,0,0.24)"/>

      <path d="M 21 69.88
               L 31 49.88
               L 53 40.88
               L 74 55.88
               L 79 70.88
               Q 55 80.88 21 69.88 Z"
            fill="#775a43"/>
      <path d="M 34 53.88 L 52 43.88 L 63 56.88 L 44 60.88 Z" fill="rgba(255,255,255,0.22)"/>
      <path d="M 24 70.88 Q 52 76.88 76 68.88" stroke="rgba(0,0,0,0.18)" stroke-width="2" fill="none"/>
    </g><g transform="translate(672 0)">

    <rect x="0" y="0" width="96" height="96" fill="none"/>
    <ellipse cx="48" cy="78.72" rx="22" ry="5" fill="rgba(0,0,0,0.24)"/>

      <path d="M 21 69.88
               L 31 49.88
               L 53 40.88
               L 74 55.88
               L 79 70.88
               Q 55 80.88 21 69.88 Z"
            fill="#6c6d7b"/>
      <path d="M 34 53.88 L 52 43.88 L 63 56.88 L 44 60.88 Z" fill="rgba(255,255,255,0.22)"/>
      <path d="M 24 70.88 Q 52 76.88 76 68.88" stroke="rgba(0,0,0,0.18)" stroke-width="2" fill="none"/>
    </g></svg>
