<svg xmlns="http://www.w3.org/2000/svg" width="768" height="96" viewBox="0 0 768 96" fill="none"><defs><filter id="env_flowers-soft-shadow" x="-40%" y="-40%" width="180%" height="180%"><feGaussianBlur in="SourceAlpha" stdDeviation="1.2" /><feOffset dx="0.5" dy="1" result="offsetblur" /><feComponentTransfer><feFuncA type="linear" slope="0.26" /></feComponentTransfer><feMerge><feMergeNode /><feMergeNode in="SourceGraphic" /></feMerge></filter></defs><g transform="translate(0 0)">

    <rect x="0" y="0" width="96" height="96" fill="none"/>
    <ellipse cx="48" cy="80.64" rx="18" ry="4" fill="rgba(0,0,0,0.24)"/>

      <path d="M 48 74.88 C 43 57.88 52 44.88 48 31.88" stroke="#3b9656" stroke-width="3" fill="none" stroke-linecap="round"/>
      <path d="M 40 60.88 Q 28 52.88 23 67.88 Q 35 67.88 40 60.88 Z" fill="#4fb967"/>
      <path d="M 55 56.88 Q 69 47.88 73 63.88 Q 60 64.88 55 56.88 Z" fill="#58c475"/>
      <g transform="translate(48 30.88)">
        <circle cx="-7" cy="0" r="7" fill="#ff7aa8"/>
        <circle cx="7" cy="0" r="7" fill="#ff7aa8"/>
        <circle cx="0" cy="-7" r="7" fill="#ff7aa8"/>
        <circle cx="0" cy="7" r="7" fill="#ff7aa8"/>
        <circle cx="0" cy="0" r="6" fill="#ffe07a"/>
        <circle cx="-2" cy="-2" r="1.8" fill="white" opacity="0.8"/>
      </g>
    </g><g transform="translate(96 0)">

    <rect x="0" y="0" width="96" height="96" fill="none"/>
    <ellipse cx="48" cy="80.64" rx="18" ry="4" fill="rgba(0,0,0,0.24)"/>

      <path d="M 48 74.88 C 43 57.88 52 44.88 48 31.88" stroke="#3b9656" stroke-width="3" fill="none" stroke-linecap="round"/>
      <path d="M 40 60.88 Q 28 52.88 23 67.88 Q 35 67.88 40 60.88 Z" fill="#4fb967"/>
      <path d="M 55 56.88 Q 69 47.88 73 63.88 Q 60 64.88 55 56.88 Z" fill="#58c475"/>
      <g transform="translate(48 30.88)">
        <circle cx="-7" cy="0" r="7" fill="#ffd650"/>
        <circle cx="7" cy="0" r="7" fill="#ffd650"/>
        <circle cx="0" cy="-7" r="7" fill="#ffd650"/>
        <circle cx="0" cy="7" r="7" fill="#ffd650"/>
        <circle cx="0" cy="0" r="6" fill="#ffe07a"/>
        <circle cx="-2" cy="-2" r="1.8" fill="white" opacity="0.8"/>
      </g>
    </g><g transform="translate(192 0)">

    <rect x="0" y="0" width="96" height="96" fill="none"/>
    <ellipse cx="48" cy="80.64" rx="18" ry="4" fill="rgba(0,0,0,0.24)"/>

      <path d="M 48 74.88 C 43 57.88 52 44.88 48 31.88" stroke="#3b9656" stroke-width="3" fill="none" stroke-linecap="round"/>
      <path d="M 40 60.88 Q 28 52.88 23 67.88 Q 35 67.88 40 60.88 Z" fill="#4fb967"/>
      <path d="M 55 56.88 Q 69 47.88 73 63.88 Q 60 64.88 55 56.88 Z" fill="#58c475"/>
      <g transform="translate(48 30.88)">
        <circle cx="-7" cy="0" r="7" fill="#78b6ff"/>
        <circle cx="7" cy="0" r="7" fill="#78b6ff"/>
        <circle cx="0" cy="-7" r="7" fill="#78b6ff"/>
        <circle cx="0" cy="7" r="7" fill="#78b6ff"/>
        <circle cx="0" cy="0" r="6" fill="#ffe07a"/>
        <circle cx="-2" cy="-2" r="1.8" fill="white" opacity="0.8"/>
      </g>
    </g><g transform="translate(288 0)">

    <rect x="0" y="0" width="96" height="96" fill="none"/>
    <ellipse cx="48" cy="80.64" rx="18" ry="4" fill="rgba(0,0,0,0.24)"/>

      <path d="M 48 74.88 C 43 57.88 52 44.88 48 31.88" stroke="#3b9656" stroke-width="3" fill="none" stroke-linecap="round"/>
      <path d="M 40 60.88 Q 28 52.88 23 67.88 Q 35 67.88 40 60.88 Z" fill="#4fb967"/>
      <path d="M 55 56.88 Q 69 47.88 73 63.88 Q 60 64.88 55 56.88 Z" fill="#58c475"/>
      <g transform="translate(48 30.88)">
        <circle cx="-7" cy="0" r="7" fill="#ffffff"/>
        <circle cx="7" cy="0" r="7" fill="#ffffff"/>
        <circle cx="0" cy="-7" r="7" fill="#ffffff"/>
        <circle cx="0" cy="7" r="7" fill="#ffffff"/>
        <circle cx="0" cy="0" r="6" fill="#ffe07a"/>
        <circle cx="-2" cy="-2" r="1.8" fill="white" opacity="0.8"/>
      </g>
    </g><g transform="translate(384 0)">

    <rect x="0" y="0" width="96" height="96" fill="none"/>
    <ellipse cx="48" cy="80.64" rx="18" ry="4" fill="rgba(0,0,0,0.24)"/>

      <path d="M 48 74.88 C 43 57.88 52 44.88 48 31.88" stroke="#3b9656" stroke-width="3" fill="none" stroke-linecap="round"/>
      <path d="M 40 60.88 Q 28 52.88 23 67.88 Q 35 67.88 40 60.88 Z" fill="#4fb967"/>
      <path d="M 55 56.88 Q 69 47.88 73 63.88 Q 60 64.88 55 56.88 Z" fill="#58c475"/>
      <g transform="translate(48 30.88)">
        <circle cx="-7" cy="0" r="7" fill="#aa79ff"/>
        <circle cx="7" cy="0" r="7" fill="#aa79ff"/>
        <circle cx="0" cy="-7" r="7" fill="#aa79ff"/>
        <circle cx="0" cy="7" r="7" fill="#aa79ff"/>
        <circle cx="0" cy="0" r="6" fill="#ffe07a"/>
        <circle cx="-2" cy="-2" r="1.8" fill="white" opacity="0.8"/>
      </g>
    </g><g transform="translate(480 0)">

    <rect x="0" y="0" width="96" height="96" fill="none"/>
    <ellipse cx="48" cy="80.64" rx="18" ry="4" fill="rgba(0,0,0,0.24)"/>

      <path d="M 48 74.88 C 43 57.88 52 44.88 48 31.88" stroke="#3b9656" stroke-width="3" fill="none" stroke-linecap="round"/>
      <path d="M 40 60.88 Q 28 52.88 23 67.88 Q 35 67.88 40 60.88 Z" fill="#4fb967"/>
      <path d="M 55 56.88 Q 69 47.88 73 63.88 Q 60 64.88 55 56.88 Z" fill="#58c475"/>
      <g transform="translate(48 30.88)">
        <circle cx="-7" cy="0" r="7" fill="#ff8b4d"/>
        <circle cx="7" cy="0" r="7" fill="#ff8b4d"/>
        <circle cx="0" cy="-7" r="7" fill="#ff8b4d"/>
        <circle cx="0" cy="7" r="7" fill="#ff8b4d"/>
        <circle cx="0" cy="0" r="6" fill="#ffe07a"/>
        <circle cx="-2" cy="-2" r="1.8" fill="white" opacity="0.8"/>
      </g>
    </g><g transform="translate(576 0)">

    <rect x="0" y="0" width="96" height="96" fill="none"/>
    <ellipse cx="48" cy="80.64" rx="18" ry="4" fill="rgba(0,0,0,0.24)"/>

      <path d="M 48 74.88 C 43 57.88 52 44.88 48 31.88" stroke="#3b9656" stroke-width="3" fill="none" stroke-linecap="round"/>
      <path d="M 40 60.88 Q 28 52.88 23 67.88 Q 35 67.88 40 60.88 Z" fill="#4fb967"/>
      <path d="M 55 56.88 Q 69 47.88 73 63.88 Q 60 64.88 55 56.88 Z" fill="#58c475"/>
      <g transform="translate(48 30.88)">
        <circle cx="-7" cy="0" r="7" fill="#7fd46b"/>
        <circle cx="7" cy="0" r="7" fill="#7fd46b"/>
        <circle cx="0" cy="-7" r="7" fill="#7fd46b"/>
        <circle cx="0" cy="7" r="7" fill="#7fd46b"/>
        <circle cx="0" cy="0" r="6" fill="#ffe07a"/>
        <circle cx="-2" cy="-2" r="1.8" fill="white" opacity="0.8"/>
      </g>
    </g><g transform="translate(672 0)">

    <rect x="0" y="0" width="96" height="96" fill="none"/>
    <ellipse cx="48" cy="80.64" rx="18" ry="4" fill="rgba(0,0,0,0.24)"/>

      <path d="M 48 74.88 C 43 57.88 52 44.88 48 31.88" stroke="#3b9656" stroke-width="3" fill="none" stroke-linecap="round"/>
      <path d="M 40 60.88 Q 28 52.88 23 67.88 Q 35 67.88 40 60.88 Z" fill="#4fb967"/>
      <path d="M 55 56.88 Q 69 47.88 73 63.88 Q 60 64.88 55 56.88 Z" fill="#58c475"/>
      <g transform="translate(48 30.88)">
        <circle cx="-7" cy="0" r="7" fill="#65bd72"/>
        <circle cx="7" cy="0" r="7" fill="#65bd72"/>
        <circle cx="0" cy="-7" r="7" fill="#65bd72"/>
        <circle cx="0" cy="7" r="7" fill="#65bd72"/>
        <circle cx="0" cy="0" r="6" fill="#ffe07a"/>
        <circle cx="-2" cy="-2" r="1.8" fill="white" opacity="0.8"/>
      </g>
    </g></svg>
