<svg xmlns="http://www.w3.org/2000/svg" width="768" height="96" viewBox="0 0 768 96" fill="none"><defs><filter id="env_trees-soft-shadow" x="-40%" y="-40%" width="180%" height="180%"><feGaussianBlur in="SourceAlpha" stdDeviation="1.2" /><feOffset dx="0.5" dy="1" result="offsetblur" /><feComponentTransfer><feFuncA type="linear" slope="0.26" /></feComponentTransfer><feMerge><feMergeNode /><feMergeNode in="SourceGraphic" /></feMerge></filter></defs><g transform="translate(0 0)">

    <rect x="0" y="0" width="96" height="96" fill="none"/>
    <ellipse cx="48" cy="82.56" rx="20" ry="5" fill="rgba(0,0,0,0.18)"/>

      <rect x="44" y="47.88" width="8" height="30" rx="3" fill="#6b4b31"/>
      <path d="M 44 64.88 Q 32 50.88 26 30.88" stroke="#6b4b31" stroke-width="3" stroke-linecap="round" fill="none" opacity="0.7"/>
      <path d="M 52 62.88 Q 64 48.88 67 29.88" stroke="#6b4b31" stroke-width="3" stroke-linecap="round" fill="none" opacity="0.62"/>
      <ellipse cx="35" cy="40.88" rx="18" ry="16" fill="#2f8f5b"/>
      <ellipse cx="57" cy="35.88" rx="18" ry="17" fill="#2f8f5b"/>
      <ellipse cx="48" cy="24.88" rx="20" ry="18" fill="#7bd16f"/>
      <ellipse cx="41" cy="19.88" rx="9" ry="6" fill="rgba(255,255,255,0.18)"/>
    </g><g transform="translate(96 0)">

    <rect x="0" y="0" width="96" height="96" fill="none"/>
    <ellipse cx="48" cy="82.56" rx="20" ry="5" fill="rgba(0,0,0,0.18)"/>

      <rect x="44" y="47.88" width="8" height="30" rx="3" fill="#765236"/>
      <path d="M 44 64.88 Q 32 50.88 26 30.88" stroke="#765236" stroke-width="3" stroke-linecap="round" fill="none" opacity="0.7"/>
      <path d="M 52 62.88 Q 64 48.88 67 29.88" stroke="#765236" stroke-width="3" stroke-linecap="round" fill="none" opacity="0.62"/>
      <ellipse cx="35" cy="29.88" rx="15" ry="23" fill="#246f5a"/>
      <ellipse cx="57" cy="35.88" rx="18" ry="17" fill="#246f5a"/>
      <ellipse cx="48" cy="24.88" rx="16" ry="24" fill="#9ad16d"/>
      <ellipse cx="41" cy="19.88" rx="9" ry="6" fill="rgba(255,255,255,0.18)"/>
    </g><g transform="translate(192 0)">

    <rect x="0" y="0" width="96" height="96" fill="none"/>
    <ellipse cx="48" cy="82.56" rx="20" ry="5" fill="rgba(0,0,0,0.18)"/>

      <rect x="44" y="47.88" width="8" height="30" rx="3" fill="#6c4a32"/>
      <path d="M 44 64.88 Q 32 50.88 26 30.88" stroke="#6c4a32" stroke-width="3" stroke-linecap="round" fill="none" opacity="0.7"/>
      <path d="M 52 62.88 Q 64 48.88 67 29.88" stroke="#6c4a32" stroke-width="3" stroke-linecap="round" fill="none" opacity="0.62"/>
      <ellipse cx="35" cy="40.88" rx="18" ry="16" fill="#bf7d3d"/>
      <ellipse cx="57" cy="35.88" rx="18" ry="17" fill="#bf7d3d"/>
      <ellipse cx="48" cy="24.88" rx="20" ry="18" fill="#f2b14b"/>
      <ellipse cx="41" cy="19.88" rx="9" ry="6" fill="rgba(255,255,255,0.18)"/>
    </g><g transform="translate(288 0)">

    <rect x="0" y="0" width="96" height="96" fill="none"/>
    <ellipse cx="48" cy="82.56" rx="20" ry="5" fill="rgba(0,0,0,0.18)"/>

      <rect x="44" y="47.88" width="8" height="30" rx="3" fill="#69503a"/>
      <path d="M 44 64.88 Q 32 50.88 26 30.88" stroke="#69503a" stroke-width="3" stroke-linecap="round" fill="none" opacity="0.7"/>
      <path d="M 52 62.88 Q 64 48.88 67 29.88" stroke="#69503a" stroke-width="3" stroke-linecap="round" fill="none" opacity="0.62"/>
      <ellipse cx="35" cy="29.88" rx="15" ry="23" fill="#466b53"/>
      <ellipse cx="57" cy="35.88" rx="18" ry="17" fill="#466b53"/>
      <ellipse cx="48" cy="24.88" rx="16" ry="24" fill="#dfefff"/>
      <ellipse cx="41" cy="19.88" rx="9" ry="6" fill="rgba(255,255,255,0.18)"/>
    </g><g transform="translate(384 0)">

    <rect x="0" y="0" width="96" height="96" fill="none"/>
    <ellipse cx="48" cy="82.56" rx="20" ry="5" fill="rgba(0,0,0,0.18)"/>

      <rect x="44" y="47.88" width="8" height="30" rx="3" fill="#79523a"/>
      <path d="M 44 64.88 Q 32 50.88 26 30.88" stroke="#79523a" stroke-width="3" stroke-linecap="round" fill="none" opacity="0.7"/>
      <path d="M 52 62.88 Q 64 48.88 67 29.88" stroke="#79523a" stroke-width="3" stroke-linecap="round" fill="none" opacity="0.62"/>
      <ellipse cx="35" cy="40.88" rx="18" ry="16" fill="#5a9f72"/>
      <ellipse cx="57" cy="35.88" rx="18" ry="17" fill="#5a9f72"/>
      <ellipse cx="48" cy="24.88" rx="20" ry="18" fill="#f7a9c5"/>
      <ellipse cx="41" cy="19.88" rx="9" ry="6" fill="rgba(255,255,255,0.18)"/>
    </g><g transform="translate(480 0)">

    <rect x="0" y="0" width="96" height="96" fill="none"/>
    <ellipse cx="48" cy="82.56" rx="20" ry="5" fill="rgba(0,0,0,0.18)"/>

      <rect x="44" y="47.88" width="8" height="30" rx="3" fill="#6e5135"/>
      <path d="M 44 64.88 Q 32 50.88 26 30.88" stroke="#6e5135" stroke-width="3" stroke-linecap="round" fill="none" opacity="0.7"/>
      <path d="M 52 62.88 Q 64 48.88 67 29.88" stroke="#6e5135" stroke-width="3" stroke-linecap="round" fill="none" opacity="0.62"/>
      <ellipse cx="35" cy="40.88" rx="18" ry="16" fill="#58844e"/>
      <ellipse cx="57" cy="35.88" rx="18" ry="17" fill="#58844e"/>
      <ellipse cx="48" cy="24.88" rx="20" ry="18" fill="#d5d879"/>
      <ellipse cx="41" cy="19.88" rx="9" ry="6" fill="rgba(255,255,255,0.18)"/>
    </g><g transform="translate(576 0)">

    <rect x="0" y="0" width="96" height="96" fill="none"/>
    <ellipse cx="48" cy="82.56" rx="20" ry="5" fill="rgba(0,0,0,0.18)"/>

      <rect x="44" y="47.88" width="8" height="30" rx="3" fill="#4d3c30"/>
      <path d="M 44 64.88 Q 32 50.88 26 30.88" stroke="#4d3c30" stroke-width="3" stroke-linecap="round" fill="none" opacity="0.7"/>
      <path d="M 52 62.88 Q 64 48.88 67 29.88" stroke="#4d3c30" stroke-width="3" stroke-linecap="round" fill="none" opacity="0.62"/>
      <ellipse cx="35" cy="40.88" rx="18" ry="16" fill="#646566"/>
      <ellipse cx="57" cy="35.88" rx="18" ry="17" fill="#646566"/>
      <ellipse cx="48" cy="24.88" rx="20" ry="18" fill="#9aa5ac"/>
      <ellipse cx="41" cy="19.88" rx="9" ry="6" fill="rgba(255,255,255,0.18)"/>
    </g><g transform="translate(672 0)">

    <rect x="0" y="0" width="96" height="96" fill="none"/>
    <ellipse cx="48" cy="82.56" rx="20" ry="5" fill="rgba(0,0,0,0.18)"/>

      <rect x="44" y="47.88" width="8" height="30" rx="3" fill="#765236"/>
      <path d="M 44 64.88 Q 32 50.88 26 30.88" stroke="#765236" stroke-width="3" stroke-linecap="round" fill="none" opacity="0.7"/>
      <path d="M 52 62.88 Q 64 48.88 67 29.88" stroke="#765236" stroke-width="3" stroke-linecap="round" fill="none" opacity="0.62"/>
      <ellipse cx="35" cy="40.88" rx="18" ry="16" fill="#3b876c"/>
      <ellipse cx="57" cy="35.88" rx="18" ry="17" fill="#3b876c"/>
      <ellipse cx="48" cy="24.88" rx="20" ry="18" fill="#8fd0b4"/>
      <ellipse cx="41" cy="19.88" rx="9" ry="6" fill="rgba(255,255,255,0.18)"/>
    </g></svg>
