<svg xmlns="http://www.w3.org/2000/svg" width="1152" height="96" viewBox="0 0 1152 96" fill="none"><defs><filter id="prop_bounce-soft-shadow" x="-40%" y="-40%" width="180%" height="180%"><feGaussianBlur in="SourceAlpha" stdDeviation="1.2" /><feOffset dx="0.5" dy="1" result="offsetblur" /><feComponentTransfer><feFuncA type="linear" slope="0.26" /></feComponentTransfer><feMerge><feMergeNode /><feMergeNode in="SourceGraphic" /></feMerge></filter></defs><g transform="translate(0 0)">
      <rect x="0" y="0" width="96" height="96" fill="none"/>
      <ellipse cx="48" cy="70" rx="23" ry="5.8" fill="rgba(0,0,0,0.16)"/>
      <ellipse cx="48" cy="56" rx="28" ry="11" fill="currentColor"/>
      <ellipse cx="48" cy="54.5" rx="22.5" ry="6.05" fill="rgba(255,255,255,0.26)"/>
      <circle cx="48" cy="56" r="6.8" fill="rgba(255,255,255,0.82)" opacity="0.88"/>
    </g><g transform="translate(96 0)">
      <rect x="0" y="0" width="96" height="96" fill="none"/>
      <ellipse cx="48" cy="70" rx="23" ry="5.8" fill="rgba(0,0,0,0.16)"/>
      <ellipse cx="48" cy="56" rx="28" ry="9.59" fill="currentColor"/>
      <ellipse cx="48" cy="54.5" rx="22.5" ry="5.28" fill="rgba(255,255,255,0.26)"/>
      <circle cx="48" cy="56" r="6.8" fill="rgba(255,255,255,0.82)" opacity="0.88"/>
    </g><g transform="translate(192 0)">
      <rect x="0" y="0" width="96" height="96" fill="none"/>
      <ellipse cx="48" cy="70" rx="23" ry="5.8" fill="rgba(0,0,0,0.16)"/>
      <ellipse cx="48" cy="56" rx="28" ry="9.86" fill="currentColor"/>
      <ellipse cx="48" cy="54.5" rx="22.5" ry="5.42" fill="rgba(255,255,255,0.26)"/>
      <circle cx="48" cy="56" r="6.8" fill="rgba(255,255,255,0.82)" opacity="0.88"/>
    </g><g transform="translate(288 0)">
      <rect x="0" y="0" width="96" height="96" fill="none"/>
      <ellipse cx="48" cy="70" rx="23" ry="5.8" fill="rgba(0,0,0,0.16)"/>
      <ellipse cx="48" cy="56" rx="28" ry="11" fill="currentColor"/>
      <ellipse cx="48" cy="54.5" rx="22.5" ry="6.05" fill="rgba(255,255,255,0.26)"/>
      <circle cx="48" cy="56" r="6.8" fill="rgba(255,255,255,0.82)" opacity="0.88"/>
    </g><g transform="translate(384 0)">
      <rect x="0" y="0" width="96" height="96" fill="none"/>
      <ellipse cx="48" cy="70" rx="23" ry="5.8" fill="rgba(0,0,0,0.16)"/>
      <ellipse cx="48" cy="56" rx="28" ry="11" fill="currentColor"/>
      <ellipse cx="48" cy="54.5" rx="22.5" ry="6.05" fill="rgba(255,255,255,0.26)"/>
      <circle cx="48" cy="56" r="6.8" fill="rgba(255,255,255,0.82)" opacity="0.88"/>
    </g><g transform="translate(480 0)">
      <rect x="0" y="0" width="96" height="96" fill="none"/>
      <ellipse cx="48" cy="70" rx="23" ry="5.8" fill="rgba(0,0,0,0.16)"/>
      <ellipse cx="48" cy="56" rx="28" ry="11" fill="currentColor"/>
      <ellipse cx="48" cy="54.5" rx="22.5" ry="6.05" fill="rgba(255,255,255,0.26)"/>
      <circle cx="48" cy="56" r="6.8" fill="rgba(255,255,255,0.82)" opacity="0.88"/>
    </g><g transform="translate(576 0)">
      <rect x="0" y="0" width="96" height="96" fill="none"/>
      <ellipse cx="48" cy="70" rx="23" ry="5.8" fill="rgba(0,0,0,0.16)"/>
      <ellipse cx="48" cy="56" rx="28" ry="10.09" fill="currentColor"/>
      <ellipse cx="48" cy="54.5" rx="22.5" ry="5.55" fill="rgba(255,255,255,0.26)"/>
      <circle cx="48" cy="56" r="6.8" fill="rgba(255,255,255,0.82)" opacity="0.88"/>
    </g><g transform="translate(672 0)">
      <rect x="0" y="0" width="96" height="96" fill="none"/>
      <ellipse cx="48" cy="70" rx="23" ry="5.8" fill="rgba(0,0,0,0.16)"/>
      <ellipse cx="48" cy="56" rx="28" ry="9.49" fill="currentColor"/>
      <ellipse cx="48" cy="54.5" rx="22.5" ry="5.22" fill="rgba(255,255,255,0.26)"/>
      <circle cx="48" cy="56" r="6.8" fill="rgba(255,255,255,0.82)" opacity="0.88"/>
    </g><g transform="translate(768 0)">
      <rect x="0" y="0" width="96" height="96" fill="none"/>
      <ellipse cx="48" cy="70" rx="23" ry="5.8" fill="rgba(0,0,0,0.16)"/>
      <ellipse cx="48" cy="56" rx="28" ry="10.68" fill="currentColor"/>
      <ellipse cx="48" cy="54.5" rx="22.5" ry="5.87" fill="rgba(255,255,255,0.26)"/>
      <circle cx="48" cy="56" r="6.8" fill="rgba(255,255,255,0.82)" opacity="0.88"/>
    </g><g transform="translate(864 0)">
      <rect x="0" y="0" width="96" height="96" fill="none"/>
      <ellipse cx="48" cy="70" rx="23" ry="5.8" fill="rgba(0,0,0,0.16)"/>
      <ellipse cx="48" cy="56" rx="28" ry="11" fill="currentColor"/>
      <ellipse cx="48" cy="54.5" rx="22.5" ry="6.05" fill="rgba(255,255,255,0.26)"/>
      <circle cx="48" cy="56" r="6.8" fill="rgba(255,255,255,0.82)" opacity="0.88"/>
    </g><g transform="translate(960 0)">
      <rect x="0" y="0" width="96" height="96" fill="none"/>
      <ellipse cx="48" cy="70" rx="23" ry="5.8" fill="rgba(0,0,0,0.16)"/>
      <ellipse cx="48" cy="56" rx="28" ry="11" fill="currentColor"/>
      <ellipse cx="48" cy="54.5" rx="22.5" ry="6.05" fill="rgba(255,255,255,0.26)"/>
      <circle cx="48" cy="56" r="6.8" fill="rgba(255,255,255,0.82)" opacity="0.88"/>
    </g><g transform="translate(1056 0)">
      <rect x="0" y="0" width="96" height="96" fill="none"/>
      <ellipse cx="48" cy="70" rx="23" ry="5.8" fill="rgba(0,0,0,0.16)"/>
      <ellipse cx="48" cy="56" rx="28" ry="10.84" fill="currentColor"/>
      <ellipse cx="48" cy="54.5" rx="22.5" ry="5.96" fill="rgba(255,255,255,0.26)"/>
      <circle cx="48" cy="56" r="6.8" fill="rgba(255,255,255,0.82)" opacity="0.88"/>
    </g></svg>
