<svg xmlns="http://www.w3.org/2000/svg" width="512" height="32" viewBox="0 0 512 32" fill="none"><defs><filter id="particle_sparkle-soft-shadow" x="-40%" y="-40%" width="180%" height="180%"><feGaussianBlur in="SourceAlpha" stdDeviation="1.2" /><feOffset dx="0.5" dy="1" result="offsetblur" /><feComponentTransfer><feFuncA type="linear" slope="0.26" /></feComponentTransfer><feMerge><feMergeNode /><feMergeNode in="SourceGraphic" /></feMerge></filter></defs><g transform="translate(0 0)">
      <rect x="0" y="0" width="32" height="32" fill="none"/>
      <g transform="translate(16 16) rotate(0) scale(1)">
        <path d="M 0 -12 L 2.8 -2.8 L 12 0 L 2.8 2.8 L 0 12 L -2.8 2.8 L -12 0 L -2.8 -2.8 Z" fill="#fff1a8"/>
        <circle cx="-3" cy="-4" r="1.2" fill="white"/>
      </g>
    </g><g transform="translate(32 0)">
      <rect x="0" y="0" width="32" height="32" fill="none"/>
      <g transform="translate(16 16) rotate(18) scale(1.11)">
        <path d="M 0 -12 L 2.8 -2.8 L 12 0 L 2.8 2.8 L 0 12 L -2.8 2.8 L -12 0 L -2.8 -2.8 Z" fill="#fff1a8"/>
        <circle cx="-3" cy="-4" r="1.2" fill="white"/>
      </g>
    </g><g transform="translate(64 0)">
      <rect x="0" y="0" width="32" height="32" fill="none"/>
      <g transform="translate(16 16) rotate(36) scale(1.16)">
        <path d="M 0 -12 L 2.8 -2.8 L 12 0 L 2.8 2.8 L 0 12 L -2.8 2.8 L -12 0 L -2.8 -2.8 Z" fill="#fff1a8"/>
        <circle cx="-3" cy="-4" r="1.2" fill="white"/>
      </g>
    </g><g transform="translate(96 0)">
      <rect x="0" y="0" width="32" height="32" fill="none"/>
      <g transform="translate(16 16) rotate(54) scale(1.11)">
        <path d="M 0 -12 L 2.8 -2.8 L 12 0 L 2.8 2.8 L 0 12 L -2.8 2.8 L -12 0 L -2.8 -2.8 Z" fill="#fff1a8"/>
        <circle cx="-3" cy="-4" r="1.2" fill="white"/>
      </g>
    </g><g transform="translate(128 0)">
      <rect x="0" y="0" width="32" height="32" fill="none"/>
      <circle cx="16" cy="16" r="8.5" fill="#d946ef" opacity="0.72"/>
      <circle cx="16" cy="16" r="12" fill="none" stroke="#d946ef" stroke-width="1.7" opacity="0.72"/>
      <path d="M 16 2 l 0 5 M 16 25 l 0 5 M 2 16 l 5 0 M 25 16 l 5 0" stroke="white" stroke-width="1.2" stroke-linecap="round" opacity="0.75"/>
    </g><g transform="translate(160 0)">
      <rect x="0" y="0" width="32" height="32" fill="none"/>
      <circle cx="16" cy="16" r="7.54" fill="#8b5cf6" opacity="0.72"/>
      <circle cx="16" cy="16" r="10.64" fill="none" stroke="#8b5cf6" stroke-width="1.7" opacity="0.72"/>
      <path d="M 16 2 l 0 5 M 16 25 l 0 5 M 2 16 l 5 0 M 25 16 l 5 0" stroke="white" stroke-width="1.2" stroke-linecap="round" opacity="0.75"/>
    </g><g transform="translate(192 0)">
      <rect x="0" y="0" width="32" height="32" fill="none"/>
      <circle cx="16" cy="16" r="7.14" fill="#d946ef" opacity="0.72"/>
      <circle cx="16" cy="16" r="10.08" fill="none" stroke="#d946ef" stroke-width="1.7" opacity="0.72"/>
      <path d="M 16 2 l 0 5 M 16 25 l 0 5 M 2 16 l 5 0 M 25 16 l 5 0" stroke="white" stroke-width="1.2" stroke-linecap="round" opacity="0.75"/>
    </g><g transform="translate(224 0)">
      <rect x="0" y="0" width="32" height="32" fill="none"/>
      <circle cx="16" cy="16" r="7.54" fill="#8b5cf6" opacity="0.72"/>
      <circle cx="16" cy="16" r="10.64" fill="none" stroke="#8b5cf6" stroke-width="1.7" opacity="0.72"/>
      <path d="M 16 2 l 0 5 M 16 25 l 0 5 M 2 16 l 5 0 M 25 16 l 5 0" stroke="white" stroke-width="1.2" stroke-linecap="round" opacity="0.75"/>
    </g><g transform="translate(256 0)">
      <rect x="0" y="0" width="32" height="32" fill="none"/>
      <ellipse cx="16" cy="19" rx="10" ry="6" fill="#9b7650" opacity="0.42"/><circle cx="10" cy="16" r="4.5" fill="#b89166" opacity="0.55"/><circle cx="20" cy="14" r="5.3" fill="#c8a376" opacity="0.45"/>
    </g><g transform="translate(288 0)">
      <rect x="0" y="0" width="32" height="32" fill="none"/>
      <path d="M 5 20 C 12 6 24 5 28 18 C 18 20 14 26 5 20 Z" fill="#86ef70" opacity="0.78"/><path d="M 8 19 Q 18 17 26 15" stroke="rgba(255,255,255,0.45)" stroke-width="1" fill="none"/>
    </g><g transform="translate(320 0)">
      <rect x="0" y="0" width="32" height="32" fill="none"/>
      <ellipse cx="16" cy="19" rx="11.6" ry="6.96" fill="#9b7650" opacity="0.42"/><circle cx="10" cy="16" r="4.5" fill="#b89166" opacity="0.55"/><circle cx="20" cy="14" r="5.3" fill="#c8a376" opacity="0.45"/>
    </g><g transform="translate(352 0)">
      <rect x="0" y="0" width="32" height="32" fill="none"/>
      <path d="M 5 20 C 12 6 24 5 28 18 C 18 20 14 26 5 20 Z" fill="#86ef70" opacity="0.78"/><path d="M 8 19 Q 18 17 26 15" stroke="rgba(255,255,255,0.45)" stroke-width="1" fill="none"/>
    </g><g transform="translate(384 0)">
    <rect x="0" y="0" width="32" height="32" fill="none"/>
    <circle cx="16" cy="16" r="10" fill="none" stroke="#9fe8ff" stroke-width="2.2" opacity="0.8"/><path d="M 7 15 Q 16 5 25 15" stroke="white" stroke-width="1.3" fill="none" opacity="0.65"/>
  </g><g transform="translate(416 0)">
    <rect x="0" y="0" width="32" height="32" fill="none"/>
    <path d="M 16 28 C 8 19 14 9 17 3 C 26 13 24 23 16 28 Z" fill="#fb923c" opacity="0.88"/><path d="M 16 22 C 13 17 17 11 19 8 C 22 15 21 20 16 22 Z" fill="#fde68a" opacity="0.82"/>
  </g><g transform="translate(448 0)">
    <rect x="0" y="0" width="32" height="32" fill="none"/>
    <circle cx="16" cy="16" r="8.4" fill="none" stroke="#9fe8ff" stroke-width="2.2" opacity="0.8"/><path d="M 7 15 Q 16 5 25 15" stroke="white" stroke-width="1.3" fill="none" opacity="0.65"/>
  </g><g transform="translate(480 0)">
    <rect x="0" y="0" width="32" height="32" fill="none"/>
    <path d="M 16 28 C 8 19 14 9 17 3 C 26 13 24 23 16 28 Z" fill="#fb923c" opacity="0.88"/><path d="M 16 22 C 13 17 17 11 19 8 C 22 15 21 20 16 22 Z" fill="#fde68a" opacity="0.82"/>
  </g></svg>
