<svg xmlns="http://www.w3.org/2000/svg" width="512" height="32" viewBox="0 0 512 32" fill="none"><defs><filter id="particle_sparkle-soft-shadow" x="-40%" y="-40%" width="180%" height="180%"><feGaussianBlur in="SourceAlpha" stdDeviation="1.2" /><feOffset dx="0.5" dy="1" result="offsetblur" /><feComponentTransfer><feFuncA type="linear" slope="0.26" /></feComponentTransfer><feMerge><feMergeNode /><feMergeNode in="SourceGraphic" /></feMerge></filter></defs><g transform="translate(0 0)">
      <rect x="0" y="0" width="32" height="32" fill="none"/>
      <g transform="translate(16 16) rotate(0) scale(1)">
        <path d="M 0 -12 L 2.8 -2.8 L 12 0 L 2.8 2.8 L 0 12 L -2.8 2.8 L -12 0 L -2.8 -2.8 Z" fill="#fff1a8"/>
        <circle cx="-3" cy="-4" r="1.2" fill="white"/>
      </g>
    </g><g transform="translate(32 0)">
      <rect x="0" y="0" width="32" height="32" fill="none"/>
      <g transform="translate(16 16) rotate(18) scale(1.11)">
        <path d="M 0 -12 L 2.8 -2.8 L 12 0 L 2.8 2.8 L 0 12 L -2.8 2.8 L -12 0 L -2.8 -2.8 Z" fill="#fff1a8"/>
        <circle cx="-3" cy="-4" r="1.2" fill="white"/>
      </g>
    </g><g transform="translate(64 0)">
      <rect x="0" y="0" width="32" height="32" fill="none"/>
      <g transform="translate(16 16) rotate(36) scale(1.16)">
        <path d="M 0 -12 L 2.8 -2.8 L 12 0 L 2.8 2.8 L 0 12 L -2.8 2.8 L -12 0 L -2.8 -2.8 Z" fill="#fff1a8"/>
        <circle cx="-3" cy="-4" r="1.2" fill="white"/>
      </g>
    </g><g transform="translate(96 0)">
      <rect x="0" y="0" width="32" height="32" fill="none"/>
      <g transform="translate(16 16) rotate(54) scale(1.11)">
        <path d="M 0 -12 L 2.8 -2.8 L 12 0 L 2.8 2.8 L 0 12 L -2.8 2.8 L -12 0 L -2.8 -2.8 Z" fill="#fff1a8"/>
        <circle cx="-3" cy="-4" r="1.2" fill="white"/>
      </g>
    </g><g transform="translate(128 0)">
      <rect x="0" y="0" width="32" height="32" fill="none"/>
      <path d="M 16 26 C 0 15 5 1 16 9 C 27 1 32 15 16 26 Z" fill="#ff7aa8" opacity="0.92"/>
      <ellipse cx="12" cy="12" rx="3" ry="2" fill="white" opacity="0.38"/>
    </g><g transform="translate(160 0)">
      <rect x="0" y="0" width="32" height="32" fill="none"/>
      <path d="M 16 26 C 0 15 5 1 16 9 C 27 1 32 15 16 26 Z" fill="#ff7aa8" opacity="0.92"/>
      <ellipse cx="12" cy="12" rx="3" ry="2" fill="white" opacity="0.38"/>
    </g><g transform="translate(192 0)">
      <rect x="0" y="0" width="32" height="32" fill="none"/>
      <path d="M 16 26 C 0 15 5 1 16 9 C 27 1 32 15 16 26 Z" fill="#ff7aa8" opacity="0.92"/>
      <ellipse cx="12" cy="12" rx="3" ry="2" fill="white" opacity="0.38"/>
    </g><g transform="translate(224 0)">
      <rect x="0" y="0" width="32" height="32" fill="none"/>
      <path d="M 16 26 C 0 15 5 1 16 9 C 27 1 32 15 16 26 Z" fill="#ff7aa8" opacity="0.92"/>
      <ellipse cx="12" cy="12" rx="3" ry="2" fill="white" opacity="0.38"/>
    </g><g transform="translate(256 0)">
      <rect x="0" y="0" width="32" height="32" fill="none"/>
      <ellipse cx="16" cy="19" rx="10" ry="6" fill="#9b7650" opacity="0.42"/>
      <circle cx="10" cy="16" r="4.5" fill="#b89166" opacity="0.55"/>
      <circle cx="20" cy="14" r="5.3" fill="#c8a376" opacity="0.45"/>
    </g><g transform="translate(288 0)">
      <rect x="0" y="0" width="32" height="32" fill="none"/>
      <ellipse cx="16" cy="19" rx="11.13" ry="6.68" fill="#9b7650" opacity="0.42"/>
      <circle cx="10" cy="16" r="4.5" fill="#b89166" opacity="0.55"/>
      <circle cx="20" cy="14" r="5.3" fill="#c8a376" opacity="0.45"/>
    </g><g transform="translate(320 0)">
      <rect x="0" y="0" width="32" height="32" fill="none"/>
      <ellipse cx="16" cy="19" rx="11.6" ry="6.96" fill="#9b7650" opacity="0.42"/>
      <circle cx="10" cy="16" r="4.5" fill="#b89166" opacity="0.55"/>
      <circle cx="20" cy="14" r="5.3" fill="#c8a376" opacity="0.45"/>
    </g><g transform="translate(352 0)">
      <rect x="0" y="0" width="32" height="32" fill="none"/>
      <ellipse cx="16" cy="19" rx="11.13" ry="6.68" fill="#9b7650" opacity="0.42"/>
      <circle cx="10" cy="16" r="4.5" fill="#b89166" opacity="0.55"/>
      <circle cx="20" cy="14" r="5.3" fill="#c8a376" opacity="0.45"/>
    </g><g transform="translate(384 0)">
    <rect x="0" y="0" width="32" height="32" fill="none"/>
    <circle cx="16" cy="16" r="10" fill="none" stroke="#9fe8ff" stroke-width="2.2" opacity="0.8"/>
    <path d="M 7 15 Q 16 5 25 15" stroke="white" stroke-width="1.3" fill="none" opacity="0.65"/>
  </g><g transform="translate(416 0)">
    <rect x="0" y="0" width="32" height="32" fill="none"/>
    <circle cx="16" cy="16" r="8.87" fill="none" stroke="#9fe8ff" stroke-width="2.2" opacity="0.8"/>
    <path d="M 7 15 Q 16 5 25 15" stroke="white" stroke-width="1.3" fill="none" opacity="0.65"/>
  </g><g transform="translate(448 0)">
    <rect x="0" y="0" width="32" height="32" fill="none"/>
    <circle cx="16" cy="16" r="8.4" fill="none" stroke="#9fe8ff" stroke-width="2.2" opacity="0.8"/>
    <path d="M 7 15 Q 16 5 25 15" stroke="white" stroke-width="1.3" fill="none" opacity="0.65"/>
  </g><g transform="translate(480 0)">
    <rect x="0" y="0" width="32" height="32" fill="none"/>
    <circle cx="16" cy="16" r="8.87" fill="none" stroke="#9fe8ff" stroke-width="2.2" opacity="0.8"/>
    <path d="M 7 15 Q 16 5 25 15" stroke="white" stroke-width="1.3" fill="none" opacity="0.65"/>
  </g></svg>
