<svg xmlns="http://www.w3.org/2000/svg" width="2240" height="180" viewBox="0 0 2240 180" fill="none"><defs><filter id="ui_scenario_cards-soft-shadow" x="-40%" y="-40%" width="180%" height="180%"><feGaussianBlur in="SourceAlpha" stdDeviation="1.2" /><feOffset dx="0.5" dy="1" result="offsetblur" /><feComponentTransfer><feFuncA type="linear" slope="0.26" /></feComponentTransfer><feMerge><feMergeNode /><feMergeNode in="SourceGraphic" /></feMerge></filter></defs><g transform="translate(0 0)">
    <rect x="0" y="0" width="320" height="180" rx="18" fill="#07101c"/>
    <rect x="5" y="5" width="310" height="170" rx="15" fill="#103021" stroke="rgba(255,255,255,0.16)" stroke-width="1.4"/>
    <rect x="5" y="5" width="310" height="170" rx="15" fill="rgba(255,255,255,0.06)"/>
    <rect x="5" y="104.4" width="310" height="70.6" rx="15" fill="rgba(0,0,0,0.28)"/>
    <circle cx="182" cy="100" r="92" fill="#62e6a6" opacity="0.13"/>

    <ellipse cx="160" cy="122.4" rx="118" ry="46" fill="rgba(34,197,94,0.2)" stroke="#62e6a6" stroke-width="1.3" opacity="0.82"/>
    <ellipse cx="204" cy="120.6" rx="44" ry="24" fill="none" stroke="#d5ff7d" stroke-width="1.2" opacity="0.48"/>
    <circle cx="192" cy="108" r="2.1" fill="#d5ff7d" opacity="0.86"/><circle cx="126.11" cy="114.95" r="2.45" fill="#d5ff7d" opacity="0.86"/><circle cx="165.13" cy="90.87" r="2.8" fill="#d5ff7d" opacity="0.86"/><circle cx="205.19" cy="136.72" r="2.1" fill="#d5ff7d" opacity="0.86"/><circle cx="128.47" cy="93.67" r="2.45" fill="#d5ff7d" opacity="0.86"/><circle cx="198.69" cy="129.05" r="2.8" fill="#d5ff7d" opacity="0.86"/><circle cx="144.76" cy="83" r="2.1" fill="#d5ff7d" opacity="0.86"/><circle cx="125.45" cy="132.38" r="2.45" fill="#d5ff7d" opacity="0.86"/><circle cx="190.14" cy="101.42" r="2.8" fill="#d5ff7d" opacity="0.86"/><circle cx="117.63" cy="110.72" r="2.1" fill="#d5ff7d" opacity="0.86"/><circle cx="184.91" cy="113.65" r="2.45" fill="#d5ff7d" opacity="0.86"/>

      <g opacity="0.96">
        <ellipse cx="159.65" cy="118.31" rx="10" ry="3.4" fill="rgba(0,0,0,0.22)"/>
        <path d="M 151.65 110.31 Q 143.65 105.31 152.65 112.31 Q 144.65 117.31 151.65 110.31 Z" fill="#62e6a6" opacity="0.78"/>
        <ellipse cx="159.65" cy="110.31" rx="12" ry="8" fill="#62e6a6"/>
        <ellipse cx="163.65" cy="107.31" rx="2.3" ry="2" fill="white"/>
        <circle cx="164.35" cy="107.31" r="0.9" fill="#0f172a"/>
      </g>

      <g opacity="0.96">
        <ellipse cx="98.68" cy="118.45" rx="10" ry="3.4" fill="rgba(0,0,0,0.22)"/>
        <path d="M 90.68 110.45 Q 80.99 105.45 89.99 112.45 Q 81.99 117.45 90.68 110.45 Z" fill="#62e6a6" opacity="0.78"/>
        <ellipse cx="98.68" cy="110.45" rx="12" ry="8" fill="#62e6a6"/>
        <ellipse cx="102.68" cy="107.45" rx="2.3" ry="2" fill="white"/>
        <circle cx="103.38" cy="107.45" r="0.9" fill="#0f172a"/>
      </g>

      <g opacity="0.96">
        <ellipse cx="114.91" cy="94.38" rx="10" ry="3.4" fill="rgba(0,0,0,0.22)"/>
        <path d="M 106.91 86.38 Q 97.09 81.38 106.09 88.38 Q 98.09 93.38 106.91 86.38 Z" fill="#62e6a6" opacity="0.78"/>
        <ellipse cx="114.91" cy="86.38" rx="12" ry="8" fill="#62e6a6"/>
        <ellipse cx="118.91" cy="83.38" rx="2.3" ry="2" fill="white"/>
        <circle cx="119.61" cy="83.38" r="0.9" fill="#0f172a"/>
      </g>

      <g opacity="0.96">
        <ellipse cx="184.64" cy="101.87" rx="10" ry="3.4" fill="rgba(0,0,0,0.22)"/>
        <path d="M 176.64 93.87 Q 168.36 88.87 177.36 95.87 Q 169.36 100.87 176.64 93.87 Z" fill="#62e6a6" opacity="0.78"/>
        <ellipse cx="184.64" cy="93.87" rx="12" ry="8" fill="#62e6a6"/>
        <ellipse cx="188.64" cy="90.87" rx="2.3" ry="2" fill="white"/>
        <circle cx="189.34" cy="90.87" r="0.9" fill="#0f172a"/>
      </g>


    <ellipse cx="40" cy="144" rx="13" ry="7" fill="#d5ff7d" opacity="0.88"/><circle cx="40" cy="142" r="4" fill="rgba(255,255,255,0.7)"/>


    <path d="M 18 24 C 54 6 86 10 118 25" stroke="rgba(255,255,255,0.16)" stroke-width="2" fill="none"/>
    <rect x="10" y="10" width="300" height="160" rx="12" fill="none" stroke="rgba(255,255,255,0.1)" stroke-width="1"/>
  </g><g transform="translate(320 0)">
    <rect x="0" y="0" width="320" height="180" rx="18" fill="#07101c"/>
    <rect x="5" y="5" width="310" height="170" rx="15" fill="#173a2b" stroke="rgba(255,255,255,0.16)" stroke-width="1.4"/>
    <rect x="5" y="5" width="310" height="170" rx="15" fill="rgba(255,255,255,0.06)"/>
    <rect x="5" y="104.4" width="310" height="70.6" rx="15" fill="rgba(0,0,0,0.28)"/>
    <circle cx="182" cy="100" r="92" fill="#86efac" opacity="0.13"/>
    <path d="M 0 122.4 C 52 104.4 98 140.4 150 118.8 C 205 97.2 248 126 320 108 L 320 180 L 0 180 Z" fill="rgba(56,189,248,0.2)"/>
    <ellipse cx="160" cy="122.4" rx="118" ry="46" fill="rgba(34,197,94,0.2)" stroke="#86efac" stroke-width="1.3" opacity="0.82"/>
    <ellipse cx="204" cy="120.6" rx="44" ry="24" fill="none" stroke="#f6d365" stroke-width="1.2" opacity="0.48"/>
    <circle cx="186.41" cy="117.51" r="2.1" fill="#f6d365" opacity="0.86"/><circle cx="114.47" cy="100.4" r="2.45" fill="#f6d365" opacity="0.86"/><circle cx="197.99" cy="108.9" r="2.8" fill="#f6d365" opacity="0.86"/><circle cx="164.21" cy="118.13" r="2.1" fill="#f6d365" opacity="0.86"/><circle cx="137.05" cy="99.24" r="2.45" fill="#f6d365" opacity="0.86"/><circle cx="205.98" cy="125.48" r="2.8" fill="#f6d365" opacity="0.86"/><circle cx="114.65" cy="81.36" r="2.1" fill="#f6d365" opacity="0.86"/><circle cx="168.44" cy="141.96" r="2.45" fill="#f6d365" opacity="0.86"/><circle cx="178.81" cy="94.47" r="2.8" fill="#f6d365" opacity="0.86"/><circle cx="114.92" cy="123.63" r="2.1" fill="#f6d365" opacity="0.86"/><circle cx="211.38" cy="94.87" r="2.45" fill="#f6d365" opacity="0.86"/><circle cx="139.16" cy="113.46" r="2.8" fill="#f6d365" opacity="0.86"/><circle cx="145.88" cy="110.54" r="2.1" fill="#f6d365" opacity="0.86"/>

      <g opacity="0.96">
        <ellipse cx="159.65" cy="123.99" rx="10" ry="3.4" fill="rgba(0,0,0,0.22)"/>
        <path d="M 151.65 115.99 Q 142.09 110.99 151.09 117.99 Q 143.09 122.99 151.65 115.99 Z" fill="#86efac" opacity="0.78"/>
        <ellipse cx="159.65" cy="115.99" rx="12" ry="8" fill="#86efac"/>
        <ellipse cx="163.65" cy="112.99" rx="2.3" ry="2" fill="white"/>
        <circle cx="164.35" cy="112.99" r="0.9" fill="#0f172a"/>
      </g>

      <g opacity="0.96">
        <ellipse cx="98.68" cy="105.04" rx="10" ry="3.4" fill="rgba(0,0,0,0.22)"/>
        <path d="M 90.68 97.04 Q 80.78 92.04 89.78 99.04 Q 81.78 104.04 90.68 97.04 Z" fill="#86efac" opacity="0.78"/>
        <ellipse cx="98.68" cy="97.04" rx="12" ry="8" fill="#86efac"/>
        <ellipse cx="102.68" cy="94.04" rx="2.3" ry="2" fill="white"/>
        <circle cx="103.38" cy="94.04" r="0.9" fill="#0f172a"/>
      </g>

      <g opacity="0.96">
        <ellipse cx="114.91" cy="92.94" rx="10" ry="3.4" fill="rgba(0,0,0,0.22)"/>
        <path d="M 106.91 84.94 Q 98.43 79.94 107.43 86.94 Q 99.43 91.94 106.91 84.94 Z" fill="#86efac" opacity="0.78"/>
        <ellipse cx="114.91" cy="84.94" rx="12" ry="8" fill="#86efac"/>
        <ellipse cx="118.91" cy="81.94" rx="2.3" ry="2" fill="white"/>
        <circle cx="119.61" cy="81.94" r="0.9" fill="#0f172a"/>
      </g>

      <g opacity="0.96">
        <ellipse cx="184.64" cy="115.73" rx="10" ry="3.4" fill="rgba(0,0,0,0.22)"/>
        <path d="M 176.64 107.73 Q 170.01 102.73 179.01 109.73 Q 171.01 114.73 176.64 107.73 Z" fill="#86efac" opacity="0.78"/>
        <ellipse cx="184.64" cy="107.73" rx="12" ry="8" fill="#86efac"/>
        <ellipse cx="188.64" cy="104.73" rx="2.3" ry="2" fill="white"/>
        <circle cx="189.34" cy="104.73" r="0.9" fill="#0f172a"/>
      </g>

      <g opacity="0.96">
        <ellipse cx="160.2" cy="120.6" rx="10" ry="3.4" fill="rgba(0,0,0,0.22)"/>
        <path d="M 152.2 112.6 Q 146.17 107.6 155.17 114.6 Q 147.17 119.6 152.2 112.6 Z" fill="#86efac" opacity="0.78"/>
        <ellipse cx="160.2" cy="112.6" rx="12" ry="8" fill="#86efac"/>
        <ellipse cx="164.2" cy="109.6" rx="2.3" ry="2" fill="white"/>
        <circle cx="164.9" cy="109.6" r="0.9" fill="#0f172a"/>
      </g>

      <g opacity="0.96">
        <ellipse cx="112.12" cy="96.27" rx="10" ry="3.4" fill="rgba(0,0,0,0.22)"/>
        <path d="M 104.12 88.27 Q 96.88 83.27 105.88 90.27 Q 97.88 95.27 104.12 88.27 Z" fill="#86efac" opacity="0.78"/>
        <ellipse cx="112.12" cy="88.27" rx="12" ry="8" fill="#86efac"/>
        <ellipse cx="116.12" cy="85.27" rx="2.3" ry="2" fill="white"/>
        <circle cx="116.82" cy="85.27" r="0.9" fill="#0f172a"/>
      </g>


      <g opacity="0.9">
        <ellipse cx="200.87" cy="118.57" rx="12" ry="3.8" fill="rgba(0,0,0,0.26)"/>
        <path d="M 187.87 109.57 L 198.87 100.57 L 214.87 107.57 L 210.87 117.57 L 192.87 117.57 Z" fill="#fb7185"/>
        <circle cx="206.87" cy="106.57" r="2" fill="white"/>
        <path d="M 206.87 113.57 l 4 -2 l -1 4 Z" fill="#fef2f2"/>
      </g>

    <ellipse cx="40" cy="144" rx="13" ry="7" fill="#f6d365" opacity="0.88"/><circle cx="40" cy="142" r="4" fill="rgba(255,255,255,0.7)"/>


    <path d="M 18 24 C 54 6 86 10 118 25" stroke="rgba(255,255,255,0.16)" stroke-width="2" fill="none"/>
    <rect x="10" y="10" width="300" height="160" rx="12" fill="none" stroke="rgba(255,255,255,0.1)" stroke-width="1"/>
  </g><g transform="translate(640 0)">
    <rect x="0" y="0" width="320" height="180" rx="18" fill="#07101c"/>
    <rect x="5" y="5" width="310" height="170" rx="15" fill="#3a1720" stroke="rgba(255,255,255,0.16)" stroke-width="1.4"/>
    <rect x="5" y="5" width="310" height="170" rx="15" fill="rgba(255,255,255,0.06)"/>
    <rect x="5" y="104.4" width="310" height="70.6" rx="15" fill="rgba(0,0,0,0.28)"/>
    <circle cx="182" cy="100" r="92" fill="#fb7185" opacity="0.13"/>

    <ellipse cx="160" cy="122.4" rx="118" ry="46" fill="rgba(34,197,94,0.2)" stroke="#fb7185" stroke-width="1.3" opacity="0.82"/>
    <ellipse cx="204" cy="120.6" rx="44" ry="24" fill="none" stroke="#fbbf24" stroke-width="1.2" opacity="0.48"/>
    <circle cx="171.6" cy="122.52" r="2.1" fill="#fbbf24" opacity="0.86"/><circle cx="118.73" cy="89.45" r="2.45" fill="#fbbf24" opacity="0.86"/><circle cx="217.58" cy="126.5" r="2.8" fill="#fbbf24" opacity="0.86"/><circle cx="121.76" cy="94.75" r="2.1" fill="#fbbf24" opacity="0.86"/><circle cx="153.66" cy="108.96" r="2.45" fill="#fbbf24" opacity="0.86"/><circle cx="197.21" cy="113.64" r="2.8" fill="#fbbf24" opacity="0.86"/><circle cx="100.39" cy="92.31" r="2.1" fill="#fbbf24" opacity="0.86"/>

      <g opacity="0.96">
        <ellipse cx="159.65" cy="117.64" rx="10" ry="3.4" fill="rgba(0,0,0,0.22)"/>
        <path d="M 151.65 109.64 Q 141.7 104.64 150.7 111.64 Q 142.7 116.64 151.65 109.64 Z" fill="#fb7185" opacity="0.78"/>
        <ellipse cx="159.65" cy="109.64" rx="12" ry="8" fill="#fb7185"/>
        <ellipse cx="163.65" cy="106.64" rx="2.3" ry="2" fill="white"/>
        <circle cx="164.35" cy="106.64" r="0.9" fill="#0f172a"/>
      </g>

      <g opacity="0.96">
        <ellipse cx="98.68" cy="93.86" rx="10" ry="3.4" fill="rgba(0,0,0,0.22)"/>
        <path d="M 90.68 85.86 Q 82 80.86 91 87.86 Q 83 92.86 90.68 85.86 Z" fill="#fb7185" opacity="0.78"/>
        <ellipse cx="98.68" cy="85.86" rx="12" ry="8" fill="#fb7185"/>
        <ellipse cx="102.68" cy="82.86" rx="2.3" ry="2" fill="white"/>
        <circle cx="103.38" cy="82.86" r="0.9" fill="#0f172a"/>
      </g>

      <g opacity="0.96">
        <ellipse cx="114.91" cy="102.85" rx="10" ry="3.4" fill="rgba(0,0,0,0.22)"/>
        <path d="M 106.91 94.85 Q 100.13 89.85 109.13 96.85 Q 101.13 101.85 106.91 94.85 Z" fill="#fb7185" opacity="0.78"/>
        <ellipse cx="114.91" cy="94.85" rx="12" ry="8" fill="#fb7185"/>
        <ellipse cx="118.91" cy="91.85" rx="2.3" ry="2" fill="white"/>
        <circle cx="119.61" cy="91.85" r="0.9" fill="#0f172a"/>
      </g>

      <g opacity="0.96">
        <ellipse cx="184.64" cy="123.77" rx="10" ry="3.4" fill="rgba(0,0,0,0.22)"/>
        <path d="M 176.64 115.77 Q 170.64 110.77 179.64 117.77 Q 171.64 122.77 176.64 115.77 Z" fill="#fb7185" opacity="0.78"/>
        <ellipse cx="184.64" cy="115.77" rx="12" ry="8" fill="#fb7185"/>
        <ellipse cx="188.64" cy="112.77" rx="2.3" ry="2" fill="white"/>
        <circle cx="189.34" cy="112.77" r="0.9" fill="#0f172a"/>
      </g>


      <g opacity="0.9">
        <ellipse cx="200.1" cy="114.24" rx="12" ry="3.8" fill="rgba(0,0,0,0.26)"/>
        <path d="M 187.1 105.24 L 198.1 96.24 L 214.1 103.24 L 210.1 113.24 L 192.1 113.24 Z" fill="#fb7185"/>
        <circle cx="206.1" cy="102.24" r="2" fill="white"/>
        <path d="M 206.1 109.24 l 4 -2 l -1 4 Z" fill="#fef2f2"/>
      </g>

      <g opacity="0.9">
        <ellipse cx="220.64" cy="98.07" rx="12" ry="3.8" fill="rgba(0,0,0,0.26)"/>
        <path d="M 207.64 89.07 L 218.64 80.07 L 234.64 87.07 L 230.64 97.07 L 212.64 97.07 Z" fill="#fb7185"/>
        <circle cx="226.64" cy="86.07" r="2" fill="white"/>
        <path d="M 226.64 93.07 l 4 -2 l -1 4 Z" fill="#fef2f2"/>
      </g>

      <g opacity="0.9">
        <ellipse cx="242.43" cy="85.52" rx="12" ry="3.8" fill="rgba(0,0,0,0.26)"/>
        <path d="M 229.43 76.52 L 240.43 67.52 L 256.43 74.52 L 252.43 84.52 L 234.43 84.52 Z" fill="#fb7185"/>
        <circle cx="248.43" cy="73.52" r="2" fill="white"/>
        <path d="M 248.43 80.52 l 4 -2 l -1 4 Z" fill="#fef2f2"/>
      </g>

    <g transform="translate(40 144) rotate(102.86)"><path d="M 0 -12 C 9 -9 13 -3 7 0 C 13 3 9 9 0 12 C -9 9 -13 3 -7 0 C -13 -3 -9 -9 0 -12 Z" fill="#fbbf24"/></g>

    <g fill="rgba(251,146,60,0.82)"><circle cx="42" cy="128" r="2.2"/><circle cx="226" cy="118" r="1.8"/><circle cx="275" cy="132" r="2.6"/></g>
    <path d="M 18 24 C 54 6 86 10 118 25" stroke="rgba(255,255,255,0.16)" stroke-width="2" fill="none"/>
    <rect x="10" y="10" width="300" height="160" rx="12" fill="none" stroke="rgba(255,255,255,0.1)" stroke-width="1"/>
  </g><g transform="translate(960 0)">
    <rect x="0" y="0" width="320" height="180" rx="18" fill="#07101c"/>
    <rect x="5" y="5" width="310" height="170" rx="15" fill="#15233a" stroke="rgba(255,255,255,0.16)" stroke-width="1.4"/>
    <rect x="5" y="5" width="310" height="170" rx="15" fill="rgba(255,255,255,0.06)"/>
    <rect x="5" y="104.4" width="310" height="70.6" rx="15" fill="rgba(0,0,0,0.28)"/>
    <circle cx="182" cy="100" r="92" fill="#bae6fd" opacity="0.13"/>

    <ellipse cx="160" cy="122.4" rx="118" ry="46" fill="rgba(34,197,94,0.2)" stroke="#bae6fd" stroke-width="1.3" opacity="0.82"/>
    <ellipse cx="204" cy="120.6" rx="44" ry="24" fill="none" stroke="#e0f2fe" stroke-width="1.2" opacity="0.48"/>
    <circle cx="152.73" cy="120.66" r="2.1" fill="#e0f2fe" opacity="0.86"/><circle cx="137.41" cy="87.26" r="2.45" fill="#e0f2fe" opacity="0.86"/><circle cx="217.05" cy="135.35" r="2.8" fill="#e0f2fe" opacity="0.86"/><circle cx="92.67" cy="77.64" r="2.1" fill="#e0f2fe" opacity="0.86"/><circle cx="172.47" cy="118.21" r="2.45" fill="#e0f2fe" opacity="0.86"/>

      <g opacity="0.96">
        <ellipse cx="159.65" cy="104.02" rx="10" ry="3.4" fill="rgba(0,0,0,0.22)"/>
        <path d="M 151.65 96.02 Q 142.79 91.02 151.79 98.02 Q 143.79 103.02 151.65 96.02 Z" fill="#bae6fd" opacity="0.78"/>
        <ellipse cx="159.65" cy="96.02" rx="12" ry="8" fill="#bae6fd"/>
        <ellipse cx="163.65" cy="93.02" rx="2.3" ry="2" fill="white"/>
        <circle cx="164.35" cy="93.02" r="0.9" fill="#0f172a"/>
      </g>

      <g opacity="0.96">
        <ellipse cx="98.68" cy="93.33" rx="10" ry="3.4" fill="rgba(0,0,0,0.22)"/>
        <path d="M 90.68 85.33 Q 83.73 80.33 92.73 87.33 Q 84.73 92.33 90.68 85.33 Z" fill="#bae6fd" opacity="0.78"/>
        <ellipse cx="98.68" cy="85.33" rx="12" ry="8" fill="#bae6fd"/>
        <ellipse cx="102.68" cy="82.33" rx="2.3" ry="2" fill="white"/>
        <circle cx="103.38" cy="82.33" r="0.9" fill="#0f172a"/>
      </g>

      <g opacity="0.96">
        <ellipse cx="114.91" cy="116.63" rx="10" ry="3.4" fill="rgba(0,0,0,0.22)"/>
        <path d="M 106.91 108.63 Q 100.91 103.63 109.91 110.63 Q 101.91 115.63 106.91 108.63 Z" fill="#bae6fd" opacity="0.78"/>
        <ellipse cx="114.91" cy="108.63" rx="12" ry="8" fill="#bae6fd"/>
        <ellipse cx="118.91" cy="105.63" rx="2.3" ry="2" fill="white"/>
        <circle cx="119.61" cy="105.63" r="0.9" fill="#0f172a"/>
      </g>

      <g opacity="0.96">
        <ellipse cx="184.64" cy="119.94" rx="10" ry="3.4" fill="rgba(0,0,0,0.22)"/>
        <path d="M 176.64 111.94 Q 169.76 106.94 178.76 113.94 Q 170.76 118.94 176.64 111.94 Z" fill="#bae6fd" opacity="0.78"/>
        <ellipse cx="184.64" cy="111.94" rx="12" ry="8" fill="#bae6fd"/>
        <ellipse cx="188.64" cy="108.94" rx="2.3" ry="2" fill="white"/>
        <circle cx="189.34" cy="108.94" r="0.9" fill="#0f172a"/>
      </g>

      <g opacity="0.96">
        <ellipse cx="160.2" cy="95.59" rx="10" ry="3.4" fill="rgba(0,0,0,0.22)"/>
        <path d="M 152.2 87.59 Q 143.41 82.59 152.41 89.59 Q 144.41 94.59 152.2 87.59 Z" fill="#bae6fd" opacity="0.78"/>
        <ellipse cx="160.2" cy="87.59" rx="12" ry="8" fill="#bae6fd"/>
        <ellipse cx="164.2" cy="84.59" rx="2.3" ry="2" fill="white"/>
        <circle cx="164.9" cy="84.59" r="0.9" fill="#0f172a"/>
      </g>


      <g opacity="0.9">
        <ellipse cx="202.26" cy="113.26" rx="12" ry="3.8" fill="rgba(0,0,0,0.26)"/>
        <path d="M 189.26 104.26 L 200.26 95.26 L 216.26 102.26 L 212.26 112.26 L 194.26 112.26 Z" fill="#fb7185"/>
        <circle cx="208.26" cy="101.26" r="2" fill="white"/>
        <path d="M 208.26 108.26 l 4 -2 l -1 4 Z" fill="#fef2f2"/>
      </g>

    <ellipse cx="40" cy="144" rx="13" ry="7" fill="#e0f2fe" opacity="0.88"/><circle cx="40" cy="142" r="4" fill="rgba(255,255,255,0.7)"/>
    <g fill="rgba(255,255,255,0.72)"><circle cx="34" cy="32" r="2"/><circle cx="120" cy="24" r="1.7"/><circle cx="204" cy="42" r="2.3"/><circle cx="256" cy="26" r="1.8"/></g>

    <path d="M 18 24 C 54 6 86 10 118 25" stroke="rgba(255,255,255,0.16)" stroke-width="2" fill="none"/>
    <rect x="10" y="10" width="300" height="160" rx="12" fill="none" stroke="rgba(255,255,255,0.1)" stroke-width="1"/>
  </g><g transform="translate(1280 0)">
    <rect x="0" y="0" width="320" height="180" rx="18" fill="#07101c"/>
    <rect x="5" y="5" width="310" height="170" rx="15" fill="#12394b" stroke="rgba(255,255,255,0.16)" stroke-width="1.4"/>
    <rect x="5" y="5" width="310" height="170" rx="15" fill="rgba(255,255,255,0.06)"/>
    <rect x="5" y="104.4" width="310" height="70.6" rx="15" fill="rgba(0,0,0,0.28)"/>
    <circle cx="182" cy="100" r="92" fill="#67e8f9" opacity="0.13"/>
    <path d="M 0 122.4 C 52 104.4 98 140.4 150 118.8 C 205 97.2 248 126 320 108 L 320 180 L 0 180 Z" fill="rgba(56,189,248,0.2)"/>
    <ellipse cx="160" cy="122.4" rx="118" ry="46" fill="rgba(34,197,94,0.2)" stroke="#67e8f9" stroke-width="1.3" opacity="0.82"/>
    <ellipse cx="204" cy="120.6" rx="44" ry="24" fill="none" stroke="#fde68a" stroke-width="1.2" opacity="0.48"/>
    <circle cx="136.4" cy="112.82" r="2.1" fill="#fde68a" opacity="0.86"/><circle cx="163.98" cy="94.89" r="2.45" fill="#fde68a" opacity="0.86"/><circle cx="196.6" cy="131.27" r="2.8" fill="#fde68a" opacity="0.86"/><circle cx="87.09" cy="74.88" r="2.1" fill="#fde68a" opacity="0.86"/><circle cx="186.93" cy="122.64" r="2.45" fill="#fde68a" opacity="0.86"/><circle cx="148.27" cy="88.83" r="2.8" fill="#fde68a" opacity="0.86"/><circle cx="132.04" cy="127.79" r="2.1" fill="#fde68a" opacity="0.86"/>

      <g opacity="0.96">
        <ellipse cx="159.65" cy="93.4" rx="10" ry="3.4" fill="rgba(0,0,0,0.22)"/>
        <path d="M 151.65 85.4 Q 144.52 80.4 153.52 87.4 Q 145.52 92.4 151.65 85.4 Z" fill="#67e8f9" opacity="0.78"/>
        <ellipse cx="159.65" cy="85.4" rx="12" ry="8" fill="#67e8f9"/>
        <ellipse cx="163.65" cy="82.4" rx="2.3" ry="2" fill="white"/>
        <circle cx="164.35" cy="82.4" r="0.9" fill="#0f172a"/>
      </g>

      <g opacity="0.96">
        <ellipse cx="98.68" cy="103.84" rx="10" ry="3.4" fill="rgba(0,0,0,0.22)"/>
        <path d="M 90.68 95.84 Q 84.66 90.84 93.66 97.84 Q 85.66 102.84 90.68 95.84 Z" fill="#67e8f9" opacity="0.78"/>
        <ellipse cx="98.68" cy="95.84" rx="12" ry="8" fill="#67e8f9"/>
        <ellipse cx="102.68" cy="92.84" rx="2.3" ry="2" fill="white"/>
        <circle cx="103.38" cy="92.84" r="0.9" fill="#0f172a"/>
      </g>

      <g opacity="0.96">
        <ellipse cx="114.91" cy="123.91" rx="10" ry="3.4" fill="rgba(0,0,0,0.22)"/>
        <path d="M 106.91 115.91 Q 100.19 110.91 109.19 117.91 Q 101.19 122.91 106.91 115.91 Z" fill="#67e8f9" opacity="0.78"/>
        <ellipse cx="114.91" cy="115.91" rx="12" ry="8" fill="#67e8f9"/>
        <ellipse cx="118.91" cy="112.91" rx="2.3" ry="2" fill="white"/>
        <circle cx="119.61" cy="112.91" r="0.9" fill="#0f172a"/>
      </g>

      <g opacity="0.96">
        <ellipse cx="184.64" cy="107.11" rx="10" ry="3.4" fill="rgba(0,0,0,0.22)"/>
        <path d="M 176.64 99.11 Q 168.04 94.11 177.04 101.11 Q 169.04 106.11 176.64 99.11 Z" fill="#67e8f9" opacity="0.78"/>
        <ellipse cx="184.64" cy="99.11" rx="12" ry="8" fill="#67e8f9"/>
        <ellipse cx="188.64" cy="96.11" rx="2.3" ry="2" fill="white"/>
        <circle cx="189.34" cy="96.11" r="0.9" fill="#0f172a"/>
      </g>


      <g opacity="0.9">
        <ellipse cx="205.74" cy="116.82" rx="12" ry="3.8" fill="rgba(0,0,0,0.26)"/>
        <path d="M 192.74 107.82 L 203.74 98.82 L 219.74 105.82 L 215.74 115.82 L 197.74 115.82 Z" fill="#fb7185"/>
        <circle cx="211.74" cy="104.82" r="2" fill="white"/>
        <path d="M 211.74 111.82 l 4 -2 l -1 4 Z" fill="#fef2f2"/>
      </g>

    <ellipse cx="40" cy="144" rx="13" ry="7" fill="#fde68a" opacity="0.88"/><circle cx="40" cy="142" r="4" fill="rgba(255,255,255,0.7)"/><ellipse cx="76" cy="144" rx="13" ry="7" fill="#fde68a" opacity="0.88"/><circle cx="76" cy="142" r="4" fill="rgba(255,255,255,0.7)"/>


    <path d="M 18 24 C 54 6 86 10 118 25" stroke="rgba(255,255,255,0.16)" stroke-width="2" fill="none"/>
    <rect x="10" y="10" width="300" height="160" rx="12" fill="none" stroke="rgba(255,255,255,0.1)" stroke-width="1"/>
  </g><g transform="translate(1600 0)">
    <rect x="0" y="0" width="320" height="180" rx="18" fill="#07101c"/>
    <rect x="5" y="5" width="310" height="170" rx="15" fill="#24123f" stroke="rgba(255,255,255,0.16)" stroke-width="1.4"/>
    <rect x="5" y="5" width="310" height="170" rx="15" fill="rgba(255,255,255,0.06)"/>
    <rect x="5" y="104.4" width="310" height="70.6" rx="15" fill="rgba(0,0,0,0.28)"/>
    <circle cx="182" cy="100" r="92" fill="#c084fc" opacity="0.13"/>
    <path d="M 0 122.4 C 52 104.4 98 140.4 150 118.8 C 205 97.2 248 126 320 108 L 320 180 L 0 180 Z" fill="rgba(56,189,248,0.2)"/>
    <ellipse cx="160" cy="122.4" rx="118" ry="46" fill="rgba(34,197,94,0.2)" stroke="#c084fc" stroke-width="1.3" opacity="0.82"/>
    <ellipse cx="204" cy="120.6" rx="44" ry="24" fill="none" stroke="#5eead4" stroke-width="1.2" opacity="0.48"/>
    <circle cx="128.32" cy="102.7" r="2.1" fill="#5eead4" opacity="0.86"/><circle cx="189.16" cy="108.71" r="2.45" fill="#5eead4" opacity="0.86"/><circle cx="163.36" cy="116.19" r="2.8" fill="#5eead4" opacity="0.86"/><circle cx="106.99" cy="87.78" r="2.1" fill="#5eead4" opacity="0.86"/><circle cx="191.99" cy="120.15" r="2.45" fill="#5eead4" opacity="0.86"/><circle cx="125.2" cy="87.58" r="2.8" fill="#5eead4" opacity="0.86"/><circle cx="166.9" cy="135.53" r="2.1" fill="#5eead4" opacity="0.86"/><circle cx="203.44" cy="76.7" r="2.45" fill="#5eead4" opacity="0.86"/><circle cx="128.64" cy="118.88" r="2.8" fill="#5eead4" opacity="0.86"/><circle cx="199.41" cy="97.91" r="2.1" fill="#5eead4" opacity="0.86"/>

      <g opacity="0.96">
        <ellipse cx="159.65" cy="93.78" rx="10" ry="3.4" fill="rgba(0,0,0,0.22)"/>
        <path d="M 151.65 85.78 Q 145.6 80.78 154.6 87.78 Q 146.6 92.78 151.65 85.78 Z" fill="#c084fc" opacity="0.78"/>
        <ellipse cx="159.65" cy="85.78" rx="12" ry="8" fill="#c084fc"/>
        <ellipse cx="163.65" cy="82.78" rx="2.3" ry="2" fill="white"/>
        <circle cx="164.35" cy="82.78" r="0.9" fill="#0f172a"/>
      </g>

      <g opacity="0.96">
        <ellipse cx="98.68" cy="117.49" rx="10" ry="3.4" fill="rgba(0,0,0,0.22)"/>
        <path d="M 90.68 109.49 Q 84.11 104.49 93.11 111.49 Q 85.11 116.49 90.68 109.49 Z" fill="#c084fc" opacity="0.78"/>
        <ellipse cx="98.68" cy="109.49" rx="12" ry="8" fill="#c084fc"/>
        <ellipse cx="102.68" cy="106.49" rx="2.3" ry="2" fill="white"/>
        <circle cx="103.38" cy="106.49" r="0.9" fill="#0f172a"/>
      </g>

      <g opacity="0.96">
        <ellipse cx="114.91" cy="119.22" rx="10" ry="3.4" fill="rgba(0,0,0,0.22)"/>
        <path d="M 106.91 111.22 Q 98.51 106.22 107.51 113.22 Q 99.51 118.22 106.91 111.22 Z" fill="#c084fc" opacity="0.78"/>
        <ellipse cx="114.91" cy="111.22" rx="12" ry="8" fill="#c084fc"/>
        <ellipse cx="118.91" cy="108.22" rx="2.3" ry="2" fill="white"/>
        <circle cx="119.61" cy="108.22" r="0.9" fill="#0f172a"/>
      </g>

      <g opacity="0.96">
        <ellipse cx="184.64" cy="94.96" rx="10" ry="3.4" fill="rgba(0,0,0,0.22)"/>
        <path d="M 176.64 86.96 Q 166.77 81.96 175.77 88.96 Q 167.77 93.96 176.64 86.96 Z" fill="#c084fc" opacity="0.78"/>
        <ellipse cx="184.64" cy="86.96" rx="12" ry="8" fill="#c084fc"/>
        <ellipse cx="188.64" cy="83.96" rx="2.3" ry="2" fill="white"/>
        <circle cx="189.34" cy="83.96" r="0.9" fill="#0f172a"/>
      </g>

      <g opacity="0.96">
        <ellipse cx="160.2" cy="100.92" rx="10" ry="3.4" fill="rgba(0,0,0,0.22)"/>
        <path d="M 152.2 92.92 Q 142.59 87.92 151.59 94.92 Q 143.59 99.92 152.2 92.92 Z" fill="#c084fc" opacity="0.78"/>
        <ellipse cx="160.2" cy="92.92" rx="12" ry="8" fill="#c084fc"/>
        <ellipse cx="164.2" cy="89.92" rx="2.3" ry="2" fill="white"/>
        <circle cx="164.9" cy="89.92" r="0.9" fill="#0f172a"/>
      </g>

      <g opacity="0.96">
        <ellipse cx="112.12" cy="123.29" rx="10" ry="3.4" fill="rgba(0,0,0,0.22)"/>
        <path d="M 104.12 115.29 Q 96.25 110.29 105.25 117.29 Q 97.25 122.29 104.12 115.29 Z" fill="#c084fc" opacity="0.78"/>
        <ellipse cx="112.12" cy="115.29" rx="12" ry="8" fill="#c084fc"/>
        <ellipse cx="116.12" cy="112.29" rx="2.3" ry="2" fill="white"/>
        <circle cx="116.82" cy="112.29" r="0.9" fill="#0f172a"/>
      </g>


      <g opacity="0.9">
        <ellipse cx="207.9" cy="120.6" rx="12" ry="3.8" fill="rgba(0,0,0,0.26)"/>
        <path d="M 194.9 111.6 L 205.9 102.6 L 221.9 109.6 L 217.9 119.6 L 199.9 119.6 Z" fill="#fb7185"/>
        <circle cx="213.9" cy="108.6" r="2" fill="white"/>
        <path d="M 213.9 115.6 l 4 -2 l -1 4 Z" fill="#fef2f2"/>
      </g>

    <path d="M 32 130 C 52 137 28 151 48 158 M 48 130 C 28 137 52 151 32 158" stroke="#5eead4" stroke-width="3" fill="none" stroke-linecap="round"/>


    <path d="M 18 24 C 54 6 86 10 118 25" stroke="rgba(255,255,255,0.16)" stroke-width="2" fill="none"/>
    <rect x="10" y="10" width="300" height="160" rx="12" fill="none" stroke="rgba(255,255,255,0.1)" stroke-width="1"/>
  </g><g transform="translate(1920 0)">
    <rect x="0" y="0" width="320" height="180" rx="18" fill="#07101c"/>
    <rect x="5" y="5" width="310" height="170" rx="15" fill="#372416" stroke="rgba(255,255,255,0.16)" stroke-width="1.4"/>
    <rect x="5" y="5" width="310" height="170" rx="15" fill="rgba(255,255,255,0.06)"/>
    <rect x="5" y="104.4" width="310" height="70.6" rx="15" fill="rgba(0,0,0,0.28)"/>
    <circle cx="182" cy="100" r="92" fill="#fbbf24" opacity="0.13"/>

    <ellipse cx="160" cy="122.4" rx="118" ry="46" fill="rgba(34,197,94,0.2)" stroke="#fbbf24" stroke-width="1.3" opacity="0.82"/>
    <ellipse cx="204" cy="120.6" rx="44" ry="24" fill="none" stroke="#38bdf8" stroke-width="1.2" opacity="0.48"/>
    <circle cx="131.3" cy="95.08" r="2.1" fill="#38bdf8" opacity="0.86"/><circle cx="204.15" cy="122.2" r="2.45" fill="#38bdf8" opacity="0.86"/><circle cx="128.95" cy="97.23" r="2.8" fill="#38bdf8" opacity="0.86"/><circle cx="145.4" cy="110.25" r="2.1" fill="#38bdf8" opacity="0.86"/><circle cx="185.86" cy="111.91" r="2.45" fill="#38bdf8" opacity="0.86"/><circle cx="114.29" cy="95.99" r="2.8" fill="#38bdf8" opacity="0.86"/><circle cx="199.35" cy="130.26" r="2.1" fill="#38bdf8" opacity="0.86"/><circle cx="162.02" cy="75.46" r="2.45" fill="#38bdf8" opacity="0.86"/>

      <g opacity="0.96">
        <ellipse cx="159.65" cy="104.86" rx="10" ry="3.4" fill="rgba(0,0,0,0.22)"/>
        <path d="M 151.65 96.86 Q 145.22 91.86 154.22 98.86 Q 146.22 103.86 151.65 96.86 Z" fill="#fbbf24" opacity="0.78"/>
        <ellipse cx="159.65" cy="96.86" rx="12" ry="8" fill="#fbbf24"/>
        <ellipse cx="163.65" cy="93.86" rx="2.3" ry="2" fill="white"/>
        <circle cx="164.35" cy="93.86" r="0.9" fill="#0f172a"/>
      </g>

      <g opacity="0.96">
        <ellipse cx="98.68" cy="123.99" rx="10" ry="3.4" fill="rgba(0,0,0,0.22)"/>
        <path d="M 90.68 115.99 Q 82.47 110.99 91.47 117.99 Q 83.47 122.99 90.68 115.99 Z" fill="#fbbf24" opacity="0.78"/>
        <ellipse cx="98.68" cy="115.99" rx="12" ry="8" fill="#fbbf24"/>
        <ellipse cx="102.68" cy="112.99" rx="2.3" ry="2" fill="white"/>
        <circle cx="103.38" cy="112.99" r="0.9" fill="#0f172a"/>
      </g>

      <g opacity="0.96">
        <ellipse cx="114.91" cy="106.07" rx="10" ry="3.4" fill="rgba(0,0,0,0.22)"/>
        <path d="M 106.91 98.07 Q 97.13 93.07 106.13 100.07 Q 98.13 105.07 106.91 98.07 Z" fill="#fbbf24" opacity="0.78"/>
        <ellipse cx="114.91" cy="98.07" rx="12" ry="8" fill="#fbbf24"/>
        <ellipse cx="118.91" cy="95.07" rx="2.3" ry="2" fill="white"/>
        <circle cx="119.61" cy="95.07" r="0.9" fill="#0f172a"/>
      </g>

      <g opacity="0.96">
        <ellipse cx="184.64" cy="92.62" rx="10" ry="3.4" fill="rgba(0,0,0,0.22)"/>
        <path d="M 176.64 84.62 Q 166.92 79.62 175.92 86.62 Q 167.92 91.62 176.64 84.62 Z" fill="#fbbf24" opacity="0.78"/>
        <ellipse cx="184.64" cy="84.62" rx="12" ry="8" fill="#fbbf24"/>
        <ellipse cx="188.64" cy="81.62" rx="2.3" ry="2" fill="white"/>
        <circle cx="189.34" cy="81.62" r="0.9" fill="#0f172a"/>
      </g>

      <g opacity="0.96">
        <ellipse cx="160.2" cy="114.8" rx="10" ry="3.4" fill="rgba(0,0,0,0.22)"/>
        <path d="M 152.2 106.8 Q 144.12 101.8 153.12 108.8 Q 145.12 113.8 152.2 106.8 Z" fill="#fbbf24" opacity="0.78"/>
        <ellipse cx="160.2" cy="106.8" rx="12" ry="8" fill="#fbbf24"/>
        <ellipse cx="164.2" cy="103.8" rx="2.3" ry="2" fill="white"/>
        <circle cx="164.9" cy="103.8" r="0.9" fill="#0f172a"/>
      </g>


      <g opacity="0.9">
        <ellipse cx="207.13" cy="120.01" rx="12" ry="3.8" fill="rgba(0,0,0,0.26)"/>
        <path d="M 194.13 111.01 L 205.13 102.01 L 221.13 109.01 L 217.13 119.01 L 199.13 119.01 Z" fill="#fb7185"/>
        <circle cx="213.13" cy="108.01" r="2" fill="white"/>
        <path d="M 213.13 115.01 l 4 -2 l -1 4 Z" fill="#fef2f2"/>
      </g>

    <ellipse cx="40" cy="144" rx="13" ry="7" fill="#38bdf8" opacity="0.88"/><circle cx="40" cy="142" r="4" fill="rgba(255,255,255,0.7)"/><g transform="translate(76 144) rotate(308.57)"><path d="M 0 -12 C 9 -9 13 -3 7 0 C 13 3 9 9 0 12 C -9 9 -13 3 -7 0 C -13 -3 -9 -9 0 -12 Z" fill="#38bdf8"/></g><path d="M 105 156 L 119 156 L 117 132 L 112 124 L 107 132 Z" fill="#38bdf8"/>


    <path d="M 18 24 C 54 6 86 10 118 25" stroke="rgba(255,255,255,0.16)" stroke-width="2" fill="none"/>
    <rect x="10" y="10" width="300" height="160" rx="12" fill="none" stroke="rgba(255,255,255,0.1)" stroke-width="1"/>
  </g></svg>
