<svg xmlns="http://www.w3.org/2000/svg" width="1024" height="64" viewBox="0 0 1024 64" fill="none"><defs><filter id="creature_burrowing-soft-shadow" x="-40%" y="-40%" width="180%" height="180%"><feGaussianBlur in="SourceAlpha" stdDeviation="1.2" /><feOffset dx="0.5" dy="1" result="offsetblur" /><feComponentTransfer><feFuncA type="linear" slope="0.26" /></feComponentTransfer><feMerge><feMergeNode /><feMergeNode in="SourceGraphic" /></feMerge></filter></defs><g transform="translate(0 0)">

    <rect x="0" y="0" width="64" height="64" fill="none"/>
    <ellipse cx="32" cy="49.92" rx="19" ry="4.6" fill="rgba(0,0,0,0.18)"/>

    <ellipse cx="32" cy="37.84" rx="18.5" ry="13.5" fill="currentColor" filter="url(#creature_burrowing-soft-shadow)"/>
    <ellipse cx="31" cy="25.84" rx="11" ry="8.6" fill="currentColor"/>
    <path d="M 24 27.84 Q 17 29.84 14 34.84 Q 21 32.84 27 28.84 Z" fill="currentColor" opacity="0.9"/>
    <path d="M 22 18.84 Q 16 10.84 13 20.84 Q 17 22.84 22 18.84 Z" fill="currentColor" opacity="0.82"/>
    <path d="M 40 18.84 Q 47 11.84 50 20.84 Q 46 22.84 40 18.84 Z" fill="currentColor" opacity="0.82"/>
    <ellipse cx="35.7" cy="23.64" rx="2.8" ry="2" fill="white"/>
    <ellipse cx="36.2" cy="23.84" rx="1.2" ry="0.92" fill="#2d1810"/>
    <path d="M 16 39.84 Q 4 43.84 -1 52.84" stroke="currentColor" stroke-width="4.2" stroke-linecap="round" fill="none"/>
    <path d="M 19 43.84 Q 7 49.84 4 58.84" stroke="currentColor" stroke-width="3.4" stroke-linecap="round" fill="none" opacity="0.9"/>
    <path d="M 48 39.84 Q 60 43.84 65 52.84" stroke="currentColor" stroke-width="4.2" stroke-linecap="round" fill="none"/>
    <path d="M 45 43.84 Q 57 49.84 60 58.84" stroke="currentColor" stroke-width="3.4" stroke-linecap="round" fill="none" opacity="0.9"/>
    <ellipse cx="37" cy="33.84" rx="6.5" ry="8.8" fill="rgba(255,255,255,0.13)"/>
    <path d="M 48 39.84 Q 56 36.84 60 40.84 Q 56 42.84 50 41.84 Z" fill="currentColor" opacity="0.75"/>
    <circle cx="8" cy="53.84" r="2.1" fill="rgba(143,91,48,0.46)"/>
    <circle cx="57" cy="53.84" r="1.7" fill="rgba(143,91,48,0.42)"/>
  </g><g transform="translate(64 0)">

    <rect x="0" y="0" width="64" height="64" fill="none"/>
    <ellipse cx="32" cy="49.92" rx="19" ry="4.6" fill="rgba(0,0,0,0.18)"/>

    <ellipse cx="32" cy="38.55" rx="18.5" ry="13.5" fill="currentColor" filter="url(#creature_burrowing-soft-shadow)"/>
    <ellipse cx="31" cy="26.55" rx="11" ry="8.6" fill="currentColor"/>
    <path d="M 24 28.55 Q 17 30.55 14 35.55 Q 21 33.55 27 29.55 Z" fill="currentColor" opacity="0.9"/>
    <path d="M 22 19.55 Q 16 11.55 13 21.55 Q 17 23.55 22 19.55 Z" fill="currentColor" opacity="0.82"/>
    <path d="M 40 19.55 Q 47 12.55 50 21.55 Q 46 23.55 40 19.55 Z" fill="currentColor" opacity="0.82"/>
    <ellipse cx="35.7" cy="24.35" rx="2.8" ry="2" fill="white"/>
    <ellipse cx="36.2" cy="24.55" rx="1.2" ry="0.92" fill="#2d1810"/>
    <path d="M 16 40.55 Q -0.95 46.68 -5.95 53.55" stroke="currentColor" stroke-width="4.2" stroke-linecap="round" fill="none"/>
    <path d="M 19 44.55 Q 2.05 52.68 -0.95 59.55" stroke="currentColor" stroke-width="3.4" stroke-linecap="round" fill="none" opacity="0.9"/>
    <path d="M 48 40.55 Q 64.95 46.68 69.95 53.55" stroke="currentColor" stroke-width="4.2" stroke-linecap="round" fill="none"/>
    <path d="M 45 44.55 Q 61.95 52.68 64.95 59.55" stroke="currentColor" stroke-width="3.4" stroke-linecap="round" fill="none" opacity="0.9"/>
    <ellipse cx="37" cy="34.55" rx="6.5" ry="8.8" fill="rgba(255,255,255,0.13)"/>
    <path d="M 48 40.55 Q 56 37.55 60 41.55 Q 56 43.55 50 42.55 Z" fill="currentColor" opacity="0.75"/>
    <circle cx="5.17" cy="54.55" r="2.1" fill="rgba(143,91,48,0.46)"/>
    <circle cx="59.12" cy="54.55" r="1.7" fill="rgba(143,91,48,0.42)"/>
  </g><g transform="translate(128 0)">

    <rect x="0" y="0" width="64" height="64" fill="none"/>
    <ellipse cx="32" cy="49.92" rx="19" ry="4.6" fill="rgba(0,0,0,0.18)"/>

    <ellipse cx="32" cy="38.93" rx="18.5" ry="13.5" fill="currentColor" filter="url(#creature_burrowing-soft-shadow)"/>
    <ellipse cx="31" cy="26.93" rx="11" ry="8.6" fill="currentColor"/>
    <path d="M 24 28.93 Q 17 30.93 14 35.93 Q 21 33.93 27 29.93 Z" fill="currentColor" opacity="0.9"/>
    <path d="M 22 19.93 Q 16 11.93 13 21.93 Q 17 23.93 22 19.93 Z" fill="currentColor" opacity="0.82"/>
    <path d="M 40 19.93 Q 47 12.93 50 21.93 Q 46 23.93 40 19.93 Z" fill="currentColor" opacity="0.82"/>
    <ellipse cx="35.7" cy="24.73" rx="2.8" ry="2" fill="white"/>
    <ellipse cx="36.2" cy="24.93" rx="1.2" ry="0.92" fill="#2d1810"/>
    <path d="M 16 40.93 Q -3 47.93 -8 53.93" stroke="currentColor" stroke-width="4.2" stroke-linecap="round" fill="none"/>
    <path d="M 19 44.93 Q 0 53.93 -3 59.93" stroke="currentColor" stroke-width="3.4" stroke-linecap="round" fill="none" opacity="0.9"/>
    <path d="M 48 40.93 Q 67 47.93 72 53.93" stroke="currentColor" stroke-width="4.2" stroke-linecap="round" fill="none"/>
    <path d="M 45 44.93 Q 64 53.93 67 59.93" stroke="currentColor" stroke-width="3.4" stroke-linecap="round" fill="none" opacity="0.9"/>
    <ellipse cx="37" cy="34.93" rx="6.5" ry="8.8" fill="rgba(255,255,255,0.13)"/>
    <path d="M 48 40.93 Q 56 37.93 60 41.93 Q 56 43.93 50 42.93 Z" fill="currentColor" opacity="0.75"/>
    <circle cx="4" cy="54.93" r="2.1" fill="rgba(143,91,48,0.46)"/>
    <circle cx="60" cy="54.93" r="1.7" fill="rgba(143,91,48,0.42)"/>
  </g><g transform="translate(192 0)">

    <rect x="0" y="0" width="64" height="64" fill="none"/>
    <ellipse cx="32" cy="49.92" rx="19" ry="4.6" fill="rgba(0,0,0,0.18)"/>

    <ellipse cx="32" cy="38.78" rx="18.5" ry="13.5" fill="currentColor" filter="url(#creature_burrowing-soft-shadow)"/>
    <ellipse cx="31" cy="26.78" rx="11" ry="8.6" fill="currentColor"/>
    <path d="M 24 28.78 Q 17 30.78 14 35.78 Q 21 33.78 27 29.78 Z" fill="currentColor" opacity="0.9"/>
    <path d="M 22 19.78 Q 16 11.78 13 21.78 Q 17 23.78 22 19.78 Z" fill="currentColor" opacity="0.82"/>
    <path d="M 40 19.78 Q 47 12.78 50 21.78 Q 46 23.78 40 19.78 Z" fill="currentColor" opacity="0.82"/>
    <ellipse cx="35.7" cy="24.58" rx="2.8" ry="2" fill="white"/>
    <ellipse cx="36.2" cy="24.78" rx="1.2" ry="0.92" fill="#2d1810"/>
    <path d="M 16 40.78 Q -0.95 46.9 -5.95 53.78" stroke="currentColor" stroke-width="4.2" stroke-linecap="round" fill="none"/>
    <path d="M 19 44.78 Q 2.05 52.9 -0.95 59.78" stroke="currentColor" stroke-width="3.4" stroke-linecap="round" fill="none" opacity="0.9"/>
    <path d="M 48 40.78 Q 64.95 46.9 69.95 53.78" stroke="currentColor" stroke-width="4.2" stroke-linecap="round" fill="none"/>
    <path d="M 45 44.78 Q 61.95 52.9 64.95 59.78" stroke="currentColor" stroke-width="3.4" stroke-linecap="round" fill="none" opacity="0.9"/>
    <ellipse cx="37" cy="34.78" rx="6.5" ry="8.8" fill="rgba(255,255,255,0.13)"/>
    <path d="M 48 40.78 Q 56 37.78 60 41.78 Q 56 43.78 50 42.78 Z" fill="currentColor" opacity="0.75"/>
    <circle cx="5.17" cy="54.78" r="2.1" fill="rgba(143,91,48,0.46)"/>
    <circle cx="59.12" cy="54.78" r="1.7" fill="rgba(143,91,48,0.42)"/>
  </g><g transform="translate(256 0)">

    <rect x="0" y="0" width="64" height="64" fill="none"/>
    <ellipse cx="32" cy="49.92" rx="19" ry="4.6" fill="rgba(0,0,0,0.18)"/>

    <ellipse cx="32" cy="38.18" rx="18.5" ry="13.5" fill="currentColor" filter="url(#creature_burrowing-soft-shadow)"/>
    <ellipse cx="31" cy="26.18" rx="11" ry="8.6" fill="currentColor"/>
    <path d="M 24 28.18 Q 17 30.18 14 35.18 Q 21 33.18 27 29.18 Z" fill="currentColor" opacity="0.9"/>
    <path d="M 22 19.18 Q 16 11.18 13 21.18 Q 17 23.18 22 19.18 Z" fill="currentColor" opacity="0.82"/>
    <path d="M 40 19.18 Q 47 12.18 50 21.18 Q 46 23.18 40 19.18 Z" fill="currentColor" opacity="0.82"/>
    <ellipse cx="35.7" cy="23.98" rx="2.8" ry="2" fill="white"/>
    <ellipse cx="36.2" cy="24.18" rx="1.2" ry="0.92" fill="#2d1810"/>
    <path d="M 16 40.18 Q 4 44.18 -1 53.18" stroke="currentColor" stroke-width="4.2" stroke-linecap="round" fill="none"/>
    <path d="M 19 44.18 Q 7 50.18 4 59.18" stroke="currentColor" stroke-width="3.4" stroke-linecap="round" fill="none" opacity="0.9"/>
    <path d="M 48 40.18 Q 60 44.18 65 53.18" stroke="currentColor" stroke-width="4.2" stroke-linecap="round" fill="none"/>
    <path d="M 45 44.18 Q 57 50.18 60 59.18" stroke="currentColor" stroke-width="3.4" stroke-linecap="round" fill="none" opacity="0.9"/>
    <ellipse cx="37" cy="34.18" rx="6.5" ry="8.8" fill="rgba(255,255,255,0.13)"/>
    <path d="M 48 40.18 Q 56 37.18 60 41.18 Q 56 43.18 50 42.18 Z" fill="currentColor" opacity="0.75"/>
    <circle cx="8" cy="54.18" r="2.1" fill="rgba(143,91,48,0.46)"/>
    <circle cx="57" cy="54.18" r="1.7" fill="rgba(143,91,48,0.42)"/>
  </g><g transform="translate(320 0)">

    <rect x="0" y="0" width="64" height="64" fill="none"/>
    <ellipse cx="32" cy="49.92" rx="19" ry="4.6" fill="rgba(0,0,0,0.18)"/>

    <ellipse cx="32" cy="37.42" rx="18.5" ry="13.5" fill="currentColor" filter="url(#creature_burrowing-soft-shadow)"/>
    <ellipse cx="31" cy="25.42" rx="11" ry="8.6" fill="currentColor"/>
    <path d="M 24 27.42 Q 17 29.42 14 34.42 Q 21 32.42 27 28.42 Z" fill="currentColor" opacity="0.9"/>
    <path d="M 22 18.42 Q 16 10.42 13 20.42 Q 17 22.42 22 18.42 Z" fill="currentColor" opacity="0.82"/>
    <path d="M 40 18.42 Q 47 11.42 50 20.42 Q 46 22.42 40 18.42 Z" fill="currentColor" opacity="0.82"/>
    <ellipse cx="35.7" cy="23.22" rx="2.8" ry="2" fill="white"/>
    <ellipse cx="36.2" cy="23.42" rx="1.2" ry="0.92" fill="#2d1810"/>
    <path d="M 16 39.42 Q 4 43.42 -1 52.42" stroke="currentColor" stroke-width="4.2" stroke-linecap="round" fill="none"/>
    <path d="M 19 43.42 Q 7 49.42 4 58.42" stroke="currentColor" stroke-width="3.4" stroke-linecap="round" fill="none" opacity="0.9"/>
    <path d="M 48 39.42 Q 60 43.42 65 52.42" stroke="currentColor" stroke-width="4.2" stroke-linecap="round" fill="none"/>
    <path d="M 45 43.42 Q 57 49.42 60 58.42" stroke="currentColor" stroke-width="3.4" stroke-linecap="round" fill="none" opacity="0.9"/>
    <ellipse cx="37" cy="33.42" rx="6.5" ry="8.8" fill="rgba(255,255,255,0.13)"/>
    <path d="M 48 39.42 Q 56 36.42 60 40.42 Q 56 42.42 50 41.42 Z" fill="currentColor" opacity="0.75"/>
    <circle cx="8" cy="53.42" r="2.1" fill="rgba(143,91,48,0.46)"/>
    <circle cx="57" cy="53.42" r="1.7" fill="rgba(143,91,48,0.42)"/>
  </g><g transform="translate(384 0)">

    <rect x="0" y="0" width="64" height="64" fill="none"/>
    <ellipse cx="32" cy="49.92" rx="19" ry="4.6" fill="rgba(0,0,0,0.18)"/>

    <ellipse cx="32" cy="36.86" rx="18.5" ry="13.5" fill="currentColor" filter="url(#creature_burrowing-soft-shadow)"/>
    <ellipse cx="31" cy="24.86" rx="11" ry="8.6" fill="currentColor"/>
    <path d="M 24 26.86 Q 17 28.86 14 33.86 Q 21 31.86 27 27.86 Z" fill="currentColor" opacity="0.9"/>
    <path d="M 22 17.86 Q 16 9.86 13 19.86 Q 17 21.86 22 17.86 Z" fill="currentColor" opacity="0.82"/>
    <path d="M 40 17.86 Q 47 10.86 50 19.86 Q 46 21.86 40 17.86 Z" fill="currentColor" opacity="0.82"/>
    <ellipse cx="35.7" cy="22.66" rx="2.8" ry="2" fill="white"/>
    <ellipse cx="36.2" cy="22.86" rx="1.2" ry="0.92" fill="#2d1810"/>
    <path d="M 16 38.86 Q 4 42.86 -1 51.86" stroke="currentColor" stroke-width="4.2" stroke-linecap="round" fill="none"/>
    <path d="M 19 42.86 Q 7 48.86 4 57.86" stroke="currentColor" stroke-width="3.4" stroke-linecap="round" fill="none" opacity="0.9"/>
    <path d="M 48 38.86 Q 60 42.86 65 51.86" stroke="currentColor" stroke-width="4.2" stroke-linecap="round" fill="none"/>
    <path d="M 45 42.86 Q 57 48.86 60 57.86" stroke="currentColor" stroke-width="3.4" stroke-linecap="round" fill="none" opacity="0.9"/>
    <ellipse cx="37" cy="32.86" rx="6.5" ry="8.8" fill="rgba(255,255,255,0.13)"/>
    <path d="M 48 38.86 Q 56 35.86 60 39.86 Q 56 41.86 50 40.86 Z" fill="currentColor" opacity="0.75"/>
    <circle cx="8" cy="52.86" r="2.1" fill="rgba(143,91,48,0.46)"/>
    <circle cx="57" cy="52.86" r="1.7" fill="rgba(143,91,48,0.42)"/>
  </g><g transform="translate(448 0)">

    <rect x="0" y="0" width="64" height="64" fill="none"/>
    <ellipse cx="32" cy="49.92" rx="19" ry="4.6" fill="rgba(0,0,0,0.18)"/>

    <ellipse cx="32" cy="36.77" rx="18.5" ry="13.5" fill="currentColor" filter="url(#creature_burrowing-soft-shadow)"/>
    <ellipse cx="31" cy="24.77" rx="11" ry="8.6" fill="currentColor"/>
    <path d="M 24 26.77 Q 17 28.77 14 33.77 Q 21 31.77 27 27.77 Z" fill="currentColor" opacity="0.9"/>
    <path d="M 22 17.77 Q 16 9.77 13 19.77 Q 17 21.77 22 17.77 Z" fill="currentColor" opacity="0.82"/>
    <path d="M 40 17.77 Q 47 10.77 50 19.77 Q 46 21.77 40 17.77 Z" fill="currentColor" opacity="0.82"/>
    <ellipse cx="35.7" cy="22.57" rx="2.8" ry="2" fill="white"/>
    <ellipse cx="36.2" cy="22.77" rx="1.2" ry="0.92" fill="#2d1810"/>
    <path d="M 16 38.77 Q 4 42.77 -1 51.77" stroke="currentColor" stroke-width="4.2" stroke-linecap="round" fill="none"/>
    <path d="M 19 42.77 Q 7 48.77 4 57.77" stroke="currentColor" stroke-width="3.4" stroke-linecap="round" fill="none" opacity="0.9"/>
    <path d="M 48 38.77 Q 60 42.77 65 51.77" stroke="currentColor" stroke-width="4.2" stroke-linecap="round" fill="none"/>
    <path d="M 45 42.77 Q 57 48.77 60 57.77" stroke="currentColor" stroke-width="3.4" stroke-linecap="round" fill="none" opacity="0.9"/>
    <ellipse cx="37" cy="32.77" rx="6.5" ry="8.8" fill="rgba(255,255,255,0.13)"/>
    <path d="M 48 38.77 Q 56 35.77 60 39.77 Q 56 41.77 50 40.77 Z" fill="currentColor" opacity="0.75"/>
    <circle cx="8" cy="52.77" r="2.1" fill="rgba(143,91,48,0.46)"/>
    <circle cx="57" cy="52.77" r="1.7" fill="rgba(143,91,48,0.42)"/>
  </g><g transform="translate(512 0)">

    <rect x="0" y="0" width="64" height="64" fill="none"/>
    <ellipse cx="32" cy="49.92" rx="19" ry="4.6" fill="rgba(0,0,0,0.18)"/>

    <ellipse cx="32" cy="37.19" rx="18.5" ry="13.5" fill="currentColor" filter="url(#creature_burrowing-soft-shadow)"/>
    <ellipse cx="31" cy="25.19" rx="11" ry="8.6" fill="currentColor"/>
    <path d="M 24 27.19 Q 17 29.19 14 34.19 Q 21 32.19 27 28.19 Z" fill="currentColor" opacity="0.9"/>
    <path d="M 22 18.19 Q 16 10.19 13 20.19 Q 17 22.19 22 18.19 Z" fill="currentColor" opacity="0.82"/>
    <path d="M 40 18.19 Q 47 11.19 50 20.19 Q 46 22.19 40 18.19 Z" fill="currentColor" opacity="0.82"/>
    <ellipse cx="35.7" cy="22.99" rx="2.8" ry="2" fill="white"/>
    <ellipse cx="36.2" cy="23.19" rx="1.2" ry="0.92" fill="#2d1810"/>
    <path d="M 16 39.19 Q 4 43.19 -1 52.19" stroke="currentColor" stroke-width="4.2" stroke-linecap="round" fill="none"/>
    <path d="M 19 43.19 Q 7 49.19 4 58.19" stroke="currentColor" stroke-width="3.4" stroke-linecap="round" fill="none" opacity="0.9"/>
    <path d="M 48 39.19 Q 60 43.19 65 52.19" stroke="currentColor" stroke-width="4.2" stroke-linecap="round" fill="none"/>
    <path d="M 45 43.19 Q 57 49.19 60 58.19" stroke="currentColor" stroke-width="3.4" stroke-linecap="round" fill="none" opacity="0.9"/>
    <ellipse cx="37" cy="33.19" rx="6.5" ry="8.8" fill="rgba(255,255,255,0.13)"/>
    <path d="M 48 39.19 Q 56 36.19 60 40.19 Q 56 42.19 50 41.19 Z" fill="currentColor" opacity="0.75"/>
    <circle cx="8" cy="53.19" r="2.1" fill="rgba(143,91,48,0.46)"/>
    <circle cx="57" cy="53.19" r="1.7" fill="rgba(143,91,48,0.42)"/>
  </g><g transform="translate(576 0)">

    <rect x="0" y="0" width="64" height="64" fill="none"/>
    <ellipse cx="32" cy="49.92" rx="19" ry="4.6" fill="rgba(0,0,0,0.18)"/>

    <ellipse cx="32" cy="37.93" rx="18.5" ry="13.5" fill="currentColor" filter="url(#creature_burrowing-soft-shadow)"/>
    <ellipse cx="31" cy="25.93" rx="11" ry="8.6" fill="currentColor"/>
    <path d="M 24 27.93 Q 17 29.93 14 34.93 Q 21 32.93 27 28.93 Z" fill="currentColor" opacity="0.9"/>
    <path d="M 22 18.93 Q 16 10.93 13 20.93 Q 17 22.93 22 18.93 Z" fill="currentColor" opacity="0.82"/>
    <path d="M 40 18.93 Q 47 11.93 50 20.93 Q 46 22.93 40 18.93 Z" fill="currentColor" opacity="0.82"/>
    <ellipse cx="35.7" cy="23.73" rx="2.8" ry="2" fill="white"/>
    <ellipse cx="36.2" cy="23.93" rx="1.2" ry="0.92" fill="#2d1810"/>
    <path d="M 16 39.93 Q -0.95 46.05 -5.95 52.93" stroke="currentColor" stroke-width="4.2" stroke-linecap="round" fill="none"/>
    <path d="M 19 43.93 Q 2.05 52.05 -0.95 58.93" stroke="currentColor" stroke-width="3.4" stroke-linecap="round" fill="none" opacity="0.9"/>
    <path d="M 48 39.93 Q 64.95 46.05 69.95 52.93" stroke="currentColor" stroke-width="4.2" stroke-linecap="round" fill="none"/>
    <path d="M 45 43.93 Q 61.95 52.05 64.95 58.93" stroke="currentColor" stroke-width="3.4" stroke-linecap="round" fill="none" opacity="0.9"/>
    <ellipse cx="37" cy="33.93" rx="6.5" ry="8.8" fill="rgba(255,255,255,0.13)"/>
    <path d="M 48 39.93 Q 56 36.93 60 40.93 Q 56 42.93 50 41.93 Z" fill="currentColor" opacity="0.75"/>
    <circle cx="5.17" cy="53.93" r="2.1" fill="rgba(143,91,48,0.46)"/>
    <circle cx="59.12" cy="53.93" r="1.7" fill="rgba(143,91,48,0.42)"/>
  </g><g transform="translate(640 0)">

    <rect x="0" y="0" width="64" height="64" fill="none"/>
    <ellipse cx="32" cy="49.92" rx="19" ry="4.6" fill="rgba(0,0,0,0.18)"/>

    <ellipse cx="32" cy="38.62" rx="18.5" ry="13.5" fill="currentColor" filter="url(#creature_burrowing-soft-shadow)"/>
    <ellipse cx="31" cy="26.62" rx="11" ry="8.6" fill="currentColor"/>
    <path d="M 24 28.62 Q 17 30.62 14 35.62 Q 21 33.62 27 29.62 Z" fill="currentColor" opacity="0.9"/>
    <path d="M 22 19.62 Q 16 11.62 13 21.62 Q 17 23.62 22 19.62 Z" fill="currentColor" opacity="0.82"/>
    <path d="M 40 19.62 Q 47 12.62 50 21.62 Q 46 23.62 40 19.62 Z" fill="currentColor" opacity="0.82"/>
    <ellipse cx="35.7" cy="24.42" rx="2.8" ry="2" fill="white"/>
    <ellipse cx="36.2" cy="24.62" rx="1.2" ry="0.92" fill="#2d1810"/>
    <path d="M 16 40.62 Q -3 47.62 -8 53.62" stroke="currentColor" stroke-width="4.2" stroke-linecap="round" fill="none"/>
    <path d="M 19 44.62 Q 0 53.62 -3 59.62" stroke="currentColor" stroke-width="3.4" stroke-linecap="round" fill="none" opacity="0.9"/>
    <path d="M 48 40.62 Q 67 47.62 72 53.62" stroke="currentColor" stroke-width="4.2" stroke-linecap="round" fill="none"/>
    <path d="M 45 44.62 Q 64 53.62 67 59.62" stroke="currentColor" stroke-width="3.4" stroke-linecap="round" fill="none" opacity="0.9"/>
    <ellipse cx="37" cy="34.62" rx="6.5" ry="8.8" fill="rgba(255,255,255,0.13)"/>
    <path d="M 48 40.62 Q 56 37.62 60 41.62 Q 56 43.62 50 42.62 Z" fill="currentColor" opacity="0.75"/>
    <circle cx="4" cy="54.62" r="2.1" fill="rgba(143,91,48,0.46)"/>
    <circle cx="60" cy="54.62" r="1.7" fill="rgba(143,91,48,0.42)"/>
  </g><g transform="translate(704 0)">

    <rect x="0" y="0" width="64" height="64" fill="none"/>
    <ellipse cx="32" cy="49.92" rx="19" ry="4.6" fill="rgba(0,0,0,0.18)"/>

    <ellipse cx="32" cy="38.94" rx="18.5" ry="13.5" fill="currentColor" filter="url(#creature_burrowing-soft-shadow)"/>
    <ellipse cx="31" cy="26.94" rx="11" ry="8.6" fill="currentColor"/>
    <path d="M 24 28.94 Q 17 30.94 14 35.94 Q 21 33.94 27 29.94 Z" fill="currentColor" opacity="0.9"/>
    <path d="M 22 19.94 Q 16 11.94 13 21.94 Q 17 23.94 22 19.94 Z" fill="currentColor" opacity="0.82"/>
    <path d="M 40 19.94 Q 47 12.94 50 21.94 Q 46 23.94 40 19.94 Z" fill="currentColor" opacity="0.82"/>
    <ellipse cx="35.7" cy="24.74" rx="2.8" ry="2" fill="white"/>
    <ellipse cx="36.2" cy="24.94" rx="1.2" ry="0.92" fill="#2d1810"/>
    <path d="M 16 40.94 Q -0.95 47.06 -5.95 53.94" stroke="currentColor" stroke-width="4.2" stroke-linecap="round" fill="none"/>
    <path d="M 19 44.94 Q 2.05 53.06 -0.95 59.94" stroke="currentColor" stroke-width="3.4" stroke-linecap="round" fill="none" opacity="0.9"/>
    <path d="M 48 40.94 Q 64.95 47.06 69.95 53.94" stroke="currentColor" stroke-width="4.2" stroke-linecap="round" fill="none"/>
    <path d="M 45 44.94 Q 61.95 53.06 64.95 59.94" stroke="currentColor" stroke-width="3.4" stroke-linecap="round" fill="none" opacity="0.9"/>
    <ellipse cx="37" cy="34.94" rx="6.5" ry="8.8" fill="rgba(255,255,255,0.13)"/>
    <path d="M 48 40.94 Q 56 37.94 60 41.94 Q 56 43.94 50 42.94 Z" fill="currentColor" opacity="0.75"/>
    <circle cx="5.17" cy="54.94" r="2.1" fill="rgba(143,91,48,0.46)"/>
    <circle cx="59.12" cy="54.94" r="1.7" fill="rgba(143,91,48,0.42)"/>
  </g><g transform="translate(768 0)">

    <rect x="0" y="0" width="64" height="64" fill="none"/>
    <ellipse cx="32" cy="49.92" rx="19" ry="4.6" fill="rgba(0,0,0,0.18)"/>

    <ellipse cx="32" cy="38.73" rx="18.5" ry="13.5" fill="currentColor" filter="url(#creature_burrowing-soft-shadow)"/>
    <ellipse cx="31" cy="26.73" rx="11" ry="8.6" fill="currentColor"/>
    <path d="M 24 28.73 Q 17 30.73 14 35.73 Q 21 33.73 27 29.73 Z" fill="currentColor" opacity="0.9"/>
    <path d="M 22 19.73 Q 16 11.73 13 21.73 Q 17 23.73 22 19.73 Z" fill="currentColor" opacity="0.82"/>
    <path d="M 40 19.73 Q 47 12.73 50 21.73 Q 46 23.73 40 19.73 Z" fill="currentColor" opacity="0.82"/>
    <ellipse cx="35.7" cy="24.53" rx="2.8" ry="2" fill="white"/>
    <ellipse cx="36.2" cy="24.73" rx="1.2" ry="0.92" fill="#2d1810"/>
    <path d="M 16 40.73 Q 4 44.73 -1 53.73" stroke="currentColor" stroke-width="4.2" stroke-linecap="round" fill="none"/>
    <path d="M 19 44.73 Q 7 50.73 4 59.73" stroke="currentColor" stroke-width="3.4" stroke-linecap="round" fill="none" opacity="0.9"/>
    <path d="M 48 40.73 Q 60 44.73 65 53.73" stroke="currentColor" stroke-width="4.2" stroke-linecap="round" fill="none"/>
    <path d="M 45 44.73 Q 57 50.73 60 59.73" stroke="currentColor" stroke-width="3.4" stroke-linecap="round" fill="none" opacity="0.9"/>
    <ellipse cx="37" cy="34.73" rx="6.5" ry="8.8" fill="rgba(255,255,255,0.13)"/>
    <path d="M 48 40.73 Q 56 37.73 60 41.73 Q 56 43.73 50 42.73 Z" fill="currentColor" opacity="0.75"/>
    <circle cx="8" cy="54.73" r="2.1" fill="rgba(143,91,48,0.46)"/>
    <circle cx="57" cy="54.73" r="1.7" fill="rgba(143,91,48,0.42)"/>
  </g><g transform="translate(832 0)">

    <rect x="0" y="0" width="64" height="64" fill="none"/>
    <ellipse cx="32" cy="49.92" rx="19" ry="4.6" fill="rgba(0,0,0,0.18)"/>

    <ellipse cx="32" cy="38.1" rx="18.5" ry="13.5" fill="currentColor" filter="url(#creature_burrowing-soft-shadow)"/>
    <ellipse cx="31" cy="26.1" rx="11" ry="8.6" fill="currentColor"/>
    <path d="M 24 28.1 Q 17 30.1 14 35.1 Q 21 33.1 27 29.1 Z" fill="currentColor" opacity="0.9"/>
    <path d="M 22 19.1 Q 16 11.1 13 21.1 Q 17 23.1 22 19.1 Z" fill="currentColor" opacity="0.82"/>
    <path d="M 40 19.1 Q 47 12.1 50 21.1 Q 46 23.1 40 19.1 Z" fill="currentColor" opacity="0.82"/>
    <ellipse cx="35.7" cy="23.9" rx="2.8" ry="2" fill="white"/>
    <ellipse cx="36.2" cy="24.1" rx="1.2" ry="0.92" fill="#2d1810"/>
    <path d="M 16 40.1 Q 4 44.1 -1 53.1" stroke="currentColor" stroke-width="4.2" stroke-linecap="round" fill="none"/>
    <path d="M 19 44.1 Q 7 50.1 4 59.1" stroke="currentColor" stroke-width="3.4" stroke-linecap="round" fill="none" opacity="0.9"/>
    <path d="M 48 40.1 Q 60 44.1 65 53.1" stroke="currentColor" stroke-width="4.2" stroke-linecap="round" fill="none"/>
    <path d="M 45 44.1 Q 57 50.1 60 59.1" stroke="currentColor" stroke-width="3.4" stroke-linecap="round" fill="none" opacity="0.9"/>
    <ellipse cx="37" cy="34.1" rx="6.5" ry="8.8" fill="rgba(255,255,255,0.13)"/>
    <path d="M 48 40.1 Q 56 37.1 60 41.1 Q 56 43.1 50 42.1 Z" fill="currentColor" opacity="0.75"/>
    <circle cx="8" cy="54.1" r="2.1" fill="rgba(143,91,48,0.46)"/>
    <circle cx="57" cy="54.1" r="1.7" fill="rgba(143,91,48,0.42)"/>
  </g><g transform="translate(896 0)">

    <rect x="0" y="0" width="64" height="64" fill="none"/>
    <ellipse cx="32" cy="49.92" rx="19" ry="4.6" fill="rgba(0,0,0,0.18)"/>

    <ellipse cx="32" cy="37.34" rx="18.5" ry="13.5" fill="currentColor" filter="url(#creature_burrowing-soft-shadow)"/>
    <ellipse cx="31" cy="25.34" rx="11" ry="8.6" fill="currentColor"/>
    <path d="M 24 27.34 Q 17 29.34 14 34.34 Q 21 32.34 27 28.34 Z" fill="currentColor" opacity="0.9"/>
    <path d="M 22 18.34 Q 16 10.34 13 20.34 Q 17 22.34 22 18.34 Z" fill="currentColor" opacity="0.82"/>
    <path d="M 40 18.34 Q 47 11.34 50 20.34 Q 46 22.34 40 18.34 Z" fill="currentColor" opacity="0.82"/>
    <ellipse cx="35.7" cy="23.14" rx="2.8" ry="2" fill="white"/>
    <ellipse cx="36.2" cy="23.34" rx="1.2" ry="0.92" fill="#2d1810"/>
    <path d="M 16 39.34 Q 4 43.34 -1 52.34" stroke="currentColor" stroke-width="4.2" stroke-linecap="round" fill="none"/>
    <path d="M 19 43.34 Q 7 49.34 4 58.34" stroke="currentColor" stroke-width="3.4" stroke-linecap="round" fill="none" opacity="0.9"/>
    <path d="M 48 39.34 Q 60 43.34 65 52.34" stroke="currentColor" stroke-width="4.2" stroke-linecap="round" fill="none"/>
    <path d="M 45 43.34 Q 57 49.34 60 58.34" stroke="currentColor" stroke-width="3.4" stroke-linecap="round" fill="none" opacity="0.9"/>
    <ellipse cx="37" cy="33.34" rx="6.5" ry="8.8" fill="rgba(255,255,255,0.13)"/>
    <path d="M 48 39.34 Q 56 36.34 60 40.34 Q 56 42.34 50 41.34 Z" fill="currentColor" opacity="0.75"/>
    <circle cx="8" cy="53.34" r="2.1" fill="rgba(143,91,48,0.46)"/>
    <circle cx="57" cy="53.34" r="1.7" fill="rgba(143,91,48,0.42)"/>
  </g><g transform="translate(960 0)">

    <rect x="0" y="0" width="64" height="64" fill="none"/>
    <ellipse cx="32" cy="49.92" rx="19" ry="4.6" fill="rgba(0,0,0,0.18)"/>

    <ellipse cx="32" cy="36.82" rx="18.5" ry="13.5" fill="currentColor" filter="url(#creature_burrowing-soft-shadow)"/>
    <ellipse cx="31" cy="24.82" rx="11" ry="8.6" fill="currentColor"/>
    <path d="M 24 26.82 Q 17 28.82 14 33.82 Q 21 31.82 27 27.82 Z" fill="currentColor" opacity="0.9"/>
    <path d="M 22 17.82 Q 16 9.82 13 19.82 Q 17 21.82 22 17.82 Z" fill="currentColor" opacity="0.82"/>
    <path d="M 40 17.82 Q 47 10.82 50 19.82 Q 46 21.82 40 17.82 Z" fill="currentColor" opacity="0.82"/>
    <ellipse cx="35.7" cy="22.62" rx="2.8" ry="2" fill="white"/>
    <ellipse cx="36.2" cy="22.82" rx="1.2" ry="0.92" fill="#2d1810"/>
    <path d="M 16 38.82 Q 4 42.82 -1 51.82" stroke="currentColor" stroke-width="4.2" stroke-linecap="round" fill="none"/>
    <path d="M 19 42.82 Q 7 48.82 4 57.82" stroke="currentColor" stroke-width="3.4" stroke-linecap="round" fill="none" opacity="0.9"/>
    <path d="M 48 38.82 Q 60 42.82 65 51.82" stroke="currentColor" stroke-width="4.2" stroke-linecap="round" fill="none"/>
    <path d="M 45 42.82 Q 57 48.82 60 57.82" stroke="currentColor" stroke-width="3.4" stroke-linecap="round" fill="none" opacity="0.9"/>
    <ellipse cx="37" cy="32.82" rx="6.5" ry="8.8" fill="rgba(255,255,255,0.13)"/>
    <path d="M 48 38.82 Q 56 35.82 60 39.82 Q 56 41.82 50 40.82 Z" fill="currentColor" opacity="0.75"/>
    <circle cx="8" cy="52.82" r="2.1" fill="rgba(143,91,48,0.46)"/>
    <circle cx="57" cy="52.82" r="1.7" fill="rgba(143,91,48,0.42)"/>
  </g></svg>
