<svg xmlns="http://www.w3.org/2000/svg" width="640" height="64" viewBox="0 0 640 64" fill="none"><g transform="translate(0 0)"><path d="M17.0 32.0 Q6.0 24.0 2.0 30.0" stroke="rgba(12,18,16,0.55)" stroke-width="5.2" stroke-linecap="round"/><path d="M17.0 32.0 Q6.0 24.0 2.0 30.0" stroke="currentColor" stroke-width="3.4" stroke-linecap="round"/><g opacity="0.7"><path d="M23.20 40.05 L23.20 48.85" stroke="currentColor" stroke-width="3.2" stroke-linecap="round"/><path d="M23.20 40.05 L23.20 48.85" stroke="rgba(12,18,16,0.55)" stroke-width="4.6" stroke-linecap="round" opacity="0.5"/><path d="M23.20 40.05 L23.20 48.85" stroke="currentColor" stroke-width="3.2" stroke-linecap="round"/><ellipse cx="24.00" cy="48.85" rx="2.24" ry="1.44" fill="#2a2320" opacity="0.55"/></g><g opacity="0.7"><path d="M40.00 40.05 L40.00 50.05" stroke="currentColor" stroke-width="3.2" stroke-linecap="round"/><path d="M40.00 40.05 L40.00 50.05" stroke="rgba(12,18,16,0.55)" stroke-width="4.6" stroke-linecap="round" opacity="0.5"/><path d="M40.00 40.05 L40.00 50.05" stroke="currentColor" stroke-width="3.2" stroke-linecap="round"/><ellipse cx="40.80" cy="50.05" rx="2.24" ry="1.44" fill="#2a2320" opacity="0.55"/></g><ellipse cx="30.00" cy="34.00" rx="16.00" ry="11.00" fill="currentColor" stroke="rgba(12,18,16,0.55)" stroke-width="1.3" /><ellipse cx="31.00" cy="38.62" rx="11.52" ry="4.62" fill="#fff" opacity="0.22"/><ellipse cx="26.00" cy="29.05" rx="7.20" ry="3.08" fill="#fff" opacity="0.2"/><ellipse cx="38.80" cy="30.15" rx="7.00" ry="8.50" fill="#000" opacity="0.18"/><path d="M21.20 40.05 L21.20 48.85" stroke="currentColor" stroke-width="3.2" stroke-linecap="round"/><path d="M21.20 40.05 L21.20 48.85" stroke="rgba(12,18,16,0.55)" stroke-width="4.6" stroke-linecap="round" opacity="0.5"/><path d="M21.20 40.05 L21.20 48.85" stroke="currentColor" stroke-width="3.2" stroke-linecap="round"/><ellipse cx="22.00" cy="48.85" rx="2.24" ry="1.44" fill="#2a2320" opacity="0.55"/><path d="M38.00 40.05 L38.00 50.05" stroke="currentColor" stroke-width="3.2" stroke-linecap="round"/><path d="M38.00 40.05 L38.00 50.05" stroke="rgba(12,18,16,0.55)" stroke-width="4.6" stroke-linecap="round" opacity="0.5"/><path d="M38.00 40.05 L38.00 50.05" stroke="currentColor" stroke-width="3.2" stroke-linecap="round"/><ellipse cx="38.80" cy="50.05" rx="2.24" ry="1.44" fill="#2a2320" opacity="0.55"/><path d="M40.0 22.0 L42.0 12.0 L46.0 21.0Z" fill="currentColor" stroke="rgba(12,18,16,0.55)" stroke-width="1.2" stroke-linejoin="round"/><path d="M42.5 20.0 l-2.0 -7 l-3.0 -2 M41.2 16.0 l2.0 -4" stroke="#e9dcc0" stroke-width="2" stroke-linecap="round" stroke-linejoin="round"/><path d="M47.5 20.0 l2.0 -7 l3.0 -2 M48.8 16.0 l-2.0 -4" stroke="#e9dcc0" stroke-width="2" stroke-linecap="round" stroke-linejoin="round"/><ellipse cx="45.00" cy="28.00" rx="9.00" ry="8.28" fill="currentColor" stroke="rgba(12,18,16,0.55)" stroke-width="1.3" /><ellipse cx="51.75" cy="30.70" rx="3.60" ry="2.59" fill="currentColor" stroke="rgba(12,18,16,0.55)" stroke-width="1.3" /><ellipse cx="54.45" cy="29.62" rx="1.40" ry="1.10" fill="#2a1f1f" /><ellipse cx="45.90" cy="32.05" rx="2.52" ry="1.62" fill="#ff8fa3" opacity="0.35"/><ellipse cx="47.70" cy="26.65" rx="3.30" ry="3.46" fill="#fff" stroke="rgba(12,18,16,0.55)" stroke-width="0.9"/><ellipse cx="48.86" cy="26.81" rx="1.81" ry="2.05" fill="#1b1d22" /><ellipse cx="48.20" cy="25.82" rx="0.66" ry="0.66" fill="#fff" /><path d="M49.0 33.0 q1.6 1.2 3.2 0" stroke="rgba(12,18,16,0.55)" stroke-width="0.9" stroke-linecap="round"/></g><g transform="translate(64 0)"><path d="M17.0 32.9 Q6.0 27.7 2.0 33.7" stroke="rgba(12,18,16,0.55)" stroke-width="5.2" stroke-linecap="round"/><path d="M17.0 32.9 Q6.0 27.7 2.0 33.7" stroke="currentColor" stroke-width="3.4" stroke-linecap="round"/><g opacity="0.7"><path d="M23.20 40.91 L27.48 50.54" stroke="currentColor" stroke-width="3.2" stroke-linecap="round"/><path d="M23.20 40.91 L27.48 50.54" stroke="rgba(12,18,16,0.55)" stroke-width="4.6" stroke-linecap="round" opacity="0.5"/><path d="M23.20 40.91 L27.48 50.54" stroke="currentColor" stroke-width="3.2" stroke-linecap="round"/><ellipse cx="28.28" cy="50.54" rx="2.24" ry="1.44" fill="#2a2320" opacity="0.55"/></g><g opacity="0.7"><path d="M40.00 40.91 L35.72 50.91" stroke="currentColor" stroke-width="3.2" stroke-linecap="round"/><path d="M40.00 40.91 L35.72 50.91" stroke="rgba(12,18,16,0.55)" stroke-width="4.6" stroke-linecap="round" opacity="0.5"/><path d="M40.00 40.91 L35.72 50.91" stroke="currentColor" stroke-width="3.2" stroke-linecap="round"/><ellipse cx="36.52" cy="50.91" rx="2.24" ry="1.44" fill="#2a2320" opacity="0.55"/></g><ellipse cx="30.00" cy="34.86" rx="16.24" ry="11.16" fill="currentColor" stroke="rgba(12,18,16,0.55)" stroke-width="1.3" /><ellipse cx="31.00" cy="39.48" rx="11.52" ry="4.62" fill="#fff" opacity="0.22"/><ellipse cx="26.00" cy="29.91" rx="7.20" ry="3.08" fill="#fff" opacity="0.2"/><ellipse cx="38.80" cy="31.01" rx="7.00" ry="8.50" fill="#000" opacity="0.18"/><path d="M21.20 40.91 L25.48 50.54" stroke="currentColor" stroke-width="3.2" stroke-linecap="round"/><path d="M21.20 40.91 L25.48 50.54" stroke="rgba(12,18,16,0.55)" stroke-width="4.6" stroke-linecap="round" opacity="0.5"/><path d="M21.20 40.91 L25.48 50.54" stroke="currentColor" stroke-width="3.2" stroke-linecap="round"/><ellipse cx="26.28" cy="50.54" rx="2.24" ry="1.44" fill="#2a2320" opacity="0.55"/><path d="M38.00 40.91 L33.72 50.91" stroke="currentColor" stroke-width="3.2" stroke-linecap="round"/><path d="M38.00 40.91 L33.72 50.91" stroke="rgba(12,18,16,0.55)" stroke-width="4.6" stroke-linecap="round" opacity="0.5"/><path d="M38.00 40.91 L33.72 50.91" stroke="currentColor" stroke-width="3.2" stroke-linecap="round"/><ellipse cx="34.52" cy="50.91" rx="2.24" ry="1.44" fill="#2a2320" opacity="0.55"/><path d="M40.0 22.9 L42.0 12.9 L46.0 21.9Z" fill="currentColor" stroke="rgba(12,18,16,0.55)" stroke-width="1.2" stroke-linejoin="round"/><path d="M42.5 20.9 l-2.0 -7 l-3.0 -2 M41.2 16.9 l2.0 -4" stroke="#e9dcc0" stroke-width="2" stroke-linecap="round" stroke-linejoin="round"/><path d="M47.5 20.9 l2.0 -7 l3.0 -2 M48.8 16.9 l-2.0 -4" stroke="#e9dcc0" stroke-width="2" stroke-linecap="round" stroke-linejoin="round"/><ellipse cx="45.00" cy="28.86" rx="9.00" ry="8.28" fill="currentColor" stroke="rgba(12,18,16,0.55)" stroke-width="1.3" /><ellipse cx="51.75" cy="31.56" rx="3.60" ry="2.59" fill="currentColor" stroke="rgba(12,18,16,0.55)" stroke-width="1.3" /><ellipse cx="54.45" cy="30.48" rx="1.40" ry="1.10" fill="#2a1f1f" /><ellipse cx="45.90" cy="32.91" rx="2.52" ry="1.62" fill="#ff8fa3" opacity="0.35"/><ellipse cx="47.70" cy="27.51" rx="3.30" ry="3.46" fill="#fff" stroke="rgba(12,18,16,0.55)" stroke-width="0.9"/><ellipse cx="48.86" cy="27.67" rx="1.81" ry="2.05" fill="#1b1d22" /><ellipse cx="48.20" cy="26.68" rx="0.66" ry="0.66" fill="#fff" /><path d="M49.0 33.8 q1.6 1.2 3.2 0" stroke="rgba(12,18,16,0.55)" stroke-width="0.9" stroke-linecap="round"/></g><g transform="translate(128 0)"><path d="M17.0 32.5 Q6.0 26.3 2.0 32.3" stroke="rgba(12,18,16,0.55)" stroke-width="5.2" stroke-linecap="round"/><path d="M17.0 32.5 Q6.0 26.3 2.0 32.3" stroke="currentColor" stroke-width="3.4" stroke-linecap="round"/><g opacity="0.7"><path d="M23.20 40.58 L25.85 50.58" stroke="currentColor" stroke-width="3.2" stroke-linecap="round"/><path d="M23.20 40.58 L25.85 50.58" stroke="rgba(12,18,16,0.55)" stroke-width="4.6" stroke-linecap="round" opacity="0.5"/><path d="M23.20 40.58 L25.85 50.58" stroke="currentColor" stroke-width="3.2" stroke-linecap="round"/><ellipse cx="26.65" cy="50.58" rx="2.24" ry="1.44" fill="#2a2320" opacity="0.55"/></g><g opacity="0.7"><path d="M40.00 40.58 L37.35 49.61" stroke="currentColor" stroke-width="3.2" stroke-linecap="round"/><path d="M40.00 40.58 L37.35 49.61" stroke="rgba(12,18,16,0.55)" stroke-width="4.6" stroke-linecap="round" opacity="0.5"/><path d="M40.00 40.58 L37.35 49.61" stroke="currentColor" stroke-width="3.2" stroke-linecap="round"/><ellipse cx="38.15" cy="49.61" rx="2.24" ry="1.44" fill="#2a2320" opacity="0.55"/></g><ellipse cx="30.00" cy="34.53" rx="16.38" ry="11.26" fill="currentColor" stroke="rgba(12,18,16,0.55)" stroke-width="1.3" /><ellipse cx="31.00" cy="39.15" rx="11.52" ry="4.62" fill="#fff" opacity="0.22"/><ellipse cx="26.00" cy="29.58" rx="7.20" ry="3.08" fill="#fff" opacity="0.2"/><ellipse cx="38.80" cy="30.68" rx="7.00" ry="8.50" fill="#000" opacity="0.18"/><path d="M21.20 40.58 L23.85 50.58" stroke="currentColor" stroke-width="3.2" stroke-linecap="round"/><path d="M21.20 40.58 L23.85 50.58" stroke="rgba(12,18,16,0.55)" stroke-width="4.6" stroke-linecap="round" opacity="0.5"/><path d="M21.20 40.58 L23.85 50.58" stroke="currentColor" stroke-width="3.2" stroke-linecap="round"/><ellipse cx="24.65" cy="50.58" rx="2.24" ry="1.44" fill="#2a2320" opacity="0.55"/><path d="M38.00 40.58 L35.35 49.61" stroke="currentColor" stroke-width="3.2" stroke-linecap="round"/><path d="M38.00 40.58 L35.35 49.61" stroke="rgba(12,18,16,0.55)" stroke-width="4.6" stroke-linecap="round" opacity="0.5"/><path d="M38.00 40.58 L35.35 49.61" stroke="currentColor" stroke-width="3.2" stroke-linecap="round"/><ellipse cx="36.15" cy="49.61" rx="2.24" ry="1.44" fill="#2a2320" opacity="0.55"/><path d="M40.0 22.5 L42.0 12.5 L46.0 21.5Z" fill="currentColor" stroke="rgba(12,18,16,0.55)" stroke-width="1.2" stroke-linejoin="round"/><path d="M42.5 20.5 l-2.0 -7 l-3.0 -2 M41.2 16.5 l2.0 -4" stroke="#e9dcc0" stroke-width="2" stroke-linecap="round" stroke-linejoin="round"/><path d="M47.5 20.5 l2.0 -7 l3.0 -2 M48.8 16.5 l-2.0 -4" stroke="#e9dcc0" stroke-width="2" stroke-linecap="round" stroke-linejoin="round"/><ellipse cx="45.00" cy="28.53" rx="9.00" ry="8.28" fill="currentColor" stroke="rgba(12,18,16,0.55)" stroke-width="1.3" /><ellipse cx="51.75" cy="31.23" rx="3.60" ry="2.59" fill="currentColor" stroke="rgba(12,18,16,0.55)" stroke-width="1.3" /><ellipse cx="54.45" cy="30.15" rx="1.40" ry="1.10" fill="#2a1f1f" /><ellipse cx="45.90" cy="32.58" rx="2.52" ry="1.62" fill="#ff8fa3" opacity="0.35"/><ellipse cx="47.70" cy="27.18" rx="3.30" ry="3.46" fill="#fff" stroke="rgba(12,18,16,0.55)" stroke-width="0.9"/><ellipse cx="48.86" cy="27.34" rx="1.81" ry="2.05" fill="#1b1d22" /><ellipse cx="48.20" cy="26.35" rx="0.66" ry="0.66" fill="#fff" /><path d="M49.0 33.5 q1.6 1.2 3.2 0" stroke="rgba(12,18,16,0.55)" stroke-width="0.9" stroke-linecap="round"/></g><g transform="translate(192 0)"><path d="M17.0 31.5 Q6.0 21.7 2.0 27.7" stroke="rgba(12,18,16,0.55)" stroke-width="5.2" stroke-linecap="round"/><path d="M17.0 31.5 Q6.0 21.7 2.0 27.7" stroke="currentColor" stroke-width="3.4" stroke-linecap="round"/><g opacity="0.7"><path d="M23.20 39.52 L20.55 49.52" stroke="currentColor" stroke-width="3.2" stroke-linecap="round"/><path d="M23.20 39.52 L20.55 49.52" stroke="rgba(12,18,16,0.55)" stroke-width="4.6" stroke-linecap="round" opacity="0.5"/><path d="M23.20 39.52 L20.55 49.52" stroke="currentColor" stroke-width="3.2" stroke-linecap="round"/><ellipse cx="21.35" cy="49.52" rx="2.24" ry="1.44" fill="#2a2320" opacity="0.55"/></g><g opacity="0.7"><path d="M40.00 39.52 L42.65 48.55" stroke="currentColor" stroke-width="3.2" stroke-linecap="round"/><path d="M40.00 39.52 L42.65 48.55" stroke="rgba(12,18,16,0.55)" stroke-width="4.6" stroke-linecap="round" opacity="0.5"/><path d="M40.00 39.52 L42.65 48.55" stroke="currentColor" stroke-width="3.2" stroke-linecap="round"/><ellipse cx="43.45" cy="48.55" rx="2.24" ry="1.44" fill="#2a2320" opacity="0.55"/></g><ellipse cx="30.00" cy="33.47" rx="16.38" ry="11.26" fill="currentColor" stroke="rgba(12,18,16,0.55)" stroke-width="1.3" /><ellipse cx="31.00" cy="38.09" rx="11.52" ry="4.62" fill="#fff" opacity="0.22"/><ellipse cx="26.00" cy="28.52" rx="7.20" ry="3.08" fill="#fff" opacity="0.2"/><ellipse cx="38.80" cy="29.62" rx="7.00" ry="8.50" fill="#000" opacity="0.18"/><path d="M21.20 39.52 L18.55 49.52" stroke="currentColor" stroke-width="3.2" stroke-linecap="round"/><path d="M21.20 39.52 L18.55 49.52" stroke="rgba(12,18,16,0.55)" stroke-width="4.6" stroke-linecap="round" opacity="0.5"/><path d="M21.20 39.52 L18.55 49.52" stroke="currentColor" stroke-width="3.2" stroke-linecap="round"/><ellipse cx="19.35" cy="49.52" rx="2.24" ry="1.44" fill="#2a2320" opacity="0.55"/><path d="M38.00 39.52 L40.65 48.55" stroke="currentColor" stroke-width="3.2" stroke-linecap="round"/><path d="M38.00 39.52 L40.65 48.55" stroke="rgba(12,18,16,0.55)" stroke-width="4.6" stroke-linecap="round" opacity="0.5"/><path d="M38.00 39.52 L40.65 48.55" stroke="currentColor" stroke-width="3.2" stroke-linecap="round"/><ellipse cx="41.45" cy="48.55" rx="2.24" ry="1.44" fill="#2a2320" opacity="0.55"/><path d="M40.0 21.5 L42.0 11.5 L46.0 20.5Z" fill="currentColor" stroke="rgba(12,18,16,0.55)" stroke-width="1.2" stroke-linejoin="round"/><path d="M42.5 19.5 l-2.0 -7 l-3.0 -2 M41.2 15.5 l2.0 -4" stroke="#e9dcc0" stroke-width="2" stroke-linecap="round" stroke-linejoin="round"/><path d="M47.5 19.5 l2.0 -7 l3.0 -2 M48.8 15.5 l-2.0 -4" stroke="#e9dcc0" stroke-width="2" stroke-linecap="round" stroke-linejoin="round"/><ellipse cx="45.00" cy="27.47" rx="9.00" ry="8.28" fill="currentColor" stroke="rgba(12,18,16,0.55)" stroke-width="1.3" /><ellipse cx="51.75" cy="30.17" rx="3.60" ry="2.59" fill="currentColor" stroke="rgba(12,18,16,0.55)" stroke-width="1.3" /><ellipse cx="54.45" cy="29.09" rx="1.40" ry="1.10" fill="#2a1f1f" /><ellipse cx="45.90" cy="31.52" rx="2.52" ry="1.62" fill="#ff8fa3" opacity="0.35"/><ellipse cx="47.70" cy="26.12" rx="3.30" ry="3.46" fill="#fff" stroke="rgba(12,18,16,0.55)" stroke-width="0.9"/><ellipse cx="48.86" cy="26.29" rx="1.81" ry="2.05" fill="#1b1d22" /><ellipse cx="48.20" cy="25.30" rx="0.66" ry="0.66" fill="#fff" /><path d="M49.0 32.4 q1.6 1.2 3.2 0" stroke="rgba(12,18,16,0.55)" stroke-width="0.9" stroke-linecap="round"/></g><g transform="translate(256 0)"><path d="M17.0 31.1 Q6.0 20.3 2.0 26.3" stroke="rgba(12,18,16,0.55)" stroke-width="5.2" stroke-linecap="round"/><path d="M17.0 31.1 Q6.0 20.3 2.0 26.3" stroke="currentColor" stroke-width="3.4" stroke-linecap="round"/><g opacity="0.7"><path d="M23.20 39.19 L18.92 48.82" stroke="currentColor" stroke-width="3.2" stroke-linecap="round"/><path d="M23.20 39.19 L18.92 48.82" stroke="rgba(12,18,16,0.55)" stroke-width="4.6" stroke-linecap="round" opacity="0.5"/><path d="M23.20 39.19 L18.92 48.82" stroke="currentColor" stroke-width="3.2" stroke-linecap="round"/><ellipse cx="19.72" cy="48.82" rx="2.24" ry="1.44" fill="#2a2320" opacity="0.55"/></g><g opacity="0.7"><path d="M40.00 39.19 L44.28 49.19" stroke="currentColor" stroke-width="3.2" stroke-linecap="round"/><path d="M40.00 39.19 L44.28 49.19" stroke="rgba(12,18,16,0.55)" stroke-width="4.6" stroke-linecap="round" opacity="0.5"/><path d="M40.00 39.19 L44.28 49.19" stroke="currentColor" stroke-width="3.2" stroke-linecap="round"/><ellipse cx="45.08" cy="49.19" rx="2.24" ry="1.44" fill="#2a2320" opacity="0.55"/></g><ellipse cx="30.00" cy="33.14" rx="16.24" ry="11.16" fill="currentColor" stroke="rgba(12,18,16,0.55)" stroke-width="1.3" /><ellipse cx="31.00" cy="37.76" rx="11.52" ry="4.62" fill="#fff" opacity="0.22"/><ellipse cx="26.00" cy="28.19" rx="7.20" ry="3.08" fill="#fff" opacity="0.2"/><ellipse cx="38.80" cy="29.29" rx="7.00" ry="8.50" fill="#000" opacity="0.18"/><path d="M21.20 39.19 L16.92 48.82" stroke="currentColor" stroke-width="3.2" stroke-linecap="round"/><path d="M21.20 39.19 L16.92 48.82" stroke="rgba(12,18,16,0.55)" stroke-width="4.6" stroke-linecap="round" opacity="0.5"/><path d="M21.20 39.19 L16.92 48.82" stroke="currentColor" stroke-width="3.2" stroke-linecap="round"/><ellipse cx="17.72" cy="48.82" rx="2.24" ry="1.44" fill="#2a2320" opacity="0.55"/><path d="M38.00 39.19 L42.28 49.19" stroke="currentColor" stroke-width="3.2" stroke-linecap="round"/><path d="M38.00 39.19 L42.28 49.19" stroke="rgba(12,18,16,0.55)" stroke-width="4.6" stroke-linecap="round" opacity="0.5"/><path d="M38.00 39.19 L42.28 49.19" stroke="currentColor" stroke-width="3.2" stroke-linecap="round"/><ellipse cx="43.08" cy="49.19" rx="2.24" ry="1.44" fill="#2a2320" opacity="0.55"/><path d="M40.0 21.1 L42.0 11.1 L46.0 20.1Z" fill="currentColor" stroke="rgba(12,18,16,0.55)" stroke-width="1.2" stroke-linejoin="round"/><path d="M42.5 19.1 l-2.0 -7 l-3.0 -2 M41.2 15.1 l2.0 -4" stroke="#e9dcc0" stroke-width="2" stroke-linecap="round" stroke-linejoin="round"/><path d="M47.5 19.1 l2.0 -7 l3.0 -2 M48.8 15.1 l-2.0 -4" stroke="#e9dcc0" stroke-width="2" stroke-linecap="round" stroke-linejoin="round"/><ellipse cx="45.00" cy="27.14" rx="9.00" ry="8.28" fill="currentColor" stroke="rgba(12,18,16,0.55)" stroke-width="1.3" /><ellipse cx="51.75" cy="29.84" rx="3.60" ry="2.59" fill="currentColor" stroke="rgba(12,18,16,0.55)" stroke-width="1.3" /><ellipse cx="54.45" cy="28.76" rx="1.40" ry="1.10" fill="#2a1f1f" /><ellipse cx="45.90" cy="31.19" rx="2.52" ry="1.62" fill="#ff8fa3" opacity="0.35"/><ellipse cx="47.70" cy="25.79" rx="3.30" ry="3.46" fill="#fff" stroke="rgba(12,18,16,0.55)" stroke-width="0.9"/><ellipse cx="48.86" cy="25.96" rx="1.81" ry="2.05" fill="#1b1d22" /><ellipse cx="48.20" cy="24.97" rx="0.66" ry="0.66" fill="#fff" /><path d="M49.0 32.1 q1.6 1.2 3.2 0" stroke="rgba(12,18,16,0.55)" stroke-width="0.9" stroke-linecap="round"/></g><g transform="translate(320 0)"><path d="M17.0 32.0 Q6.0 24.0 2.0 30.0" stroke="rgba(12,18,16,0.55)" stroke-width="5.2" stroke-linecap="round"/><path d="M17.0 32.0 Q6.0 24.0 2.0 30.0" stroke="currentColor" stroke-width="3.4" stroke-linecap="round"/><g opacity="0.7"><path d="M23.20 40.05 L23.20 48.85" stroke="currentColor" stroke-width="3.2" stroke-linecap="round"/><path d="M23.20 40.05 L23.20 48.85" stroke="rgba(12,18,16,0.55)" stroke-width="4.6" stroke-linecap="round" opacity="0.5"/><path d="M23.20 40.05 L23.20 48.85" stroke="currentColor" stroke-width="3.2" stroke-linecap="round"/><ellipse cx="24.00" cy="48.85" rx="2.24" ry="1.44" fill="#2a2320" opacity="0.55"/></g><g opacity="0.7"><path d="M40.00 40.05 L40.00 50.05" stroke="currentColor" stroke-width="3.2" stroke-linecap="round"/><path d="M40.00 40.05 L40.00 50.05" stroke="rgba(12,18,16,0.55)" stroke-width="4.6" stroke-linecap="round" opacity="0.5"/><path d="M40.00 40.05 L40.00 50.05" stroke="currentColor" stroke-width="3.2" stroke-linecap="round"/><ellipse cx="40.80" cy="50.05" rx="2.24" ry="1.44" fill="#2a2320" opacity="0.55"/></g><ellipse cx="30.00" cy="34.00" rx="16.00" ry="11.00" fill="currentColor" stroke="rgba(12,18,16,0.55)" stroke-width="1.3" /><ellipse cx="31.00" cy="38.62" rx="11.52" ry="4.62" fill="#fff" opacity="0.22"/><ellipse cx="26.00" cy="29.05" rx="7.20" ry="3.08" fill="#fff" opacity="0.2"/><ellipse cx="38.80" cy="30.15" rx="7.00" ry="8.50" fill="#000" opacity="0.18"/><path d="M21.20 40.05 L21.20 48.85" stroke="currentColor" stroke-width="3.2" stroke-linecap="round"/><path d="M21.20 40.05 L21.20 48.85" stroke="rgba(12,18,16,0.55)" stroke-width="4.6" stroke-linecap="round" opacity="0.5"/><path d="M21.20 40.05 L21.20 48.85" stroke="currentColor" stroke-width="3.2" stroke-linecap="round"/><ellipse cx="22.00" cy="48.85" rx="2.24" ry="1.44" fill="#2a2320" opacity="0.55"/><path d="M38.00 40.05 L38.00 50.05" stroke="currentColor" stroke-width="3.2" stroke-linecap="round"/><path d="M38.00 40.05 L38.00 50.05" stroke="rgba(12,18,16,0.55)" stroke-width="4.6" stroke-linecap="round" opacity="0.5"/><path d="M38.00 40.05 L38.00 50.05" stroke="currentColor" stroke-width="3.2" stroke-linecap="round"/><ellipse cx="38.80" cy="50.05" rx="2.24" ry="1.44" fill="#2a2320" opacity="0.55"/><path d="M40.0 22.0 L42.0 12.0 L46.0 21.0Z" fill="currentColor" stroke="rgba(12,18,16,0.55)" stroke-width="1.2" stroke-linejoin="round"/><path d="M42.5 20.0 l-2.0 -7 l-3.0 -2 M41.2 16.0 l2.0 -4" stroke="#e9dcc0" stroke-width="2" stroke-linecap="round" stroke-linejoin="round"/><path d="M47.5 20.0 l2.0 -7 l3.0 -2 M48.8 16.0 l-2.0 -4" stroke="#e9dcc0" stroke-width="2" stroke-linecap="round" stroke-linejoin="round"/><ellipse cx="45.00" cy="28.00" rx="9.00" ry="8.28" fill="currentColor" stroke="rgba(12,18,16,0.55)" stroke-width="1.3" /><ellipse cx="51.75" cy="30.70" rx="3.60" ry="2.59" fill="currentColor" stroke="rgba(12,18,16,0.55)" stroke-width="1.3" /><ellipse cx="54.45" cy="29.62" rx="1.40" ry="1.10" fill="#2a1f1f" /><ellipse cx="45.90" cy="32.05" rx="2.52" ry="1.62" fill="#ff8fa3" opacity="0.35"/><ellipse cx="47.70" cy="26.65" rx="3.30" ry="3.46" fill="#fff" stroke="rgba(12,18,16,0.55)" stroke-width="0.9"/><ellipse cx="48.86" cy="26.81" rx="1.81" ry="2.05" fill="#1b1d22" /><ellipse cx="48.20" cy="25.82" rx="0.66" ry="0.66" fill="#fff" /><path d="M49.0 33.0 q1.6 1.2 3.2 0" stroke="rgba(12,18,16,0.55)" stroke-width="0.9" stroke-linecap="round"/></g><g transform="translate(384 0)"><path d="M17.0 32.9 Q6.0 27.7 2.0 33.7" stroke="rgba(12,18,16,0.55)" stroke-width="5.2" stroke-linecap="round"/><path d="M17.0 32.9 Q6.0 27.7 2.0 33.7" stroke="currentColor" stroke-width="3.4" stroke-linecap="round"/><g opacity="0.7"><path d="M23.20 40.91 L27.48 50.54" stroke="currentColor" stroke-width="3.2" stroke-linecap="round"/><path d="M23.20 40.91 L27.48 50.54" stroke="rgba(12,18,16,0.55)" stroke-width="4.6" stroke-linecap="round" opacity="0.5"/><path d="M23.20 40.91 L27.48 50.54" stroke="currentColor" stroke-width="3.2" stroke-linecap="round"/><ellipse cx="28.28" cy="50.54" rx="2.24" ry="1.44" fill="#2a2320" opacity="0.55"/></g><g opacity="0.7"><path d="M40.00 40.91 L35.72 50.91" stroke="currentColor" stroke-width="3.2" stroke-linecap="round"/><path d="M40.00 40.91 L35.72 50.91" stroke="rgba(12,18,16,0.55)" stroke-width="4.6" stroke-linecap="round" opacity="0.5"/><path d="M40.00 40.91 L35.72 50.91" stroke="currentColor" stroke-width="3.2" stroke-linecap="round"/><ellipse cx="36.52" cy="50.91" rx="2.24" ry="1.44" fill="#2a2320" opacity="0.55"/></g><ellipse cx="30.00" cy="34.86" rx="15.76" ry="10.84" fill="currentColor" stroke="rgba(12,18,16,0.55)" stroke-width="1.3" /><ellipse cx="31.00" cy="39.48" rx="11.52" ry="4.62" fill="#fff" opacity="0.22"/><ellipse cx="26.00" cy="29.91" rx="7.20" ry="3.08" fill="#fff" opacity="0.2"/><ellipse cx="38.80" cy="31.01" rx="7.00" ry="8.50" fill="#000" opacity="0.18"/><path d="M21.20 40.91 L25.48 50.54" stroke="currentColor" stroke-width="3.2" stroke-linecap="round"/><path d="M21.20 40.91 L25.48 50.54" stroke="rgba(12,18,16,0.55)" stroke-width="4.6" stroke-linecap="round" opacity="0.5"/><path d="M21.20 40.91 L25.48 50.54" stroke="currentColor" stroke-width="3.2" stroke-linecap="round"/><ellipse cx="26.28" cy="50.54" rx="2.24" ry="1.44" fill="#2a2320" opacity="0.55"/><path d="M38.00 40.91 L33.72 50.91" stroke="currentColor" stroke-width="3.2" stroke-linecap="round"/><path d="M38.00 40.91 L33.72 50.91" stroke="rgba(12,18,16,0.55)" stroke-width="4.6" stroke-linecap="round" opacity="0.5"/><path d="M38.00 40.91 L33.72 50.91" stroke="currentColor" stroke-width="3.2" stroke-linecap="round"/><ellipse cx="34.52" cy="50.91" rx="2.24" ry="1.44" fill="#2a2320" opacity="0.55"/><path d="M40.0 22.9 L42.0 12.9 L46.0 21.9Z" fill="currentColor" stroke="rgba(12,18,16,0.55)" stroke-width="1.2" stroke-linejoin="round"/><path d="M42.5 20.9 l-2.0 -7 l-3.0 -2 M41.2 16.9 l2.0 -4" stroke="#e9dcc0" stroke-width="2" stroke-linecap="round" stroke-linejoin="round"/><path d="M47.5 20.9 l2.0 -7 l3.0 -2 M48.8 16.9 l-2.0 -4" stroke="#e9dcc0" stroke-width="2" stroke-linecap="round" stroke-linejoin="round"/><ellipse cx="45.00" cy="28.86" rx="9.00" ry="8.28" fill="currentColor" stroke="rgba(12,18,16,0.55)" stroke-width="1.3" /><ellipse cx="51.75" cy="31.56" rx="3.60" ry="2.59" fill="currentColor" stroke="rgba(12,18,16,0.55)" stroke-width="1.3" /><ellipse cx="54.45" cy="30.48" rx="1.40" ry="1.10" fill="#2a1f1f" /><ellipse cx="45.90" cy="32.91" rx="2.52" ry="1.62" fill="#ff8fa3" opacity="0.35"/><ellipse cx="47.70" cy="27.51" rx="3.30" ry="3.46" fill="#fff" stroke="rgba(12,18,16,0.55)" stroke-width="0.9"/><ellipse cx="48.86" cy="27.67" rx="1.81" ry="2.05" fill="#1b1d22" /><ellipse cx="48.20" cy="26.68" rx="0.66" ry="0.66" fill="#fff" /><path d="M49.0 33.8 q1.6 1.2 3.2 0" stroke="rgba(12,18,16,0.55)" stroke-width="0.9" stroke-linecap="round"/></g><g transform="translate(448 0)"><path d="M17.0 32.5 Q6.0 26.3 2.0 32.3" stroke="rgba(12,18,16,0.55)" stroke-width="5.2" stroke-linecap="round"/><path d="M17.0 32.5 Q6.0 26.3 2.0 32.3" stroke="currentColor" stroke-width="3.4" stroke-linecap="round"/><g opacity="0.7"><path d="M23.20 40.58 L25.85 50.58" stroke="currentColor" stroke-width="3.2" stroke-linecap="round"/><path d="M23.20 40.58 L25.85 50.58" stroke="rgba(12,18,16,0.55)" stroke-width="4.6" stroke-linecap="round" opacity="0.5"/><path d="M23.20 40.58 L25.85 50.58" stroke="currentColor" stroke-width="3.2" stroke-linecap="round"/><ellipse cx="26.65" cy="50.58" rx="2.24" ry="1.44" fill="#2a2320" opacity="0.55"/></g><g opacity="0.7"><path d="M40.00 40.58 L37.35 49.61" stroke="currentColor" stroke-width="3.2" stroke-linecap="round"/><path d="M40.00 40.58 L37.35 49.61" stroke="rgba(12,18,16,0.55)" stroke-width="4.6" stroke-linecap="round" opacity="0.5"/><path d="M40.00 40.58 L37.35 49.61" stroke="currentColor" stroke-width="3.2" stroke-linecap="round"/><ellipse cx="38.15" cy="49.61" rx="2.24" ry="1.44" fill="#2a2320" opacity="0.55"/></g><ellipse cx="30.00" cy="34.53" rx="15.62" ry="10.74" fill="currentColor" stroke="rgba(12,18,16,0.55)" stroke-width="1.3" /><ellipse cx="31.00" cy="39.15" rx="11.52" ry="4.62" fill="#fff" opacity="0.22"/><ellipse cx="26.00" cy="29.58" rx="7.20" ry="3.08" fill="#fff" opacity="0.2"/><ellipse cx="38.80" cy="30.68" rx="7.00" ry="8.50" fill="#000" opacity="0.18"/><path d="M21.20 40.58 L23.85 50.58" stroke="currentColor" stroke-width="3.2" stroke-linecap="round"/><path d="M21.20 40.58 L23.85 50.58" stroke="rgba(12,18,16,0.55)" stroke-width="4.6" stroke-linecap="round" opacity="0.5"/><path d="M21.20 40.58 L23.85 50.58" stroke="currentColor" stroke-width="3.2" stroke-linecap="round"/><ellipse cx="24.65" cy="50.58" rx="2.24" ry="1.44" fill="#2a2320" opacity="0.55"/><path d="M38.00 40.58 L35.35 49.61" stroke="currentColor" stroke-width="3.2" stroke-linecap="round"/><path d="M38.00 40.58 L35.35 49.61" stroke="rgba(12,18,16,0.55)" stroke-width="4.6" stroke-linecap="round" opacity="0.5"/><path d="M38.00 40.58 L35.35 49.61" stroke="currentColor" stroke-width="3.2" stroke-linecap="round"/><ellipse cx="36.15" cy="49.61" rx="2.24" ry="1.44" fill="#2a2320" opacity="0.55"/><path d="M40.0 27.5 L42.0 17.5 L46.0 26.5Z" fill="currentColor" stroke="rgba(12,18,16,0.55)" stroke-width="1.2" stroke-linejoin="round"/><path d="M42.5 25.5 l-2.0 -7 l-3.0 -2 M41.2 21.5 l2.0 -4" stroke="#e9dcc0" stroke-width="2" stroke-linecap="round" stroke-linejoin="round"/><path d="M47.5 25.5 l2.0 -7 l3.0 -2 M48.8 21.5 l-2.0 -4" stroke="#e9dcc0" stroke-width="2" stroke-linecap="round" stroke-linejoin="round"/><ellipse cx="45.00" cy="33.53" rx="9.00" ry="8.28" fill="currentColor" stroke="rgba(12,18,16,0.55)" stroke-width="1.3" /><ellipse cx="51.75" cy="36.23" rx="3.60" ry="2.59" fill="currentColor" stroke="rgba(12,18,16,0.55)" stroke-width="1.3" /><ellipse cx="54.45" cy="35.15" rx="1.40" ry="1.10" fill="#2a1f1f" /><ellipse cx="45.90" cy="37.58" rx="2.52" ry="1.62" fill="#ff8fa3" opacity="0.35"/><ellipse cx="47.70" cy="32.18" rx="3.30" ry="3.46" fill="#fff" stroke="rgba(12,18,16,0.55)" stroke-width="0.9"/><ellipse cx="48.86" cy="32.34" rx="1.81" ry="2.05" fill="#1b1d22" /><ellipse cx="48.20" cy="31.35" rx="0.66" ry="0.66" fill="#fff" /><path d="M49.0 38.5 q1.6 1.2 3.2 0" stroke="rgba(12,18,16,0.55)" stroke-width="0.9" stroke-linecap="round"/></g><g transform="translate(512 0)"><path d="M17.0 31.5 Q6.0 21.7 2.0 27.7" stroke="rgba(12,18,16,0.55)" stroke-width="5.2" stroke-linecap="round"/><path d="M17.0 31.5 Q6.0 21.7 2.0 27.7" stroke="currentColor" stroke-width="3.4" stroke-linecap="round"/><g opacity="0.7"><path d="M23.20 39.52 L20.55 49.52" stroke="currentColor" stroke-width="3.2" stroke-linecap="round"/><path d="M23.20 39.52 L20.55 49.52" stroke="rgba(12,18,16,0.55)" stroke-width="4.6" stroke-linecap="round" opacity="0.5"/><path d="M23.20 39.52 L20.55 49.52" stroke="currentColor" stroke-width="3.2" stroke-linecap="round"/><ellipse cx="21.35" cy="49.52" rx="2.24" ry="1.44" fill="#2a2320" opacity="0.55"/></g><g opacity="0.7"><path d="M40.00 39.52 L42.65 48.55" stroke="currentColor" stroke-width="3.2" stroke-linecap="round"/><path d="M40.00 39.52 L42.65 48.55" stroke="rgba(12,18,16,0.55)" stroke-width="4.6" stroke-linecap="round" opacity="0.5"/><path d="M40.00 39.52 L42.65 48.55" stroke="currentColor" stroke-width="3.2" stroke-linecap="round"/><ellipse cx="43.45" cy="48.55" rx="2.24" ry="1.44" fill="#2a2320" opacity="0.55"/></g><ellipse cx="30.00" cy="33.47" rx="15.62" ry="10.74" fill="currentColor" stroke="rgba(12,18,16,0.55)" stroke-width="1.3" /><ellipse cx="31.00" cy="38.09" rx="11.52" ry="4.62" fill="#fff" opacity="0.22"/><ellipse cx="26.00" cy="28.52" rx="7.20" ry="3.08" fill="#fff" opacity="0.2"/><ellipse cx="38.80" cy="29.62" rx="7.00" ry="8.50" fill="#000" opacity="0.18"/><path d="M21.20 39.52 L18.55 49.52" stroke="currentColor" stroke-width="3.2" stroke-linecap="round"/><path d="M21.20 39.52 L18.55 49.52" stroke="rgba(12,18,16,0.55)" stroke-width="4.6" stroke-linecap="round" opacity="0.5"/><path d="M21.20 39.52 L18.55 49.52" stroke="currentColor" stroke-width="3.2" stroke-linecap="round"/><ellipse cx="19.35" cy="49.52" rx="2.24" ry="1.44" fill="#2a2320" opacity="0.55"/><path d="M38.00 39.52 L40.65 48.55" stroke="currentColor" stroke-width="3.2" stroke-linecap="round"/><path d="M38.00 39.52 L40.65 48.55" stroke="rgba(12,18,16,0.55)" stroke-width="4.6" stroke-linecap="round" opacity="0.5"/><path d="M38.00 39.52 L40.65 48.55" stroke="currentColor" stroke-width="3.2" stroke-linecap="round"/><ellipse cx="41.45" cy="48.55" rx="2.24" ry="1.44" fill="#2a2320" opacity="0.55"/><path d="M40.0 26.5 L42.0 16.5 L46.0 25.5Z" fill="currentColor" stroke="rgba(12,18,16,0.55)" stroke-width="1.2" stroke-linejoin="round"/><path d="M42.5 24.5 l-2.0 -7 l-3.0 -2 M41.2 20.5 l2.0 -4" stroke="#e9dcc0" stroke-width="2" stroke-linecap="round" stroke-linejoin="round"/><path d="M47.5 24.5 l2.0 -7 l3.0 -2 M48.8 20.5 l-2.0 -4" stroke="#e9dcc0" stroke-width="2" stroke-linecap="round" stroke-linejoin="round"/><ellipse cx="45.00" cy="32.47" rx="9.00" ry="8.28" fill="currentColor" stroke="rgba(12,18,16,0.55)" stroke-width="1.3" /><ellipse cx="51.75" cy="35.17" rx="3.60" ry="2.59" fill="currentColor" stroke="rgba(12,18,16,0.55)" stroke-width="1.3" /><ellipse cx="54.45" cy="34.09" rx="1.40" ry="1.10" fill="#2a1f1f" /><ellipse cx="45.90" cy="36.52" rx="2.52" ry="1.62" fill="#ff8fa3" opacity="0.35"/><ellipse cx="47.70" cy="31.12" rx="3.30" ry="3.46" fill="#fff" stroke="rgba(12,18,16,0.55)" stroke-width="0.9"/><ellipse cx="48.86" cy="31.29" rx="1.81" ry="2.05" fill="#1b1d22" /><ellipse cx="48.20" cy="30.30" rx="0.66" ry="0.66" fill="#fff" /><path d="M49.0 37.4 q1.6 1.2 3.2 0" stroke="rgba(12,18,16,0.55)" stroke-width="0.9" stroke-linecap="round"/></g><g transform="translate(576 0)"><path d="M17.0 31.1 Q6.0 20.3 2.0 26.3" stroke="rgba(12,18,16,0.55)" stroke-width="5.2" stroke-linecap="round"/><path d="M17.0 31.1 Q6.0 20.3 2.0 26.3" stroke="currentColor" stroke-width="3.4" stroke-linecap="round"/><g opacity="0.7"><path d="M23.20 39.19 L18.92 48.82" stroke="currentColor" stroke-width="3.2" stroke-linecap="round"/><path d="M23.20 39.19 L18.92 48.82" stroke="rgba(12,18,16,0.55)" stroke-width="4.6" stroke-linecap="round" opacity="0.5"/><path d="M23.20 39.19 L18.92 48.82" stroke="currentColor" stroke-width="3.2" stroke-linecap="round"/><ellipse cx="19.72" cy="48.82" rx="2.24" ry="1.44" fill="#2a2320" opacity="0.55"/></g><g opacity="0.7"><path d="M40.00 39.19 L44.28 49.19" stroke="currentColor" stroke-width="3.2" stroke-linecap="round"/><path d="M40.00 39.19 L44.28 49.19" stroke="rgba(12,18,16,0.55)" stroke-width="4.6" stroke-linecap="round" opacity="0.5"/><path d="M40.00 39.19 L44.28 49.19" stroke="currentColor" stroke-width="3.2" stroke-linecap="round"/><ellipse cx="45.08" cy="49.19" rx="2.24" ry="1.44" fill="#2a2320" opacity="0.55"/></g><ellipse cx="30.00" cy="33.14" rx="15.76" ry="10.84" fill="currentColor" stroke="rgba(12,18,16,0.55)" stroke-width="1.3" /><ellipse cx="31.00" cy="37.76" rx="11.52" ry="4.62" fill="#fff" opacity="0.22"/><ellipse cx="26.00" cy="28.19" rx="7.20" ry="3.08" fill="#fff" opacity="0.2"/><ellipse cx="38.80" cy="29.29" rx="7.00" ry="8.50" fill="#000" opacity="0.18"/><path d="M21.20 39.19 L16.92 48.82" stroke="currentColor" stroke-width="3.2" stroke-linecap="round"/><path d="M21.20 39.19 L16.92 48.82" stroke="rgba(12,18,16,0.55)" stroke-width="4.6" stroke-linecap="round" opacity="0.5"/><path d="M21.20 39.19 L16.92 48.82" stroke="currentColor" stroke-width="3.2" stroke-linecap="round"/><ellipse cx="17.72" cy="48.82" rx="2.24" ry="1.44" fill="#2a2320" opacity="0.55"/><path d="M38.00 39.19 L42.28 49.19" stroke="currentColor" stroke-width="3.2" stroke-linecap="round"/><path d="M38.00 39.19 L42.28 49.19" stroke="rgba(12,18,16,0.55)" stroke-width="4.6" stroke-linecap="round" opacity="0.5"/><path d="M38.00 39.19 L42.28 49.19" stroke="currentColor" stroke-width="3.2" stroke-linecap="round"/><ellipse cx="43.08" cy="49.19" rx="2.24" ry="1.44" fill="#2a2320" opacity="0.55"/><path d="M40.0 26.1 L42.0 16.1 L46.0 25.1Z" fill="currentColor" stroke="rgba(12,18,16,0.55)" stroke-width="1.2" stroke-linejoin="round"/><path d="M42.5 24.1 l-2.0 -7 l-3.0 -2 M41.2 20.1 l2.0 -4" stroke="#e9dcc0" stroke-width="2" stroke-linecap="round" stroke-linejoin="round"/><path d="M47.5 24.1 l2.0 -7 l3.0 -2 M48.8 20.1 l-2.0 -4" stroke="#e9dcc0" stroke-width="2" stroke-linecap="round" stroke-linejoin="round"/><ellipse cx="45.00" cy="32.14" rx="9.00" ry="8.28" fill="currentColor" stroke="rgba(12,18,16,0.55)" stroke-width="1.3" /><ellipse cx="51.75" cy="34.84" rx="3.60" ry="2.59" fill="currentColor" stroke="rgba(12,18,16,0.55)" stroke-width="1.3" /><ellipse cx="54.45" cy="33.76" rx="1.40" ry="1.10" fill="#2a1f1f" /><ellipse cx="45.90" cy="36.19" rx="2.52" ry="1.62" fill="#ff8fa3" opacity="0.35"/><ellipse cx="47.70" cy="30.79" rx="3.30" ry="3.46" fill="#fff" stroke="rgba(12,18,16,0.55)" stroke-width="0.9"/><ellipse cx="48.86" cy="30.96" rx="1.81" ry="2.05" fill="#1b1d22" /><ellipse cx="48.20" cy="29.97" rx="0.66" ry="0.66" fill="#fff" /><path d="M49.0 37.1 q1.6 1.2 3.2 0" stroke="rgba(12,18,16,0.55)" stroke-width="0.9" stroke-linecap="round"/></g></svg>