<svg xmlns="http://www.w3.org/2000/svg" width="1024" height="64" viewBox="0 0 1024 64" fill="none"><defs><filter id="creature_flying-soft-shadow" x="-40%" y="-40%" width="180%" height="180%"><feGaussianBlur in="SourceAlpha" stdDeviation="1.2" /><feOffset dx="0.5" dy="1" result="offsetblur" /><feComponentTransfer><feFuncA type="linear" slope="0.26" /></feComponentTransfer><feMerge><feMergeNode /><feMergeNode in="SourceGraphic" /></feMerge></filter></defs><g transform="translate(0 0)">

    <rect x="0" y="0" width="64" height="64" fill="none"/>
    <ellipse cx="32" cy="48.64" rx="14" ry="3.5" fill="rgba(0,0,0,0.24)"/>

    <path d="M 23 32.72
             Q 2.5 16.72
               2 24.72
             Q 11 26.72
               19 38.72 Z"
          fill="currentColor" opacity="0.88"/>
    <path d="M 41 32.72
             Q 61.5 16.72
               62 24.72
             Q 53 26.72
               45 38.72 Z"
          fill="currentColor" opacity="0.88"/>
    <path d="M 14 26.72 Q 8 17.72 4 26.72" stroke="rgba(255,255,255,0.3)" stroke-width="1" fill="none"/>
    <path d="M 50 26.72 Q 56 17.72 60 26.72" stroke="rgba(255,255,255,0.3)" stroke-width="1" fill="none"/>
    <ellipse cx="32" cy="36.72" rx="11.5" ry="14" fill="currentColor" filter="url(#creature_flying-soft-shadow)"/>
    <ellipse cx="33" cy="23.72" rx="8.2" ry="7.3" fill="currentColor"/>
    <path d="M 28 48.72 Q 24 58.72 19 62.72 Q 26 59.72 32 50.72 Z" fill="currentColor" opacity="0.72"/>
    <path d="M 36 48.72 Q 40 58.72 45 62.72 Q 38 59.72 32 50.72 Z" fill="currentColor" opacity="0.72"/>
    <ellipse cx="36.8" cy="22.52" rx="2.8" ry="2.2" fill="white"/>
    <ellipse cx="37.4" cy="22.72" rx="1.25" ry="1" fill="#102033"/>
    <path d="M 31 27.72 L 26 31.22 L 33 31.92 Z" fill="rgba(255,222,112,0.84)"/>
    <ellipse cx="36" cy="32.72" rx="5.5" ry="9" fill="rgba(255,255,255,0.16)"/>
  </g><g transform="translate(64 0)">

    <rect x="0" y="0" width="64" height="64" fill="none"/>
    <ellipse cx="32" cy="48.64" rx="14" ry="3.5" fill="rgba(0,0,0,0.24)"/>

    <path d="M 23 33.4
             Q 2.69 12.43
               2 25.4
             Q 11 27.4
               19 39.4 Z"
          fill="currentColor" opacity="0.88"/>
    <path d="M 41 33.4
             Q 61.31 12.43
               62 25.4
             Q 53 27.4
               45 39.4 Z"
          fill="currentColor" opacity="0.88"/>
    <path d="M 14 27.4 Q 8 18.4 4 27.4" stroke="rgba(255,255,255,0.3)" stroke-width="1" fill="none"/>
    <path d="M 50 27.4 Q 56 18.4 60 27.4" stroke="rgba(255,255,255,0.3)" stroke-width="1" fill="none"/>
    <ellipse cx="32" cy="37.4" rx="11.5" ry="14" fill="currentColor" filter="url(#creature_flying-soft-shadow)"/>
    <ellipse cx="33" cy="24.4" rx="8.2" ry="7.3" fill="currentColor"/>
    <path d="M 28 49.4 Q 24 59.4 19 63.4 Q 26 60.4 32 51.4 Z" fill="currentColor" opacity="0.72"/>
    <path d="M 36 49.4 Q 40 59.4 45 63.4 Q 38 60.4 32 51.4 Z" fill="currentColor" opacity="0.72"/>
    <ellipse cx="36.8" cy="23.2" rx="2.8" ry="2.2" fill="white"/>
    <ellipse cx="37.4" cy="23.4" rx="1.25" ry="1" fill="#102033"/>
    <path d="M 31 28.4 L 26 31.9 L 33 32.6 Z" fill="rgba(255,222,112,0.84)"/>
    <ellipse cx="36" cy="33.4" rx="5.5" ry="9" fill="rgba(255,255,255,0.16)"/>
  </g><g transform="translate(128 0)">

    <rect x="0" y="0" width="64" height="64" fill="none"/>
    <ellipse cx="32" cy="48.64" rx="14" ry="3.5" fill="rgba(0,0,0,0.24)"/>

    <path d="M 23 33.93
             Q 3.23 8.74
               2 25.93
             Q 11 27.93
               19 39.93 Z"
          fill="currentColor" opacity="0.88"/>
    <path d="M 41 33.93
             Q 60.77 8.74
               62 25.93
             Q 53 27.93
               45 39.93 Z"
          fill="currentColor" opacity="0.88"/>
    <path d="M 14 27.93 Q 8 18.93 4 27.93" stroke="rgba(255,255,255,0.3)" stroke-width="1" fill="none"/>
    <path d="M 50 27.93 Q 56 18.93 60 27.93" stroke="rgba(255,255,255,0.3)" stroke-width="1" fill="none"/>
    <ellipse cx="32" cy="37.93" rx="11.5" ry="14" fill="currentColor" filter="url(#creature_flying-soft-shadow)"/>
    <ellipse cx="33" cy="24.93" rx="8.2" ry="7.3" fill="currentColor"/>
    <path d="M 28 49.93 Q 24 59.93 19 63.93 Q 26 60.93 32 51.93 Z" fill="currentColor" opacity="0.72"/>
    <path d="M 36 49.93 Q 40 59.93 45 63.93 Q 38 60.93 32 51.93 Z" fill="currentColor" opacity="0.72"/>
    <ellipse cx="36.8" cy="23.73" rx="2.8" ry="2.2" fill="white"/>
    <ellipse cx="37.4" cy="23.93" rx="1.25" ry="1" fill="#102033"/>
    <path d="M 31 28.93 L 26 32.43 L 33 33.13 Z" fill="rgba(255,222,112,0.84)"/>
    <ellipse cx="36" cy="33.93" rx="5.5" ry="9" fill="rgba(255,255,255,0.16)"/>
  </g><g transform="translate(192 0)">

    <rect x="0" y="0" width="64" height="64" fill="none"/>
    <ellipse cx="32" cy="48.64" rx="14" ry="3.5" fill="rgba(0,0,0,0.24)"/>

    <path d="M 23 34.2
             Q 4.04 6.19
               2 26.2
             Q 11 28.2
               19 40.2 Z"
          fill="currentColor" opacity="0.88"/>
    <path d="M 41 34.2
             Q 59.96 6.19
               62 26.2
             Q 53 28.2
               45 40.2 Z"
          fill="currentColor" opacity="0.88"/>
    <path d="M 14 28.2 Q 8 19.2 4 28.2" stroke="rgba(255,255,255,0.3)" stroke-width="1" fill="none"/>
    <path d="M 50 28.2 Q 56 19.2 60 28.2" stroke="rgba(255,255,255,0.3)" stroke-width="1" fill="none"/>
    <ellipse cx="32" cy="38.2" rx="11.5" ry="14" fill="currentColor" filter="url(#creature_flying-soft-shadow)"/>
    <ellipse cx="33" cy="25.2" rx="8.2" ry="7.3" fill="currentColor"/>
    <path d="M 28 50.2 Q 24 60.2 19 64.2 Q 26 61.2 32 52.2 Z" fill="currentColor" opacity="0.72"/>
    <path d="M 36 50.2 Q 40 60.2 45 64.2 Q 38 61.2 32 52.2 Z" fill="currentColor" opacity="0.72"/>
    <ellipse cx="36.8" cy="24" rx="2.8" ry="2.2" fill="white"/>
    <ellipse cx="37.4" cy="24.2" rx="1.25" ry="1" fill="#102033"/>
    <path d="M 31 29.2 L 26 32.7 L 33 33.4 Z" fill="rgba(255,222,112,0.84)"/>
    <ellipse cx="36" cy="34.2" rx="5.5" ry="9" fill="rgba(255,255,255,0.16)"/>
  </g><g transform="translate(256 0)">

    <rect x="0" y="0" width="64" height="64" fill="none"/>
    <ellipse cx="32" cy="48.64" rx="14" ry="3.5" fill="rgba(0,0,0,0.24)"/>

    <path d="M 23 34.15
             Q 5 5.15
               2 26.15
             Q 11 28.15
               19 40.15 Z"
          fill="currentColor" opacity="0.88"/>
    <path d="M 41 34.15
             Q 59 5.15
               62 26.15
             Q 53 28.15
               45 40.15 Z"
          fill="currentColor" opacity="0.88"/>
    <path d="M 14 28.15 Q 8 19.15 4 28.15" stroke="rgba(255,255,255,0.3)" stroke-width="1" fill="none"/>
    <path d="M 50 28.15 Q 56 19.15 60 28.15" stroke="rgba(255,255,255,0.3)" stroke-width="1" fill="none"/>
    <ellipse cx="32" cy="38.15" rx="11.5" ry="14" fill="currentColor" filter="url(#creature_flying-soft-shadow)"/>
    <ellipse cx="33" cy="25.15" rx="8.2" ry="7.3" fill="currentColor"/>
    <path d="M 28 50.15 Q 24 60.15 19 64.15 Q 26 61.15 32 52.15 Z" fill="currentColor" opacity="0.72"/>
    <path d="M 36 50.15 Q 40 60.15 45 64.15 Q 38 61.15 32 52.15 Z" fill="currentColor" opacity="0.72"/>
    <ellipse cx="36.8" cy="23.95" rx="2.8" ry="2.2" fill="white"/>
    <ellipse cx="37.4" cy="24.15" rx="1.25" ry="1" fill="#102033"/>
    <path d="M 31 29.15 L 26 32.65 L 33 33.35 Z" fill="rgba(255,222,112,0.84)"/>
    <ellipse cx="36" cy="34.15" rx="5.5" ry="9" fill="rgba(255,255,255,0.16)"/>
  </g><g transform="translate(320 0)">

    <rect x="0" y="0" width="64" height="64" fill="none"/>
    <ellipse cx="32" cy="48.64" rx="14" ry="3.5" fill="rgba(0,0,0,0.24)"/>

    <path d="M 23 33.78
             Q 5.96 5.77
               2 25.78
             Q 11 27.78
               19 39.78 Z"
          fill="currentColor" opacity="0.88"/>
    <path d="M 41 33.78
             Q 58.04 5.77
               62 25.78
             Q 53 27.78
               45 39.78 Z"
          fill="currentColor" opacity="0.88"/>
    <path d="M 14 27.78 Q 8 18.78 4 27.78" stroke="rgba(255,255,255,0.3)" stroke-width="1" fill="none"/>
    <path d="M 50 27.78 Q 56 18.78 60 27.78" stroke="rgba(255,255,255,0.3)" stroke-width="1" fill="none"/>
    <ellipse cx="32" cy="37.78" rx="11.5" ry="14" fill="currentColor" filter="url(#creature_flying-soft-shadow)"/>
    <ellipse cx="33" cy="24.78" rx="8.2" ry="7.3" fill="currentColor"/>
    <path d="M 28 49.78 Q 24 59.78 19 63.78 Q 26 60.78 32 51.78 Z" fill="currentColor" opacity="0.72"/>
    <path d="M 36 49.78 Q 40 59.78 45 63.78 Q 38 60.78 32 51.78 Z" fill="currentColor" opacity="0.72"/>
    <ellipse cx="36.8" cy="23.58" rx="2.8" ry="2.2" fill="white"/>
    <ellipse cx="37.4" cy="23.78" rx="1.25" ry="1" fill="#102033"/>
    <path d="M 31 28.78 L 26 32.28 L 33 32.98 Z" fill="rgba(255,222,112,0.84)"/>
    <ellipse cx="36" cy="33.78" rx="5.5" ry="9" fill="rgba(255,255,255,0.16)"/>
  </g><g transform="translate(384 0)">

    <rect x="0" y="0" width="64" height="64" fill="none"/>
    <ellipse cx="32" cy="48.64" rx="14" ry="3.5" fill="rgba(0,0,0,0.24)"/>

    <path d="M 23 33.18
             Q 6.77 7.99
               2 25.18
             Q 11 27.18
               19 39.18 Z"
          fill="currentColor" opacity="0.88"/>
    <path d="M 41 33.18
             Q 57.23 7.99
               62 25.18
             Q 53 27.18
               45 39.18 Z"
          fill="currentColor" opacity="0.88"/>
    <path d="M 14 27.18 Q 8 18.18 4 27.18" stroke="rgba(255,255,255,0.3)" stroke-width="1" fill="none"/>
    <path d="M 50 27.18 Q 56 18.18 60 27.18" stroke="rgba(255,255,255,0.3)" stroke-width="1" fill="none"/>
    <ellipse cx="32" cy="37.18" rx="11.5" ry="14" fill="currentColor" filter="url(#creature_flying-soft-shadow)"/>
    <ellipse cx="33" cy="24.18" rx="8.2" ry="7.3" fill="currentColor"/>
    <path d="M 28 49.18 Q 24 59.18 19 63.18 Q 26 60.18 32 51.18 Z" fill="currentColor" opacity="0.72"/>
    <path d="M 36 49.18 Q 40 59.18 45 63.18 Q 38 60.18 32 51.18 Z" fill="currentColor" opacity="0.72"/>
    <ellipse cx="36.8" cy="22.98" rx="2.8" ry="2.2" fill="white"/>
    <ellipse cx="37.4" cy="23.18" rx="1.25" ry="1" fill="#102033"/>
    <path d="M 31 28.18 L 26 31.68 L 33 32.38 Z" fill="rgba(255,222,112,0.84)"/>
    <ellipse cx="36" cy="33.18" rx="5.5" ry="9" fill="rgba(255,255,255,0.16)"/>
  </g><g transform="translate(448 0)">

    <rect x="0" y="0" width="64" height="64" fill="none"/>
    <ellipse cx="32" cy="48.64" rx="14" ry="3.5" fill="rgba(0,0,0,0.24)"/>

    <path d="M 23 32.49
             Q 7.31 11.51
               2 24.49
             Q 11 26.49
               19 38.49 Z"
          fill="currentColor" opacity="0.88"/>
    <path d="M 41 32.49
             Q 56.69 11.51
               62 24.49
             Q 53 26.49
               45 38.49 Z"
          fill="currentColor" opacity="0.88"/>
    <path d="M 14 26.49 Q 8 17.49 4 26.49" stroke="rgba(255,255,255,0.3)" stroke-width="1" fill="none"/>
    <path d="M 50 26.49 Q 56 17.49 60 26.49" stroke="rgba(255,255,255,0.3)" stroke-width="1" fill="none"/>
    <ellipse cx="32" cy="36.49" rx="11.5" ry="14" fill="currentColor" filter="url(#creature_flying-soft-shadow)"/>
    <ellipse cx="33" cy="23.49" rx="8.2" ry="7.3" fill="currentColor"/>
    <path d="M 28 48.49 Q 24 58.49 19 62.49 Q 26 59.49 32 50.49 Z" fill="currentColor" opacity="0.72"/>
    <path d="M 36 48.49 Q 40 58.49 45 62.49 Q 38 59.49 32 50.49 Z" fill="currentColor" opacity="0.72"/>
    <ellipse cx="36.8" cy="22.29" rx="2.8" ry="2.2" fill="white"/>
    <ellipse cx="37.4" cy="22.49" rx="1.25" ry="1" fill="#102033"/>
    <path d="M 31 27.49 L 26 30.99 L 33 31.69 Z" fill="rgba(255,222,112,0.84)"/>
    <ellipse cx="36" cy="32.49" rx="5.5" ry="9" fill="rgba(255,255,255,0.16)"/>
  </g><g transform="translate(512 0)">

    <rect x="0" y="0" width="64" height="64" fill="none"/>
    <ellipse cx="32" cy="48.64" rx="14" ry="3.5" fill="rgba(0,0,0,0.24)"/>

    <path d="M 23 31.84
             Q 7.5 15.84
               2 23.84
             Q 11 25.84
               19 37.84 Z"
          fill="currentColor" opacity="0.88"/>
    <path d="M 41 31.84
             Q 56.5 15.84
               62 23.84
             Q 53 25.84
               45 37.84 Z"
          fill="currentColor" opacity="0.88"/>
    <path d="M 14 25.84 Q 8 16.84 4 25.84" stroke="rgba(255,255,255,0.3)" stroke-width="1" fill="none"/>
    <path d="M 50 25.84 Q 56 16.84 60 25.84" stroke="rgba(255,255,255,0.3)" stroke-width="1" fill="none"/>
    <ellipse cx="32" cy="35.84" rx="11.5" ry="14" fill="currentColor" filter="url(#creature_flying-soft-shadow)"/>
    <ellipse cx="33" cy="22.84" rx="8.2" ry="7.3" fill="currentColor"/>
    <path d="M 28 47.84 Q 24 57.84 19 61.84 Q 26 58.84 32 49.84 Z" fill="currentColor" opacity="0.72"/>
    <path d="M 36 47.84 Q 40 57.84 45 61.84 Q 38 58.84 32 49.84 Z" fill="currentColor" opacity="0.72"/>
    <ellipse cx="36.8" cy="21.64" rx="2.8" ry="2.2" fill="white"/>
    <ellipse cx="37.4" cy="21.84" rx="1.25" ry="1" fill="#102033"/>
    <path d="M 31 26.84 L 26 30.34 L 33 31.04 Z" fill="rgba(255,222,112,0.84)"/>
    <ellipse cx="36" cy="31.84" rx="5.5" ry="9" fill="rgba(255,255,255,0.16)"/>
  </g><g transform="translate(576 0)">

    <rect x="0" y="0" width="64" height="64" fill="none"/>
    <ellipse cx="32" cy="48.64" rx="14" ry="3.5" fill="rgba(0,0,0,0.24)"/>

    <path d="M 23 31.38
             Q 7.31 20.36
               2 23.38
             Q 11 25.38
               19 37.38 Z"
          fill="currentColor" opacity="0.88"/>
    <path d="M 41 31.38
             Q 56.69 20.36
               62 23.38
             Q 53 25.38
               45 37.38 Z"
          fill="currentColor" opacity="0.88"/>
    <path d="M 14 25.38 Q 8 16.38 4 25.38" stroke="rgba(255,255,255,0.3)" stroke-width="1" fill="none"/>
    <path d="M 50 25.38 Q 56 16.38 60 25.38" stroke="rgba(255,255,255,0.3)" stroke-width="1" fill="none"/>
    <ellipse cx="32" cy="35.38" rx="11.5" ry="14" fill="currentColor" filter="url(#creature_flying-soft-shadow)"/>
    <ellipse cx="33" cy="22.38" rx="8.2" ry="7.3" fill="currentColor"/>
    <path d="M 28 47.38 Q 24 57.38 19 61.38 Q 26 58.38 32 49.38 Z" fill="currentColor" opacity="0.72"/>
    <path d="M 36 47.38 Q 40 57.38 45 61.38 Q 38 58.38 32 49.38 Z" fill="currentColor" opacity="0.72"/>
    <ellipse cx="36.8" cy="21.18" rx="2.8" ry="2.2" fill="white"/>
    <ellipse cx="37.4" cy="21.38" rx="1.25" ry="1" fill="#102033"/>
    <path d="M 31 26.38 L 26 29.88 L 33 30.58 Z" fill="rgba(255,222,112,0.84)"/>
    <ellipse cx="36" cy="31.38" rx="5.5" ry="9" fill="rgba(255,255,255,0.16)"/>
  </g><g transform="translate(640 0)">

    <rect x="0" y="0" width="64" height="64" fill="none"/>
    <ellipse cx="32" cy="48.64" rx="14" ry="3.5" fill="rgba(0,0,0,0.24)"/>

    <path d="M 23 31.22
             Q 6.77 24.41
               2 23.22
             Q 11 25.22
               19 37.22 Z"
          fill="currentColor" opacity="0.88"/>
    <path d="M 41 31.22
             Q 57.23 24.41
               62 23.22
             Q 53 25.22
               45 37.22 Z"
          fill="currentColor" opacity="0.88"/>
    <path d="M 14 25.22 Q 8 16.22 4 25.22" stroke="rgba(255,255,255,0.3)" stroke-width="1" fill="none"/>
    <path d="M 50 25.22 Q 56 16.22 60 25.22" stroke="rgba(255,255,255,0.3)" stroke-width="1" fill="none"/>
    <ellipse cx="32" cy="35.22" rx="11.5" ry="14" fill="currentColor" filter="url(#creature_flying-soft-shadow)"/>
    <ellipse cx="33" cy="22.22" rx="8.2" ry="7.3" fill="currentColor"/>
    <path d="M 28 47.22 Q 24 57.22 19 61.22 Q 26 58.22 32 49.22 Z" fill="currentColor" opacity="0.72"/>
    <path d="M 36 47.22 Q 40 57.22 45 61.22 Q 38 58.22 32 49.22 Z" fill="currentColor" opacity="0.72"/>
    <ellipse cx="36.8" cy="21.02" rx="2.8" ry="2.2" fill="white"/>
    <ellipse cx="37.4" cy="21.22" rx="1.25" ry="1" fill="#102033"/>
    <path d="M 31 26.22 L 26 29.72 L 33 30.42 Z" fill="rgba(255,222,112,0.84)"/>
    <ellipse cx="36" cy="31.22" rx="5.5" ry="9" fill="rgba(255,255,255,0.16)"/>
  </g><g transform="translate(704 0)">

    <rect x="0" y="0" width="64" height="64" fill="none"/>
    <ellipse cx="32" cy="48.64" rx="14" ry="3.5" fill="rgba(0,0,0,0.24)"/>

    <path d="M 23 31.38
             Q 5.96 27.39
               2 23.38
             Q 11 25.38
               19 37.38 Z"
          fill="currentColor" opacity="0.88"/>
    <path d="M 41 31.38
             Q 58.04 27.39
               62 23.38
             Q 53 25.38
               45 37.38 Z"
          fill="currentColor" opacity="0.88"/>
    <path d="M 14 25.38 Q 8 16.38 4 25.38" stroke="rgba(255,255,255,0.3)" stroke-width="1" fill="none"/>
    <path d="M 50 25.38 Q 56 16.38 60 25.38" stroke="rgba(255,255,255,0.3)" stroke-width="1" fill="none"/>
    <ellipse cx="32" cy="35.38" rx="11.5" ry="14" fill="currentColor" filter="url(#creature_flying-soft-shadow)"/>
    <ellipse cx="33" cy="22.38" rx="8.2" ry="7.3" fill="currentColor"/>
    <path d="M 28 47.38 Q 24 57.38 19 61.38 Q 26 58.38 32 49.38 Z" fill="currentColor" opacity="0.72"/>
    <path d="M 36 47.38 Q 40 57.38 45 61.38 Q 38 58.38 32 49.38 Z" fill="currentColor" opacity="0.72"/>
    <ellipse cx="36.8" cy="21.18" rx="2.8" ry="2.2" fill="white"/>
    <ellipse cx="37.4" cy="21.38" rx="1.25" ry="1" fill="#102033"/>
    <path d="M 31 26.38 L 26 29.88 L 33 30.58 Z" fill="rgba(255,222,112,0.84)"/>
    <ellipse cx="36" cy="31.38" rx="5.5" ry="9" fill="rgba(255,255,255,0.16)"/>
  </g><g transform="translate(768 0)">

    <rect x="0" y="0" width="64" height="64" fill="none"/>
    <ellipse cx="32" cy="48.64" rx="14" ry="3.5" fill="rgba(0,0,0,0.24)"/>

    <path d="M 23 31.84
             Q 5 28.84
               2 23.84
             Q 11 25.84
               19 37.84 Z"
          fill="currentColor" opacity="0.88"/>
    <path d="M 41 31.84
             Q 59 28.84
               62 23.84
             Q 53 25.84
               45 37.84 Z"
          fill="currentColor" opacity="0.88"/>
    <path d="M 14 25.84 Q 8 16.84 4 25.84" stroke="rgba(255,255,255,0.3)" stroke-width="1" fill="none"/>
    <path d="M 50 25.84 Q 56 16.84 60 25.84" stroke="rgba(255,255,255,0.3)" stroke-width="1" fill="none"/>
    <ellipse cx="32" cy="35.84" rx="11.5" ry="14" fill="currentColor" filter="url(#creature_flying-soft-shadow)"/>
    <ellipse cx="33" cy="22.84" rx="8.2" ry="7.3" fill="currentColor"/>
    <path d="M 28 47.84 Q 24 57.84 19 61.84 Q 26 58.84 32 49.84 Z" fill="currentColor" opacity="0.72"/>
    <path d="M 36 47.84 Q 40 57.84 45 61.84 Q 38 58.84 32 49.84 Z" fill="currentColor" opacity="0.72"/>
    <ellipse cx="36.8" cy="21.64" rx="2.8" ry="2.2" fill="white"/>
    <ellipse cx="37.4" cy="21.84" rx="1.25" ry="1" fill="#102033"/>
    <path d="M 31 26.84 L 26 30.34 L 33 31.04 Z" fill="rgba(255,222,112,0.84)"/>
    <ellipse cx="36" cy="31.84" rx="5.5" ry="9" fill="rgba(255,255,255,0.16)"/>
  </g><g transform="translate(832 0)">

    <rect x="0" y="0" width="64" height="64" fill="none"/>
    <ellipse cx="32" cy="48.64" rx="14" ry="3.5" fill="rgba(0,0,0,0.24)"/>

    <path d="M 23 32.49
             Q 4.04 28.5
               2 24.49
             Q 11 26.49
               19 38.49 Z"
          fill="currentColor" opacity="0.88"/>
    <path d="M 41 32.49
             Q 59.96 28.5
               62 24.49
             Q 53 26.49
               45 38.49 Z"
          fill="currentColor" opacity="0.88"/>
    <path d="M 14 26.49 Q 8 17.49 4 26.49" stroke="rgba(255,255,255,0.3)" stroke-width="1" fill="none"/>
    <path d="M 50 26.49 Q 56 17.49 60 26.49" stroke="rgba(255,255,255,0.3)" stroke-width="1" fill="none"/>
    <ellipse cx="32" cy="36.49" rx="11.5" ry="14" fill="currentColor" filter="url(#creature_flying-soft-shadow)"/>
    <ellipse cx="33" cy="23.49" rx="8.2" ry="7.3" fill="currentColor"/>
    <path d="M 28 48.49 Q 24 58.49 19 62.49 Q 26 59.49 32 50.49 Z" fill="currentColor" opacity="0.72"/>
    <path d="M 36 48.49 Q 40 58.49 45 62.49 Q 38 59.49 32 50.49 Z" fill="currentColor" opacity="0.72"/>
    <ellipse cx="36.8" cy="22.29" rx="2.8" ry="2.2" fill="white"/>
    <ellipse cx="37.4" cy="22.49" rx="1.25" ry="1" fill="#102033"/>
    <path d="M 31 27.49 L 26 30.99 L 33 31.69 Z" fill="rgba(255,222,112,0.84)"/>
    <ellipse cx="36" cy="32.49" rx="5.5" ry="9" fill="rgba(255,255,255,0.16)"/>
  </g><g transform="translate(896 0)">

    <rect x="0" y="0" width="64" height="64" fill="none"/>
    <ellipse cx="32" cy="48.64" rx="14" ry="3.5" fill="rgba(0,0,0,0.24)"/>

    <path d="M 23 33.18
             Q 3.23 26.38
               2 25.18
             Q 11 27.18
               19 39.18 Z"
          fill="currentColor" opacity="0.88"/>
    <path d="M 41 33.18
             Q 60.77 26.38
               62 25.18
             Q 53 27.18
               45 39.18 Z"
          fill="currentColor" opacity="0.88"/>
    <path d="M 14 27.18 Q 8 18.18 4 27.18" stroke="rgba(255,255,255,0.3)" stroke-width="1" fill="none"/>
    <path d="M 50 27.18 Q 56 18.18 60 27.18" stroke="rgba(255,255,255,0.3)" stroke-width="1" fill="none"/>
    <ellipse cx="32" cy="37.18" rx="11.5" ry="14" fill="currentColor" filter="url(#creature_flying-soft-shadow)"/>
    <ellipse cx="33" cy="24.18" rx="8.2" ry="7.3" fill="currentColor"/>
    <path d="M 28 49.18 Q 24 59.18 19 63.18 Q 26 60.18 32 51.18 Z" fill="currentColor" opacity="0.72"/>
    <path d="M 36 49.18 Q 40 59.18 45 63.18 Q 38 60.18 32 51.18 Z" fill="currentColor" opacity="0.72"/>
    <ellipse cx="36.8" cy="22.98" rx="2.8" ry="2.2" fill="white"/>
    <ellipse cx="37.4" cy="23.18" rx="1.25" ry="1" fill="#102033"/>
    <path d="M 31 28.18 L 26 31.68 L 33 32.38 Z" fill="rgba(255,222,112,0.84)"/>
    <ellipse cx="36" cy="33.18" rx="5.5" ry="9" fill="rgba(255,255,255,0.16)"/>
  </g><g transform="translate(960 0)">

    <rect x="0" y="0" width="64" height="64" fill="none"/>
    <ellipse cx="32" cy="48.64" rx="14" ry="3.5" fill="rgba(0,0,0,0.24)"/>

    <path d="M 23 33.78
             Q 2.69 22.76
               2 25.78
             Q 11 27.78
               19 39.78 Z"
          fill="currentColor" opacity="0.88"/>
    <path d="M 41 33.78
             Q 61.31 22.76
               62 25.78
             Q 53 27.78
               45 39.78 Z"
          fill="currentColor" opacity="0.88"/>
    <path d="M 14 27.78 Q 8 18.78 4 27.78" stroke="rgba(255,255,255,0.3)" stroke-width="1" fill="none"/>
    <path d="M 50 27.78 Q 56 18.78 60 27.78" stroke="rgba(255,255,255,0.3)" stroke-width="1" fill="none"/>
    <ellipse cx="32" cy="37.78" rx="11.5" ry="14" fill="currentColor" filter="url(#creature_flying-soft-shadow)"/>
    <ellipse cx="33" cy="24.78" rx="8.2" ry="7.3" fill="currentColor"/>
    <path d="M 28 49.78 Q 24 59.78 19 63.78 Q 26 60.78 32 51.78 Z" fill="currentColor" opacity="0.72"/>
    <path d="M 36 49.78 Q 40 59.78 45 63.78 Q 38 60.78 32 51.78 Z" fill="currentColor" opacity="0.72"/>
    <ellipse cx="36.8" cy="23.58" rx="2.8" ry="2.2" fill="white"/>
    <ellipse cx="37.4" cy="23.78" rx="1.25" ry="1" fill="#102033"/>
    <path d="M 31 28.78 L 26 32.28 L 33 32.98 Z" fill="rgba(255,222,112,0.84)"/>
    <ellipse cx="36" cy="33.78" rx="5.5" ry="9" fill="rgba(255,255,255,0.16)"/>
  </g></svg>
