<svg xmlns="http://www.w3.org/2000/svg" width="640" height="64" viewBox="0 0 640 64" fill="none"><defs><filter id="creature_elder-soft-shadow" x="-40%" y="-40%" width="180%" height="180%"><feGaussianBlur in="SourceAlpha" stdDeviation="1.2" /><feOffset dx="0.5" dy="1" result="offsetblur" /><feComponentTransfer><feFuncA type="linear" slope="0.26" /></feComponentTransfer><feMerge><feMergeNode /><feMergeNode in="SourceGraphic" /></feMerge></filter></defs><g transform="translate(0 0)">
    <rect x="0" y="0" width="64" height="64" fill="none"/>
    
    <path d="
      M 11.59 35.46
      Q 7 31.35
        1.39 34.99
      Q 7.3 39.57
        11.59 35.46
      Z
    " fill="currentColor" opacity="0.9"/>
    <path d="
      M 26.59 21.74
      L 23.69 16.06
      L 32.39 20.76
      Z
    " fill="currentColor" opacity="0.78"/>
    
    <ellipse cx="30.72" cy="34.86" rx="20.63" ry="15.12" fill="currentColor" filter="url(#creature_elder-soft-shadow)"/>
    
    
    
      <path d="M 31.34 37.86 Q 34.02 38.46 36.5 37.56" stroke="currentColor" stroke-width="0.7" opacity="0.3" fill="none"/>
      <path d="M 28.24 40.36 Q 31.96 41.06 34.43 40.46" stroke="currentColor" stroke-width="0.65" opacity="0.26" fill="none"/>
    
    
    
    <path d="
      M 36.08 38.79
      Q 39.59 40.91
        43.1 37.88
    " stroke="rgba(0,0,0,0.35)" stroke-width="0.8" fill="none" />
  
    
    
    <ellipse cx="39.59" cy="29.72" rx="4.1" ry="3.2" fill="white" />
    <ellipse cx="40.66" cy="29.72" rx="1.8" ry="1.45" fill="#171717" />
    <circle cx="39.86" cy="28.82" r="0.85" fill="white" opacity="0.9" />
  
    
    
    
  </g><g transform="translate(64 0)">
    <rect x="0" y="0" width="64" height="64" fill="none"/>
    
    <path d="
      M 11.69 34.91
      Q 7.1 30.85
        1.49 35.96
      Q 7.41 38.96
        11.69 34.91
      Z
    " fill="currentColor" opacity="0.9"/>
    <path d="
      M 26.61 21.13
      L 23.71 15.69
      L 32.41 20.15
      Z
    " fill="currentColor" opacity="0.78"/>
    
    <ellipse cx="30.72" cy="34.31" rx="20.53" ry="15.18" fill="currentColor" filter="url(#creature_elder-soft-shadow)"/>
    
    
    
      <path d="M 31.34 37.31 Q 34 37.91 36.47 37.01" stroke="currentColor" stroke-width="0.7" opacity="0.3" fill="none"/>
      <path d="M 28.26 39.81 Q 31.95 40.51 34.41 39.91" stroke="currentColor" stroke-width="0.65" opacity="0.26" fill="none"/>
    
    
    
    <path d="
      M 36.06 38.25
      Q 39.55 40.38
        43.04 37.34
    " stroke="rgba(0,0,0,0.35)" stroke-width="0.8" fill="none" />
  
    
    
    <ellipse cx="39.55" cy="29.15" rx="4.1" ry="1.99" fill="white" />
    <ellipse cx="40.36" cy="29.31" rx="1.8" ry="0.96" fill="#171717" />
    <circle cx="39.56" cy="28.41" r="0.85" fill="white" opacity="0.9" />
  
    
    
    
  </g><g transform="translate(128 0)">
    <rect x="0" y="0" width="64" height="64" fill="none"/>
    
    <path d="
      M 11.91 34.45
      Q 7.32 30.57
        1.71 35.69
      Q 7.63 38.33
        11.91 34.45
      Z
    " fill="currentColor" opacity="0.9"/>
    <path d="
      M 26.66 20.55
      L 23.76 16.3
      L 32.46 19.57
      Z
    " fill="currentColor" opacity="0.78"/>
    
    <ellipse cx="30.72" cy="33.85" rx="20.31" ry="15.3" fill="currentColor" filter="url(#creature_elder-soft-shadow)"/>
    
    
    
      <path d="M 31.33 36.85 Q 33.97 37.45 36.41 36.55" stroke="currentColor" stroke-width="0.7" opacity="0.3" fill="none"/>
      <path d="M 28.28 39.35 Q 31.94 40.05 34.37 39.45" stroke="currentColor" stroke-width="0.65" opacity="0.26" fill="none"/>
    
    
    
    <path d="
      M 36 37.82
      Q 39.45 39.97
        42.9 36.91
    " stroke="rgba(0,0,0,0.35)" stroke-width="0.8" fill="none" />
  
    
    
    <ellipse cx="39.45" cy="28.65" rx="4.1" ry="3.2" fill="white" />
    <ellipse cx="40.08" cy="28.83" rx="1.8" ry="1.45" fill="#171717" />
    <circle cx="39.28" cy="27.93" r="0.85" fill="white" opacity="0.9" />
  
    
    
    
  </g><g transform="translate(192 0)">
    <rect x="0" y="0" width="64" height="64" fill="none"/>
    
    <path d="
      M 12.14 34.26
      Q 7.55 30.47
        1.94 34.12
      Q 7.85 38.05
        12.14 34.26
      Z
    " fill="currentColor" opacity="0.9"/>
    <path d="
      M 26.7 20.24
      L 23.8 16.04
      L 32.5 19.26
      Z
    " fill="currentColor" opacity="0.78"/>
    
    <ellipse cx="30.72" cy="33.66" rx="20.08" ry="15.42" fill="currentColor" filter="url(#creature_elder-soft-shadow)"/>
    
    
    
      <path d="M 31.32 36.66 Q 33.93 37.26 36.34 36.36" stroke="currentColor" stroke-width="0.7" opacity="0.3" fill="none"/>
      <path d="M 28.31 39.16 Q 31.92 39.86 34.33 39.26" stroke="currentColor" stroke-width="0.65" opacity="0.26" fill="none"/>
    
    
    
    <path d="
      M 35.94 37.67
      Q 39.36 39.83
        42.77 36.74
    " stroke="rgba(0,0,0,0.35)" stroke-width="0.8" fill="none" />
  
    
    
    <ellipse cx="39.36" cy="28.42" rx="4.1" ry="3.2" fill="white" />
    <ellipse cx="39.98" cy="28.44" rx="1.8" ry="1.45" fill="#171717" />
    <circle cx="39.18" cy="27.54" r="0.85" fill="white" opacity="0.9" />
  
    
    
    
  </g><g transform="translate(256 0)">
    <rect x="0" y="0" width="64" height="64" fill="none"/>
    
    <path d="
      M 12.25 34.42
      Q 7.66 30.6
        2.05 33.07
      Q 7.97 38.24
        12.25 34.42
      Z
    " fill="currentColor" opacity="0.9"/>
    <path d="
      M 26.73 20.34
      L 23.83 14.96
      L 32.53 19.36
      Z
    " fill="currentColor" opacity="0.78"/>
    
    <ellipse cx="30.72" cy="33.82" rx="19.97" ry="15.48" fill="currentColor" filter="url(#creature_elder-soft-shadow)"/>
    
    
    
      <path d="M 31.32 36.82 Q 33.91 37.42 36.31 36.52" stroke="currentColor" stroke-width="0.7" opacity="0.3" fill="none"/>
      <path d="M 28.32 39.32 Q 31.92 40.02 34.31 39.42" stroke="currentColor" stroke-width="0.65" opacity="0.26" fill="none"/>
    
    
    
    <path d="
      M 35.91 37.84
      Q 39.31 40.01
        42.7 36.91
    " stroke="rgba(0,0,0,0.35)" stroke-width="0.8" fill="none" />
  
    
    
    <ellipse cx="39.31" cy="28.55" rx="4.1" ry="3.2" fill="white" />
    <ellipse cx="40.1" cy="28.4" rx="1.8" ry="1.45" fill="#171717" />
    <circle cx="39.3" cy="27.5" r="0.85" fill="white" opacity="0.9" />
  
    
    
    
  </g><g transform="translate(320 0)">
    <rect x="0" y="0" width="64" height="64" fill="none"/>
    
    <path d="
      M 12.2 34.86
      Q 7.61 30.99
        2 34
      Q 7.92 38.73
        12.2 34.86
      Z
    " fill="currentColor" opacity="0.9"/>
    <path d="
      M 26.72 20.8
      L 23.82 15.09
      L 32.52 19.82
      Z
    " fill="currentColor" opacity="0.78"/>
    
    <ellipse cx="30.72" cy="34.26" rx="20.02" ry="15.45" fill="currentColor" filter="url(#creature_elder-soft-shadow)"/>
    
    
    
      <path d="M 31.32 37.26 Q 33.92 37.86 36.33 36.96" stroke="currentColor" stroke-width="0.7" opacity="0.3" fill="none"/>
      <path d="M 28.32 39.76 Q 31.92 40.46 34.32 39.86" stroke="currentColor" stroke-width="0.65" opacity="0.26" fill="none"/>
    
    
    
    <path d="
      M 35.93 38.28
      Q 39.33 40.44
        42.73 37.35
    " stroke="rgba(0,0,0,0.35)" stroke-width="0.8" fill="none" />
  
    
    
    <ellipse cx="39.33" cy="29" rx="4.1" ry="3.2" fill="white" />
    <ellipse cx="40.38" cy="28.81" rx="1.8" ry="1.45" fill="#171717" />
    <circle cx="39.58" cy="27.91" r="0.85" fill="white" opacity="0.9" />
  
    
    
    
  </g><g transform="translate(384 0)">
    <rect x="0" y="0" width="64" height="64" fill="none"/>
    
    <path d="
      M 12.01 35.41
      Q 7.42 31.5
        1.81 36.13
      Q 7.72 39.33
        12.01 35.41
      Z
    " fill="currentColor" opacity="0.9"/>
    <path d="
      M 26.68 21.47
      L 23.78 16.84
      L 32.48 20.49
      Z
    " fill="currentColor" opacity="0.78"/>
    
    <ellipse cx="30.72" cy="34.81" rx="20.21" ry="15.35" fill="currentColor" filter="url(#creature_elder-soft-shadow)"/>
    
    
    
      <path d="M 31.33 37.81 Q 33.95 38.41 36.38 37.51" stroke="currentColor" stroke-width="0.7" opacity="0.3" fill="none"/>
      <path d="M 28.29 40.31 Q 31.93 41.01 34.36 40.41" stroke="currentColor" stroke-width="0.65" opacity="0.26" fill="none"/>
    
    
    
    <path d="
      M 35.97 38.81
      Q 39.41 40.95
        42.85 37.88
    " stroke="rgba(0,0,0,0.35)" stroke-width="0.8" fill="none" />
  
    
    
    <ellipse cx="39.41" cy="29.6" rx="4.1" ry="2.14" fill="white" />
    <ellipse cx="40.66" cy="29.55" rx="1.8" ry="1.02" fill="#171717" />
    <circle cx="39.86" cy="28.65" r="0.85" fill="white" opacity="0.9" />
  
    
    
    
  </g><g transform="translate(448 0)">
    <rect x="0" y="0" width="64" height="64" fill="none"/>
    
    <path d="
      M 11.77 35.87
      Q 7.18 31.9
        1.57 37.26
      Q 7.49 39.85
        11.77 35.87
      Z
    " fill="currentColor" opacity="0.9"/>
    <path d="
      M 26.63 22.05
      L 23.73 18.04
      L 32.43 21.07
      Z
    " fill="currentColor" opacity="0.78"/>
    
    <ellipse cx="30.72" cy="35.27" rx="20.45" ry="15.22" fill="currentColor" filter="url(#creature_elder-soft-shadow)"/>
    
    
    
      <path d="M 31.33 38.27 Q 33.99 38.87 36.45 37.97" stroke="currentColor" stroke-width="0.7" opacity="0.3" fill="none"/>
      <path d="M 28.27 40.77 Q 31.95 41.47 34.4 40.87" stroke="currentColor" stroke-width="0.65" opacity="0.26" fill="none"/>
    
    
    
    <path d="
      M 36.04 39.23
      Q 39.51 41.36
        42.99 38.32
    " stroke="rgba(0,0,0,0.35)" stroke-width="0.8" fill="none" />
  
    
    
    <ellipse cx="39.51" cy="30.1" rx="4.1" ry="3.2" fill="white" />
    <ellipse cx="40.8" cy="30.24" rx="1.8" ry="1.45" fill="#171717" />
    <circle cx="40" cy="29.34" r="0.85" fill="white" opacity="0.9" />
  
    
    
    
  </g><g transform="translate(512 0)">
    <rect x="0" y="0" width="64" height="64" fill="none"/>
    
    <path d="
      M 11.61 36.06
      Q 7.02 32.04
        1.41 36.36
      Q 7.33 40.08
        11.61 36.06
      Z
    " fill="currentColor" opacity="0.9"/>
    <path d="
      M 26.6 22.33
      L 23.7 17.38
      L 32.4 21.35
      Z
    " fill="currentColor" opacity="0.78"/>
    
    <ellipse cx="30.72" cy="35.46" rx="20.61" ry="15.13" fill="currentColor" filter="url(#creature_elder-soft-shadow)"/>
    
    
    
      <path d="M 31.34 38.46 Q 34.02 39.06 36.49 38.16" stroke="currentColor" stroke-width="0.7" opacity="0.3" fill="none"/>
      <path d="M 28.25 40.96 Q 31.96 41.66 34.43 41.06" stroke="currentColor" stroke-width="0.65" opacity="0.26" fill="none"/>
    
    
    
    <path d="
      M 36.08 39.39
      Q 39.58 41.51
        43.09 38.49
    " stroke="rgba(0,0,0,0.35)" stroke-width="0.8" fill="none" />
  
    
    
    <ellipse cx="39.58" cy="30.32" rx="4.1" ry="3.2" fill="white" />
    <ellipse cx="40.73" cy="30.51" rx="1.8" ry="1.45" fill="#171717" />
    <circle cx="39.93" cy="29.61" r="0.85" fill="white" opacity="0.9" />
  
    
    
    
  </g><g transform="translate(576 0)">
    <rect x="0" y="0" width="64" height="64" fill="none"/>
    
    <path d="
      M 11.6 35.9
      Q 7.01 31.96
        1.4 34.74
      Q 7.32 39.85
        11.6 35.9
      Z
    " fill="currentColor" opacity="0.9"/>
    <path d="
      M 26.6 22.18
      L 23.7 16.38
      L 32.4 21.2
      Z
    " fill="currentColor" opacity="0.78"/>
    
    <ellipse cx="30.72" cy="35.3" rx="20.62" ry="15.13" fill="currentColor" filter="url(#creature_elder-soft-shadow)"/>
    
    
    
      <path d="M 31.34 38.3 Q 34.02 38.9 36.49 38" stroke="currentColor" stroke-width="0.7" opacity="0.3" fill="none"/>
      <path d="M 28.25 40.8 Q 31.96 41.5 34.43 40.9" stroke="currentColor" stroke-width="0.65" opacity="0.26" fill="none"/>
    
    
    
    <path d="
      M 36.08 39.24
      Q 39.59 41.35
        43.09 38.33
    " stroke="rgba(0,0,0,0.35)" stroke-width="0.8" fill="none" />
  
    
    
    <ellipse cx="39.59" cy="30.16" rx="4.1" ry="3.2" fill="white" />
    <ellipse cx="40.48" cy="30.23" rx="1.8" ry="1.45" fill="#171717" />
    <circle cx="39.68" cy="29.33" r="0.85" fill="white" opacity="0.9" />
  
    
    
    
  </g></svg>
