<svg xmlns="http://www.w3.org/2000/svg" width="1024" height="64" viewBox="0 0 1024 64" fill="none">
<defs>
<filter id="creature_burrowing-soft-shadow" x="-40%" y="-40%" width="180%" height="180%">
<feGaussianBlur in="SourceAlpha" stdDeviation="1.5" />
<feOffset dx="0.5" dy="1.5" result="offsetblur" />
<feComponentTransfer><feFuncA type="linear" slope="0.3" /></feComponentTransfer>
<feMerge><feMergeNode /><feMergeNode in="SourceGraphic" /></feMerge>
</filter>
</defs>

<!-- FRAME 0: Idle -->
<g transform="translate(0 0)">
<rect x="0" y="0" width="64" height="64" fill="none"/>
<!-- Main body (compact oval) -->
<ellipse cx="32" cy="36" rx="18" ry="14" fill="currentColor" filter="url(#creature_burrowing-soft-shadow)"/>
<!-- Head (slightly tucked) -->
<ellipse cx="32" cy="26" rx="10" ry="8" fill="currentColor"/>
<!-- Snout -->
<path d="M 26 28 Q 22 30 20 32 Q 24 30 28 28 Z" fill="currentColor" opacity="0.9"/>
<!-- Eye -->
<ellipse cx="35" cy="24" rx="2.5" ry="2" fill="white"/>
<ellipse cx="35.5" cy="24" rx="1.2" ry="1" fill="#2d1810"/>
<circle cx="35.3" cy="23.7" r="0.4" fill="white" opacity="0.9"/>
<!-- Ear -->
<path d="M 38 18 Q 42 12 44 16 Q 42 20 38 20 Z" fill="currentColor" opacity="0.8"/>
<path d="M 26 18 Q 22 12 20 16 Q 22 20 26 20 Z" fill="currentColor" opacity="0.8"/>
<!-- Front claws (curled) -->
<path d="M 18 38 Q 14 40 12 42 Q 16 40 18 38 Z" fill="currentColor" opacity="0.9"/>
<path d="M 20 40 Q 16 44 14 46 Q 18 42 20 40 Z" fill="currentColor" opacity="0.85"/>
<path d="M 46 38 Q 50 40 52 42 Q 48 40 46 38 Z" fill="currentColor" opacity="0.9"/>
<path d="M 44 40 Q 48 44 50 46 Q 46 42 44 40 Z" fill="currentColor" opacity="0.85"/>
<!-- Back legs -->
<ellipse cx="22" cy="48" rx="6" ry="4" fill="currentColor" opacity="0.85"/>
<ellipse cx="42" cy="48" rx="6" ry="4" fill="currentColor" opacity="0.85"/>
<!-- Tail (short and thick) -->
<path d="M 50 36 Q 56 34 58 36 Q 56 38 54 38 Q 56 38 52 38 Q 54 38 50 36 Z" fill="currentColor" opacity="0.8"/>
</g>

<!-- FRAME 1: Slight shift left -->
<g transform="translate(64 0)">
<rect x="0" y="0" width="64" height="64" fill="none"/>
<ellipse cx="31" cy="36" rx="18" ry="14" fill="currentColor" filter="url(#creature_burrowing-soft-shadow)"/>
<ellipse cx="31" cy="26" rx="10" ry="8" fill="currentColor"/>
<path d="M 25 28 Q 21 30 19 32 Q 23 30 27 28 Z" fill="currentColor" opacity="0.9"/>
<ellipse cx="34" cy="24" rx="2.5" ry="2" fill="white"/>
<ellipse cx="34.5" cy="24" rx="1.2" ry="1" fill="#2d1810"/>
<circle cx="34.3" cy="23.7" r="0.4" fill="white" opacity="0.9"/>
<path d="M 37 18 Q 41 12 43 16 Q 41 20 37 20 Z" fill="currentColor" opacity="0.8"/>
<path d="M 25 18 Q 21 12 19 16 Q 21 20 25 20 Z" fill="currentColor" opacity="0.8"/>
<path d="M 17 38 Q 13 40 11 42 Q 15 40 17 38 Z" fill="currentColor" opacity="0.9"/>
<path d="M 19 40 Q 15 44 13 46 Q 17 42 19 40 Z" fill="currentColor" opacity="0.85"/>
<path d="M 45 38 Q 49 40 51 42 Q 47 40 45 38 Z" fill="currentColor" opacity="0.9"/>
<path d="M 43 40 Q 47 44 49 46 Q 45 42 43 40 Z" fill="currentColor" opacity="0.85"/>
<ellipse cx="21" cy="48" rx="6" ry="4" fill="currentColor" opacity="0.85"/>
<ellipse cx="41" cy="48" rx="6" ry="4" fill="currentColor" opacity="0.85"/>
<path d="M 49 36 Q 55 34 57 36 Q 55 38 53 38 Q 55 38 51 38 Q 53 38 49 36 Z" fill="currentColor" opacity="0.8"/>
</g>

<!-- FRAME 2: Digging motion start -->
<g transform="translate(128 0)">
<rect x="0" y="0" width="64" height="64" fill="none"/>
<ellipse cx="30" cy="37" rx="18" ry="14" fill="currentColor" filter="url(#creature_burrowing-soft-shadow)"/>
<ellipse cx="30" cy="27" rx="10" ry="8" fill="currentColor"/>
<path d="M 24 29 Q 20 31 18 33 Q 22 31 26 29 Z" fill="currentColor" opacity="0.9"/>
<ellipse cx="33" cy="25" rx="2.5" ry="2" fill="white"/>
<ellipse cx="33.5" cy="25" rx="1.2" ry="1" fill="#2d1810"/>
<circle cx="33.3" cy="24.7" r="0.4" fill="white" opacity="0.9"/>
<path d="M 36 19 Q 40 13 42 17 Q 40 21 36 21 Z" fill="currentColor" opacity="0.8"/>
<path d="M 24 19 Q 20 13 18 17 Q 20 21 24 21 Z" fill="currentColor" opacity="0.8"/>
<!-- Extended claws -->
<path d="M 16 40 Q 8 44 4 50 Q 10 46 16 42 Z" fill="currentColor" opacity="0.9"/>
<path d="M 18 42 Q 10 48 6 54 Q 12 50 18 44 Z" fill="currentColor" opacity="0.85"/>
<path d="M 20 43 Q 14 50 10 56 Q 16 52 20 46 Z" fill="currentColor" opacity="0.8"/>
<path d="M 44 40 Q 52 44 56 50 Q 50 46 44 42 Z" fill="currentColor" opacity="0.9"/>
<path d="M 42 42 Q 50 48 54 54 Q 48 50 42 44 Z" fill="currentColor" opacity="0.85"/>
<path d="M 40 43 Q 48 50 52 56 Q 46 52 40 46 Z" fill="currentColor" opacity="0.8"/>
<ellipse cx="20" cy="49" rx="6" ry="4" fill="currentColor" opacity="0.85"/>
<ellipse cx="40" cy="49" rx="6" ry="4" fill="currentColor" opacity="0.85"/>
<path d="M 48 37 Q 54 35 56 37 Q 54 39 52 39 Q 54 39 50 39 Q 52 39 48 37 Z" fill="currentColor" opacity="0.8"/>
</g>

<!-- FRAME 3: Digging thrust -->
<g transform="translate(192 0)">
<rect x="0" y="0" width="64" height="64" fill="none"/>
<ellipse cx="28" cy="38" rx="18" ry="14" fill="currentColor" filter="url(#creature_burrowing-soft-shadow)"/>
<ellipse cx="28" cy="28" rx="10" ry="8" fill="currentColor"/>
<path d="M 22 30 Q 18 32 16 34 Q 20 32 24 30 Z" fill="currentColor" opacity="0.9"/>
<ellipse cx="31" cy="26" rx="2.5" ry="2" fill="white"/>
<ellipse cx="31.5" cy="26" rx="1.2" ry="1" fill="#2d1810"/>
<circle cx="31.3" cy="25.7" r="0.4" fill="white" opacity="0.9"/>
<path d="M 34 20 Q 38 14 40 18 Q 38 22 34 22 Z" fill="currentColor" opacity="0.8"/>
<path d="M 22 20 Q 18 14 16 18 Q 18 22 22 22 Z" fill="currentColor" opacity="0.8"/>
<!-- Full extended claws (thrust) -->
<path d="M 14 42 Q 4 48 -2 56 Q 6 50 14 44 Z" fill="currentColor" opacity="0.9"/>
<path d="M 16 44 Q 6 52 0 60 Q 8 54 16 46 Z" fill="currentColor" opacity="0.85"/>
<path d="M 18 45 Q 10 54 4 62 Q 12 56 18 48 Z" fill="currentColor" opacity="0.8"/>
<path d="M 42 42 Q 52 48 58 56 Q 50 50 42 44 Z" fill="currentColor" opacity="0.9"/>
<path d="M 40 44 Q 50 52 56 60 Q 48 54 40 46 Z" fill="currentColor" opacity="0.85"/>
<path d="M 38 45 Q 48 54 54 62 Q 46 56 38 48 Z" fill="currentColor" opacity="0.8"/>
<ellipse cx="18" cy="50" rx="6" ry="4" fill="currentColor" opacity="0.85"/>
<ellipse cx="38" cy="50" rx="6" ry="4" fill="currentColor" opacity="0.85"/>
<path d="M 46 38 Q 52 36 54 38 Q 52 40 50 40 Q 52 40 48 40 Q 50 40 46 38 Z" fill="currentColor" opacity="0.8"/>
</g>

<!-- FRAME 4: Dig peak -->
<g transform="translate(256 0)">
<rect x="0" y="0" width="64" height="64" fill="none"/>
<ellipse cx="26" cy="39" rx="18" ry="14" fill="currentColor" filter="url(#creature_burrowing-soft-shadow)"/>
<ellipse cx="26" cy="29" rx="10" ry="8" fill="currentColor"/>
<path d="M 20 31 Q 16 33 14 35 Q 18 33 22 31 Z" fill="currentColor" opacity="0.9"/>
<ellipse cx="29" cy="27" rx="2.5" ry="2" fill="white"/>
<ellipse cx="29.5" cy="27" rx="1.2" ry="1" fill="#2d1810"/>
<circle cx="29.3" cy="26.7" r="0.4" fill="white" opacity="0.9"/>
<path d="M 32 21 Q 36 15 38 19 Q 36 23 32 23 Z" fill="currentColor" opacity="0.8"/>
<path d="M 20 21 Q 16 15 14 19 Q 16 23 20 23 Z" fill="currentColor" opacity="0.8"/>
<!-- Dirt particles flying -->
<circle cx="6" cy="48" r="2" fill="currentColor" opacity="0.6"/>
<circle cx="2" cy="52" r="1.5" fill="currentColor" opacity="0.5"/>
<circle cx="10" cy="50" r="1.8" fill="currentColor" opacity="0.55"/>
<circle cx="58" cy="48" r="2" fill="currentColor" opacity="0.6"/>
<circle cx="62" cy="52" r="1.5" fill="currentColor" opacity="0.5"/>
<circle cx="54" cy="50" r="1.8" fill="currentColor" opacity="0.55"/>
<!-- Extended claws -->
<path d="M 12 44 Q 2 52 -4 60 Q 4 54 12 46 Z" fill="currentColor" opacity="0.9"/>
<path d="M 14 46 Q 4 56 -2 64 Q 6 58 14 48 Z" fill="currentColor" opacity="0.85"/>
<path d="M 40 44 Q 50 52 56 60 Q 48 54 40 46 Z" fill="currentColor" opacity="0.9"/>
<path d="M 38 46 Q 48 56 54 64 Q 46 58 38 48 Z" fill="currentColor" opacity="0.85"/>
<ellipse cx="16" cy="51" rx="6" ry="4" fill="currentColor" opacity="0.85"/>
<ellipse cx="36" cy="51" rx="6" ry="4" fill="currentColor" opacity="0.85"/>
<path d="M 44 39 Q 50 37 52 39 Q 50 41 48 41 Q 50 41 46 41 Q 48 41 44 39 Z" fill="currentColor" opacity="0.8"/>
</g>

<!-- FRAME 5: Dig return -->
<g transform="translate(320 0)">
<rect x="0" y="0" width="64" height="64" fill="none"/>
<ellipse cx="28" cy="38" rx="18" ry="14" fill="currentColor" filter="url(#creature_burrowing-soft-shadow)"/>
<ellipse cx="28" cy="28" rx="10" ry="8" fill="currentColor"/>
<path d="M 22 30 Q 18 32 16 34 Q 20 32 24 30 Z" fill="currentColor" opacity="0.9"/>
<ellipse cx="31" cy="26" rx="2.5" ry="2" fill="white"/>
<ellipse cx="31.5" cy="26" rx="1.2" ry="1" fill="#2d1810"/>
<circle cx="31.3" cy="25.7" r="0.4" fill="white" opacity="0.9"/>
<path d="M 34 20 Q 38 14 40 18 Q 38 22 34 22 Z" fill="currentColor" opacity="0.8"/>
<path d="M 22 20 Q 18 14 16 18 Q 18 22 22 22 Z" fill="currentColor" opacity="0.8"/>
<path d="M 14 42 Q 6 48 2 54 Q 8 50 14 44 Z" fill="currentColor" opacity="0.9"/>
<path d="M 16 44 Q 8 52 4 58 Q 10 54 16 46 Z" fill="currentColor" opacity="0.85"/>
<path d="M 42 42 Q 50 48 54 54 Q 48 50 42 44 Z" fill="currentColor" opacity="0.9"/>
<path d="M 40 44 Q 48 52 52 58 Q 46 54 40 46 Z" fill="currentColor" opacity="0.85"/>
<ellipse cx="18" cy="50" rx="6" ry="4" fill="currentColor" opacity="0.85"/>
<ellipse cx="38" cy="50" rx="6" ry="4" fill="currentColor" opacity="0.85"/>
<path d="M 46 38 Q 52 36 54 38 Q 52 40 50 40 Q 52 40 48 40 Q 50 40 46 38 Z" fill="currentColor" opacity="0.8"/>
</g>

<!-- FRAME 6: Retracting claws -->
<g transform="translate(384 0)">
<rect x="0" y="0" width="64" height="64" fill="none"/>
<ellipse cx="30" cy="37" rx="18" ry="14" fill="currentColor" filter="url(#creature_burrowing-soft-shadow)"/>
<ellipse cx="30" cy="27" rx="10" ry="8" fill="currentColor"/>
<path d="M 24 29 Q 20 31 18 33 Q 22 31 26 29 Z" fill="currentColor" opacity="0.9"/>
<ellipse cx="33" cy="25" rx="2.5" ry="2" fill="white"/>
<ellipse cx="33.5" cy="25" rx="1.2" ry="1" fill="#2d1810"/>
<circle cx="33.3" cy="24.7" r="0.4" fill="white" opacity="0.9"/>
<path d="M 36 19 Q 40 13 42 17 Q 40 21 36 21 Z" fill="currentColor" opacity="0.8"/>
<path d="M 24 19 Q 20 13 18 17 Q 20 21 24 21 Z" fill="currentColor" opacity="0.8"/>
<path d="M 16 40 Q 10 44 8 48 Q 14 44 18 40 Z" fill="currentColor" opacity="0.9"/>
<path d="M 18 42 Q 12 48 10 52 Q 16 46 20 42 Z" fill="currentColor" opacity="0.85"/>
<path d="M 44 40 Q 50 44 52 48 Q 46 44 42 40 Z" fill="currentColor" opacity="0.9"/>
<path d="M 42 42 Q 48 48 50 52 Q 44 46 40 42 Z" fill="currentColor" opacity="0.85"/>
<ellipse cx="20" cy="49" rx="6" ry="4" fill="currentColor" opacity="0.85"/>
<ellipse cx="40" cy="49" rx="6" ry="4" fill="currentColor" opacity="0.85"/>
<path d="M 48 37 Q 54 35 56 37 Q 54 39 52 39 Q 54 39 50 39 Q 52 39 48 37 Z" fill="currentColor" opacity="0.8"/>
</g>

<!-- FRAME 7: Claws retracted -->
<g transform="translate(448 0)">
<rect x="0" y="0" width="64" height="64" fill="none"/>
<ellipse cx="31" cy="36" rx="18" ry="14" fill="currentColor" filter="url(#creature_burrowing-soft-shadow)"/>
<ellipse cx="31" cy="26" rx="10" ry="8" fill="currentColor"/>
<path d="M 25 28 Q 21 30 19 32 Q 23 30 27 28 Z" fill="currentColor" opacity="0.9"/>
<ellipse cx="34" cy="24" rx="2.5" ry="2" fill="white"/>
<ellipse cx="34.5" cy="24" rx="1.2" ry="1" fill="#2d1810"/>
<circle cx="34.3" cy="23.7" r="0.4" fill="white" opacity="0.9"/>
<path d="M 37 18 Q 41 12 43 16 Q 41 20 37 20 Z" fill="currentColor" opacity="0.8"/>
<path d="M 25 18 Q 21 12 19 16 Q 21 20 25 20 Z" fill="currentColor" opacity="0.8"/>
<path d="M 17 38 Q 15 40 14 42 Q 16 40 19 38 Z" fill="currentColor" opacity="0.9"/>
<path d="M 45 38 Q 47 40 48 42 Q 46 40 43 38 Z" fill="currentColor" opacity="0.9"/>
<ellipse cx="21" cy="48" rx="6" ry="4" fill="currentColor" opacity="0.85"/>
<ellipse cx="41" cy="48" rx="6" ry="4" fill="currentColor" opacity="0.85"/>
<path d="M 49 36 Q 55 34 57 36 Q 55 38 53 38 Q 55 38 51 38 Q 53 38 49 36 Z" fill="currentColor" opacity="0.8"/>
</g>

<!-- FRAME 8: Idle shifted right -->
<g transform="translate(512 0)">
<rect x="0" y="0" width="64" height="64" fill="none"/>
<ellipse cx="33" cy="36" rx="18" ry="14" fill="currentColor" filter="url(#creature_burrowing-soft-shadow)"/>
<ellipse cx="33" cy="26" rx="10" ry="8" fill="currentColor"/>
<path d="M 27 28 Q 23 30 21 32 Q 25 30 29 28 Z" fill="currentColor" opacity="0.9"/>
<ellipse cx="36" cy="24" rx="2.5" ry="2" fill="white"/>
<ellipse cx="36.5" cy="24" rx="1.2" ry="1" fill="#2d1810"/>
<circle cx="36.3" cy="23.7" r="0.4" fill="white" opacity="0.9"/>
<path d="M 39 18 Q 43 12 45 16 Q 43 20 39 20 Z" fill="currentColor" opacity="0.8"/>
<path d="M 27 18 Q 23 12 21 16 Q 23 20 27 20 Z" fill="currentColor" opacity="0.8"/>
<path d="M 19 38 Q 15 40 13 42 Q 17 40 19 38 Z" fill="currentColor" opacity="0.9"/>
<path d="M 21 40 Q 17 44 15 46 Q 19 42 21 40 Z" fill="currentColor" opacity="0.85"/>
<path d="M 47 38 Q 51 40 53 42 Q 49 40 47 38 Z" fill="currentColor" opacity="0.9"/>
<path d="M 45 40 Q 49 44 51 46 Q 47 42 45 40 Z" fill="currentColor" opacity="0.85"/>
<ellipse cx="23" cy="48" rx="6" ry="4" fill="currentColor" opacity="0.85"/>
<ellipse cx="43" cy="48" rx="6" ry="4" fill="currentColor" opacity="0.85"/>
<path d="M 51 36 Q 57 34 59 36 Q 57 38 55 38 Q 57 38 53 38 Q 55 38 51 36 Z" fill="currentColor" opacity="0.8"/>
</g>

<!-- FRAME 9: Slight shift right -->
<g transform="translate(576 0)">
<rect x="0" y="0" width="64" height="64" fill="none"/>
<ellipse cx="34" cy="36" rx="18" ry="14" fill="currentColor" filter="url(#creature_burrowing-soft-shadow)"/>
<ellipse cx="34" cy="26" rx="10" ry="8" fill="currentColor"/>
<path d="M 28 28 Q 24 30 22 32 Q 26 30 30 28 Z" fill="currentColor" opacity="0.9"/>
<ellipse cx="37" cy="24" rx="2.5" ry="2" fill="white"/>
<ellipse cx="37.5" cy="24" rx="1.2" ry="1" fill="#2d1810"/>
<circle cx="37.3" cy="23.7" r="0.4" fill="white" opacity="0.9"/>
<path d="M 40 18 Q 44 12 46 16 Q 44 20 40 20 Z" fill="currentColor" opacity="0.8"/>
<path d="M 28 18 Q 24 12 22 16 Q 24 20 28 20 Z" fill="currentColor" opacity="0.8"/>
<path d="M 20 38 Q 16 40 14 42 Q 18 40 20 38 Z" fill="currentColor" opacity="0.9"/>
<path d="M 22 40 Q 18 44 16 46 Q 20 42 22 40 Z" fill="currentColor" opacity="0.85"/>
<path d="M 48 38 Q 52 40 54 42 Q 50 40 48 38 Z" fill="currentColor" opacity="0.9"/>
<path d="M 46 40 Q 50 44 52 46 Q 48 42 46 40 Z" fill="currentColor" opacity="0.85"/>
<ellipse cx="24" cy="48" rx="6" ry="4" fill="currentColor" opacity="0.85"/>
<ellipse cx="44" cy="48" rx="6" ry="4" fill="currentColor" opacity="0.85"/>
<path d="M 52 36 Q 58 34 60 36 Q 58 38 56 38 Q 58 38 54 38 Q 56 38 52 36 Z" fill="currentColor" opacity="0.8"/>
</g>

<!-- FRAME 10: Digging motion start (other side) -->
<g transform="translate(640 0)">
<rect x="0" y="0" width="64" height="64" fill="none"/>
<ellipse cx="35" cy="37" rx="18" ry="14" fill="currentColor" filter="url(#creature_burrowing-soft-shadow)"/>
<ellipse cx="35" cy="27" rx="10" ry="8" fill="currentColor"/>
<path d="M 29 29 Q 25 31 23 33 Q 27 31 31 29 Z" fill="currentColor" opacity="0.9"/>
<ellipse cx="38" cy="25" rx="2.5" ry="2" fill="white"/>
<ellipse cx="38.5" cy="25" rx="1.2" ry="1" fill="#2d1810"/>
<circle cx="38.3" cy="24.7" r="0.4" fill="white" opacity="0.9"/>
<path d="M 41 19 Q 45 13 47 17 Q 45 21 41 21 Z" fill="currentColor" opacity="0.8"/>
<path d="M 29 19 Q 25 13 23 17 Q 25 21 29 21 Z" fill="currentColor" opacity="0.8"/>
<path d="M 21 40 Q 13 44 9 50 Q 15 46 21 42 Z" fill="currentColor" opacity="0.9"/>
<path d="M 23 42 Q 15 48 11 54 Q 17 50 23 44 Z" fill="currentColor" opacity="0.85"/>
<path d="M 25 43 Q 19 50 15 56 Q 21 52 25 46 Z" fill="currentColor" opacity="0.8"/>
<path d="M 49 40 Q 57 44 61 50 Q 55 46 49 42 Z" fill="currentColor" opacity="0.9"/>
<path d="M 47 42 Q 55 48 59 54 Q 53 50 47 44 Z" fill="currentColor" opacity="0.85"/>
<path d="M 45 43 Q 53 50 59 56 Q 53 52 45 46 Z" fill="currentColor" opacity="0.8"/>
<ellipse cx="25" cy="49" rx="6" ry="4" fill="currentColor" opacity="0.85"/>
<ellipse cx="45" cy="49" rx="6" ry="4" fill="currentColor" opacity="0.85"/>
<path d="M 53 37 Q 59 35 61 37 Q 59 39 57 39 Q 59 39 55 39 Q 57 39 53 37 Z" fill="currentColor" opacity="0.8"/>
</g>

<!-- FRAME 11: Digging thrust (other side) -->
<g transform="translate(704 0)">
<rect x="0" y="0" width="64" height="64" fill="none"/>
<ellipse cx="37" cy="38" rx="18" ry="14" fill="currentColor" filter="url(#creature_burrowing-soft-shadow)"/>
<ellipse cx="37" cy="28" rx="10" ry="8" fill="currentColor"/>
<path d="M 31 30 Q 27 32 25 34 Q 29 32 33 30 Z" fill="currentColor" opacity="0.9"/>
<ellipse cx="40" cy="26" rx="2.5" ry="2" fill="white"/>
<ellipse cx="40.5" cy="26" rx="1.2" ry="1" fill="#2d1810"/>
<circle cx="40.3" cy="25.7" r="0.4" fill="white" opacity="0.9"/>
<path d="M 43 20 Q 47 14 49 18 Q 47 22 43 22 Z" fill="currentColor" opacity="0.8"/>
<path d="M 31 20 Q 27 14 25 18 Q 27 22 31 22 Z" fill="currentColor" opacity="0.8"/>
<path d="M 23 42 Q 13 48 7 56 Q 15 50 23 44 Z" fill="currentColor" opacity="0.9"/>
<path d="M 25 44 Q 15 52 9 60 Q 17 54 25 46 Z" fill="currentColor" opacity="0.85"/>
<path d="M 27 45 Q 19 54 13 62 Q 21 56 27 48 Z" fill="currentColor" opacity="0.8"/>
<path d="M 51 42 Q 61 48 67 56 Q 59 50 51 44 Z" fill="currentColor" opacity="0.9"/>
<path d="M 49 44 Q 59 52 65 60 Q 57 54 49 46 Z" fill="currentColor" opacity="0.85"/>
<path d="M 47 45 Q 57 54 63 62 Q 55 56 47 48 Z" fill="currentColor" opacity="0.8"/>
<ellipse cx="27" cy="50" rx="6" ry="4" fill="currentColor" opacity="0.85"/>
<ellipse cx="47" cy="50" rx="6" ry="4" fill="currentColor" opacity="0.85"/>
<path d="M 55 38 Q 61 36 63 38 Q 61 40 59 40 Q 61 40 57 40 Q 59 40 55 38 Z" fill="currentColor" opacity="0.8"/>
</g>

<!-- FRAME 12: Dig peak (other side) -->
<g transform="translate(768 0)">
<rect x="0" y="0" width="64" height="64" fill="none"/>
<ellipse cx="39" cy="39" rx="18" ry="14" fill="currentColor" filter="url(#creature_burrowing-soft-shadow)"/>
<ellipse cx="39" cy="29" rx="10" ry="8" fill="currentColor"/>
<path d="M 33 31 Q 29 33 27 35 Q 31 33 35 31 Z" fill="currentColor" opacity="0.9"/>
<ellipse cx="42" cy="27" rx="2.5" ry="2" fill="white"/>
<ellipse cx="42.5" cy="27" rx="1.2" ry="1" fill="#2d1810"/>
<circle cx="42.3" cy="26.7" r="0.4" fill="white" opacity="0.9"/>
<path d="M 45 21 Q 49 15 51 19 Q 49 23 45 23 Z" fill="currentColor" opacity="0.8"/>
<path d="M 33 21 Q 29 15 27 19 Q 29 23 33 23 Z" fill="currentColor" opacity="0.8"/>
<!-- Dirt particles -->
<circle cx="59" cy="48" r="2" fill="currentColor" opacity="0.6"/>
<circle cx="63" cy="52" r="1.5" fill="currentColor" opacity="0.5"/>
<circle cx="55" cy="50" r="1.8" fill="currentColor" opacity="0.55"/>
<path d="M 25 44 Q 15 52 9 60 Q 17 54 25 46 Z" fill="currentColor" opacity="0.9"/>
<path d="M 27 46 Q 17 56 11 64 Q 19 58 27 48 Z" fill="currentColor" opacity="0.85"/>
<path d="M 53 44 Q 63 52 69 60 Q 61 54 53 46 Z" fill="currentColor" opacity="0.9"/>
<path d="M 51 46 Q 61 56 67 64 Q 59 58 51 48 Z" fill="currentColor" opacity="0.85"/>
<ellipse cx="29" cy="51" rx="6" ry="4" fill="currentColor" opacity="0.85"/>
<ellipse cx="49" cy="51" rx="6" ry="4" fill="currentColor" opacity="0.85"/>
<path d="M 57 39 Q 63 37 65 39 Q 63 41 61 41 Q 63 41 59 41 Q 61 41 57 39 Z" fill="currentColor" opacity="0.8"/>
</g>

<!-- FRAME 13: Dig return (other side) -->
<g transform="translate(832 0)">
<rect x="0" y="0" width="64" height="64" fill="none"/>
<ellipse cx="37" cy="38" rx="18" ry="14" fill="currentColor" filter="url(#creature_burrowing-soft-shadow)"/>
<ellipse cx="37" cy="28" rx="10" ry="8" fill="currentColor"/>
<path d="M 31 30 Q 27 32 25 34 Q 29 32 33 30 Z" fill="currentColor" opacity="0.9"/>
<ellipse cx="40" cy="26" rx="2.5" ry="2" fill="white"/>
<ellipse cx="40.5" cy="26" rx="1.2" ry="1" fill="#2d1810"/>
<circle cx="40.3" cy="25.7" r="0.4" fill="white" opacity="0.9"/>
<path d="M 43 20 Q 47 14 49 18 Q 47 22 43 22 Z" fill="currentColor" opacity="0.8"/>
<path d="M 31 20 Q 27 14 25 18 Q 27 22 31 22 Z" fill="currentColor" opacity="0.8"/>
<path d="M 23 42 Q 15 48 11 54 Q 17 50 23 44 Z" fill="currentColor" opacity="0.9"/>
<path d="M 25 44 Q 17 52 13 58 Q 19 54 25 46 Z" fill="currentColor" opacity="0.85"/>
<path d="M 51 42 Q 59 48 63 54 Q 57 50 51 44 Z" fill="currentColor" opacity="0.9"/>
<path d="M 49 44 Q 57 52 61 58 Q 55 54 49 46 Z" fill="currentColor" opacity="0.85"/>
<ellipse cx="27" cy="50" rx="6" ry="4" fill="currentColor" opacity="0.85"/>
<ellipse cx="47" cy="50" rx="6" ry="4" fill="currentColor" opacity="0.85"/>
<path d="M 55 38 Q 61 36 63 38 Q 61 40 59 40 Q 61 40 57 40 Q 59 40 55 38 Z" fill="currentColor" opacity="0.8"/>
</g>

<!-- FRAME 14: Retracting claws (other side) -->
<g transform="translate(896 0)">
<rect x="0" y="0" width="64" height="64" fill="none"/>
<ellipse cx="35" cy="37" rx="18" ry="14" fill="currentColor" filter="url(#creature_burrowing-soft-shadow)"/>
<ellipse cx="35" cy="27" rx="10" ry="8" fill="currentColor"/>
<path d="M 29 29 Q 25 31 23 33 Q 27 31 31 29 Z" fill="currentColor" opacity="0.9"/>
<ellipse cx="38" cy="25" rx="2.5" ry="2" fill="white"/>
<ellipse cx="38.5" cy="25" rx="1.2" ry="1" fill="#2d1810"/>
<circle cx="38.3" cy="24.7" r="0.4" fill="white" opacity="0.9"/>
<path d="M 41 19 Q 45 13 47 17 Q 45 21 41 21 Z" fill="currentColor" opacity="0.8"/>
<path d="M 29 19 Q 25 13 23 17 Q 25 21 29 21 Z" fill="currentColor" opacity="0.8"/>
<path d="M 21 40 Q 15 44 13 48 Q 19 44 23 40 Z" fill="currentColor" opacity="0.9"/>
<path d="M 23 42 Q 17 48 15 52 Q 21 46 25 42 Z" fill="currentColor" opacity="0.85"/>
<path d="M 49 40 Q 55 44 57 48 Q 51 44 47 40 Z" fill="currentColor" opacity="0.9"/>
<path d="M 47 42 Q 53 48 55 52 Q 49 46 45 42 Z" fill="currentColor" opacity="0.85"/>
<ellipse cx="25" cy="49" rx="6" ry="4" fill="currentColor" opacity="0.85"/>
<ellipse cx="45" cy="49" rx="6" ry="4" fill="currentColor" opacity="0.85"/>
<path d="M 53 37 Q 59 35 61 37 Q 59 39 57 39 Q 59 39 55 39 Q 57 39 53 37 Z" fill="currentColor" opacity="0.8"/>
</g>

<!-- FRAME 15: Back to idle -->
<g transform="translate(960 0)">
<rect x="0" y="0" width="64" height="64" fill="none"/>
<ellipse cx="32" cy="36" rx="18" ry="14" fill="currentColor" filter="url(#creature_burrowing-soft-shadow)"/>
<ellipse cx="32" cy="26" rx="10" ry="8" fill="currentColor"/>
<path d="M 26 28 Q 22 30 20 32 Q 24 30 28 28 Z" fill="currentColor" opacity="0.9"/>
<ellipse cx="35" cy="24" rx="2.5" ry="2" fill="white"/>
<ellipse cx="35.5" cy="24" rx="1.2" ry="1" fill="#2d1810"/>
<circle cx="35.3" cy="23.7" r="0.4" fill="white" opacity="0.9"/>
<path d="M 38 18 Q 42 12 44 16 Q 42 20 38 20 Z" fill="currentColor" opacity="0.8"/>
<path d="M 26 18 Q 22 12 20 16 Q 22 20 26 20 Z" fill="currentColor" opacity="0.8"/>
<path d="M 18 38 Q 14 40 12 42 Q 16 40 18 38 Z" fill="currentColor" opacity="0.9"/>
<path d="M 20 40 Q 16 44 14 46 Q 18 42 20 40 Z" fill="currentColor" opacity="0.85"/>
<path d="M 46 38 Q 50 40 52 42 Q 48 40 46 38 Z" fill="currentColor" opacity="0.9"/>
<path d="M 44 40 Q 48 44 50 46 Q 46 42 44 40 Z" fill="currentColor" opacity="0.85"/>
<ellipse cx="22" cy="48" rx="6" ry="4" fill="currentColor" opacity="0.85"/>
<ellipse cx="42" cy="48" rx="6" ry="4" fill="currentColor" opacity="0.85"/>
<path d="M 50 36 Q 56 34 58 36 Q 56 38 54 38 Q 56 38 52 38 Q 54 38 50 36 Z" fill="currentColor" opacity="0.8"/>
</g>
</svg>