<svg xmlns="http://www.w3.org/2000/svg" width="640" height="64" viewBox="0 0 640 64" fill="none"><defs><filter id="creature_herbivore-soft-shadow" x="-40%" y="-40%" width="180%" height="180%"><feGaussianBlur in="SourceAlpha" stdDeviation="1.2" /><feOffset dx="0.5" dy="1" result="offsetblur" /><feComponentTransfer><feFuncA type="linear" slope="0.26" /></feComponentTransfer><feMerge><feMergeNode /><feMergeNode in="SourceGraphic" /></feMerge></filter></defs><g transform="translate(0 0)">
    <rect x="0" y="0" width="64" height="64" fill="none"/>
    
    <path d="
      M 16.58 34.82
      Q 11.45 29.78
        5.18 34.28
      Q 11.79 39.86
        16.58 34.82
      Z
    " fill="currentColor" opacity="0.9"/>
    <path d="
      M 29.13 22.45
      L 25.63 14.98
      L 36.13 20.85
      Z
    " fill="currentColor" opacity="0.78"/>
    <path d="
      M 28.13 46.48
      L 34.53 51.95
      L 30.21 46.48
      Z
    " fill="currentColor" opacity="0.65"/>
    <ellipse cx="32.64" cy="34.22" rx="17.56" ry="13.77" fill="currentColor" filter="url(#creature_herbivore-soft-shadow)"/>
    
    
    
    
    
    <path d="
      M 37.2 37.8
      Q 40.19 39.72
        43.17 36.97
    " stroke="rgba(0,0,0,0.35)" stroke-width="0.8" fill="none" />
  
    
      <ellipse cx="38.79" cy="39.45" rx="3.2" ry="2.2" fill="#ff9faa" opacity="0.26"/>
      <ellipse cx="28.43" cy="39.72" rx="2.8" ry="2" fill="#ff9faa" opacity="0.23"/>
    
    
    <ellipse cx="40.19" cy="29.95" rx="4.9" ry="4.3" fill="white" />
    <ellipse cx="41.21" cy="29.95" rx="2.2" ry="2.1" fill="#111" />
    <circle cx="40.41" cy="29.05" r="0.85" fill="white" opacity="0.9" />
  
    
    
    
  </g><g transform="translate(64 0)">
    <rect x="0" y="0" width="64" height="64" fill="none"/>
    
    <path d="
      M 16.28 35.63
      Q 11.15 29
        4.88 32.97
      Q 11.49 42.25
        16.28 35.63
      Z
    " fill="currentColor" opacity="0.9"/>
    <path d="
      M 29.07 23.43
      L 25.57 17.2
      L 36.07 21.83
      Z
    " fill="currentColor" opacity="0.78"/>
    <path d="
      M 28.07 47.12
      L 34.47 53.21
      L 30.15 47.12
      Z
    " fill="currentColor" opacity="0.65"/>
    <ellipse cx="32.64" cy="35.03" rx="17.86" ry="13.59" fill="currentColor" filter="url(#creature_herbivore-soft-shadow)"/>
    
    
    
    
    
    <path d="
      M 37.28 38.56
      Q 40.32 40.46
        43.36 37.74
    " stroke="rgba(0,0,0,0.35)" stroke-width="0.8" fill="none" />
  
    
      <ellipse cx="38.89" cy="40.19" rx="3.2" ry="2.2" fill="#ff9faa" opacity="0.32"/>
      <ellipse cx="28.35" cy="40.46" rx="2.8" ry="2" fill="#ff9faa" opacity="0.29"/>
    
    
    <ellipse cx="40.32" cy="30.81" rx="4.9" ry="3.17" fill="white" />
    <ellipse cx="41.55" cy="30.98" rx="2.2" ry="1.61" fill="#111" />
    <circle cx="40.75" cy="30.08" r="0.85" fill="white" opacity="0.9" />
  
    
    
    
  </g><g transform="translate(128 0)">
    <rect x="0" y="0" width="64" height="64" fill="none"/>
    
    <path d="
      M 16.16 36.01
      Q 11.03 30.03
        4.76 34.59
      Q 11.37 41.99
        16.16 36.01
      Z
    " fill="currentColor" opacity="0.9"/>
    <path d="
      M 29.04 23.89
      L 25.54 15.8
      L 36.04 22.29
      Z
    " fill="currentColor" opacity="0.78"/>
    <path d="
      M 28.04 47.43
      L 34.44 52.59
      L 30.12 47.43
      Z
    " fill="currentColor" opacity="0.65"/>
    <ellipse cx="32.64" cy="35.41" rx="17.98" ry="13.52" fill="currentColor" filter="url(#creature_herbivore-soft-shadow)"/>
    
    
    
    
    
    <path d="
      M 37.32 38.93
      Q 40.37 40.82
        43.43 38.12
    " stroke="rgba(0,0,0,0.35)" stroke-width="0.8" fill="none" />
  
    
      <ellipse cx="38.93" cy="40.55" rx="3.2" ry="2.2" fill="#ff9faa" opacity="0.3"/>
      <ellipse cx="28.32" cy="40.82" rx="2.8" ry="2" fill="#ff9faa" opacity="0.27"/>
    
    
    <ellipse cx="40.37" cy="31.22" rx="4.9" ry="4.3" fill="white" />
    <ellipse cx="41.67" cy="31.4" rx="2.2" ry="2.1" fill="#111" />
    <circle cx="40.87" cy="30.5" r="0.85" fill="white" opacity="0.9" />
  
    
    
    
  </g><g transform="translate(192 0)">
    <rect x="0" y="0" width="64" height="64" fill="none"/>
    
    <path d="
      M 16.28 35.83
      Q 11.15 31.93
        4.88 37.44
      Q 11.49 39.73
        16.28 35.83
      Z
    " fill="currentColor" opacity="0.9"/>
    <path d="
      M 29.07 23.63
      L 25.57 13.84
      L 36.07 22.03
      Z
    " fill="currentColor" opacity="0.78"/>
    <path d="
      M 28.07 47.32
      L 34.47 51.62
      L 30.15 47.32
      Z
    " fill="currentColor" opacity="0.65"/>
    <ellipse cx="32.64" cy="35.23" rx="17.86" ry="13.59" fill="currentColor" filter="url(#creature_herbivore-soft-shadow)"/>
    
    
    
    
    
    <path d="
      M 37.28 38.76
      Q 40.32 40.66
        43.36 37.94
    " stroke="rgba(0,0,0,0.35)" stroke-width="0.8" fill="none" />
  
    
      <ellipse cx="38.89" cy="40.39" rx="3.2" ry="2.2" fill="#ff9faa" opacity="0.23"/>
      <ellipse cx="28.35" cy="40.66" rx="2.8" ry="2" fill="#ff9faa" opacity="0.21"/>
    
    
    <ellipse cx="40.32" cy="31.01" rx="4.9" ry="4.3" fill="white" />
    <ellipse cx="41.49" cy="31.04" rx="2.2" ry="2.1" fill="#111" />
    <circle cx="40.69" cy="30.14" r="0.85" fill="white" opacity="0.9" />
  
    
    
    
  </g><g transform="translate(256 0)">
    <rect x="0" y="0" width="64" height="64" fill="none"/>
    
    <path d="
      M 16.58 35.14
      Q 11.45 32.2
        5.18 37.75
      Q 11.79 38.08
        16.58 35.14
      Z
    " fill="currentColor" opacity="0.9"/>
    <path d="
      M 29.13 22.78
      L 25.63 14.42
      L 36.13 21.18
      Z
    " fill="currentColor" opacity="0.78"/>
    <path d="
      M 28.13 46.81
      L 34.53 51.83
      L 30.21 46.81
      Z
    " fill="currentColor" opacity="0.65"/>
    <ellipse cx="32.64" cy="34.54" rx="17.56" ry="13.76" fill="currentColor" filter="url(#creature_herbivore-soft-shadow)"/>
    
    
    
    
    
    <path d="
      M 37.21 38.12
      Q 40.19 40.05
        43.18 37.3
    " stroke="rgba(0,0,0,0.35)" stroke-width="0.8" fill="none" />
  
    
      <ellipse cx="38.79" cy="39.77" rx="3.2" ry="2.2" fill="#ff9faa" opacity="0.2"/>
      <ellipse cx="28.42" cy="40.05" rx="2.8" ry="2" fill="#ff9faa" opacity="0.18"/>
    
    
    <ellipse cx="40.19" cy="30.28" rx="4.9" ry="4.3" fill="white" />
    <ellipse cx="41.12" cy="30.12" rx="2.2" ry="2.1" fill="#111" />
    <circle cx="40.32" cy="29.22" r="0.85" fill="white" opacity="0.9" />
  
    
    
    
  </g><g transform="translate(320 0)">
    <rect x="0" y="0" width="64" height="64" fill="none"/>
    
    <path d="
      M 16.91 34.22
      Q 11.78 29.97
        5.51 34.53
      Q 12.12 38.47
        16.91 34.22
      Z
    " fill="currentColor" opacity="0.9"/>
    <path d="
      M 29.19 21.67
      L 25.69 15.37
      L 36.19 20.07
      Z
    " fill="currentColor" opacity="0.78"/>
    <path d="
      M 28.19 46.08
      L 34.59 52.13
      L 30.27 46.08
      Z
    " fill="currentColor" opacity="0.65"/>
    <ellipse cx="32.64" cy="33.62" rx="17.23" ry="13.95" fill="currentColor" filter="url(#creature_herbivore-soft-shadow)"/>
    
    
    
    
    
    <path d="
      M 37.12 37.25
      Q 40.05 39.2
        42.98 36.41
    " stroke="rgba(0,0,0,0.35)" stroke-width="0.8" fill="none" />
  
    
      <ellipse cx="38.67" cy="38.92" rx="3.2" ry="2.2" fill="#ff9faa" opacity="0.24"/>
      <ellipse cx="28.5" cy="39.2" rx="2.8" ry="2" fill="#ff9faa" opacity="0.22"/>
    
    
    <ellipse cx="40.05" cy="29.3" rx="4.9" ry="3.83" fill="white" />
    <ellipse cx="40.74" cy="29.11" rx="2.2" ry="1.9" fill="#111" />
    <circle cx="39.94" cy="28.21" r="0.85" fill="white" opacity="0.9" />
  
    
    
    
  </g><g transform="translate(384 0)">
    <rect x="0" y="0" width="64" height="64" fill="none"/>
    
    <path d="
      M 17.11 33.41
      Q 11.98 27.21
        5.71 31.03
      Q 12.32 39.62
        17.11 33.41
      Z
    " fill="currentColor" opacity="0.9"/>
    <path d="
      M 29.23 20.75
      L 25.73 13.54
      L 36.23 19.15
      Z
    " fill="currentColor" opacity="0.78"/>
    <path d="
      M 28.23 45.38
      L 34.63 50.98
      L 30.31 45.38
      Z
    " fill="currentColor" opacity="0.65"/>
    <ellipse cx="32.64" cy="32.81" rx="17.03" ry="14.07" fill="currentColor" filter="url(#creature_herbivore-soft-shadow)"/>
    
    
    
    
    
    <path d="
      M 37.07 36.47
      Q 39.96 38.44
        42.86 35.63
    " stroke="rgba(0,0,0,0.35)" stroke-width="0.8" fill="none" />
  
    
      <ellipse cx="38.6" cy="38.16" rx="3.2" ry="2.2" fill="#ff9faa" opacity="0.31"/>
      <ellipse cx="28.55" cy="38.44" rx="2.8" ry="2" fill="#ff9faa" opacity="0.28"/>
    
    
    <ellipse cx="39.96" cy="28.45" rx="4.9" ry="4.3" fill="white" />
    <ellipse cx="40.56" cy="28.4" rx="2.2" ry="2.1" fill="#111" />
    <circle cx="39.76" cy="27.5" r="0.85" fill="white" opacity="0.9" />
  
    
    
    
  </g><g transform="translate(448 0)">
    <rect x="0" y="0" width="64" height="64" fill="none"/>
    
    <path d="
      M 17.07 33.03
      Q 11.94 26.6
        5.67 30.97
      Q 12.28 39.46
        17.07 33.03
      Z
    " fill="currentColor" opacity="0.9"/>
    <path d="
      M 29.23 20.38
      L 25.73 10.88
      L 36.23 18.78
      Z
    " fill="currentColor" opacity="0.78"/>
    <path d="
      M 28.23 44.98
      L 34.63 49.42
      L 30.31 44.98
      Z
    " fill="currentColor" opacity="0.65"/>
    <ellipse cx="32.64" cy="32.43" rx="17.07" ry="14.05" fill="currentColor" filter="url(#creature_herbivore-soft-shadow)"/>
    
    
    
    
    
    <path d="
      M 37.08 36.08
      Q 39.98 38.05
        42.88 35.24
    " stroke="rgba(0,0,0,0.35)" stroke-width="0.8" fill="none" />
  
    
      <ellipse cx="38.61" cy="37.77" rx="3.2" ry="2.2" fill="#ff9faa" opacity="0.31"/>
      <ellipse cx="28.54" cy="38.05" rx="2.8" ry="2" fill="#ff9faa" opacity="0.28"/>
    
    
    <ellipse cx="39.98" cy="28.08" rx="4.9" ry="4.3" fill="white" />
    <ellipse cx="40.68" cy="28.21" rx="2.2" ry="2.1" fill="#111" />
    <circle cx="39.88" cy="27.31" r="0.85" fill="white" opacity="0.9" />
  
    
    
    
  </g><g transform="translate(512 0)">
    <rect x="0" y="0" width="64" height="64" fill="none"/>
    
    <path d="
      M 16.82 33.21
      Q 11.69 28.54
        5.42 34.08
      Q 12.03 37.88
        16.82 33.21
      Z
    " fill="currentColor" opacity="0.9"/>
    <path d="
      M 29.18 20.71
      L 25.68 11.54
      L 36.18 19.11
      Z
    " fill="currentColor" opacity="0.78"/>
    <path d="
      M 28.18 45.02
      L 34.58 49.63
      L 30.26 45.02
      Z
    " fill="currentColor" opacity="0.65"/>
    <ellipse cx="32.64" cy="32.61" rx="17.32" ry="13.9" fill="currentColor" filter="url(#creature_herbivore-soft-shadow)"/>
    
    
    
    
    
    <path d="
      M 37.14 36.23
      Q 40.09 38.18
        43.03 35.39
    " stroke="rgba(0,0,0,0.35)" stroke-width="0.8" fill="none" />
  
    
      <ellipse cx="38.7" cy="37.9" rx="3.2" ry="2.2" fill="#ff9faa" opacity="0.25"/>
      <ellipse cx="28.48" cy="38.18" rx="2.8" ry="2" fill="#ff9faa" opacity="0.23"/>
    
    
    <ellipse cx="40.09" cy="28.3" rx="4.9" ry="3.69" fill="white" />
    <ellipse cx="41.02" cy="28.5" rx="2.2" ry="1.84" fill="#111" />
    <circle cx="40.22" cy="27.6" r="0.85" fill="white" opacity="0.9" />
  
    
    
    
  </g><g transform="translate(576 0)">
    <rect x="0" y="0" width="64" height="64" fill="none"/>
    
    <path d="
      M 16.48 33.9
      Q 11.35 30.79
        5.08 36.59
      Q 11.69 37
        16.48 33.9
      Z
    " fill="currentColor" opacity="0.9"/>
    <path d="
      M 29.11 21.59
      L 25.61 14.8
      L 36.11 19.99
      Z
    " fill="currentColor" opacity="0.78"/>
    <path d="
      M 28.11 45.5
      L 34.51 51.31
      L 30.19 45.5
      Z
    " fill="currentColor" opacity="0.65"/>
    <ellipse cx="32.64" cy="33.3" rx="17.66" ry="13.71" fill="currentColor" filter="url(#creature_herbivore-soft-shadow)"/>
    
    
    
    
    
    <path d="
      M 37.23 36.86
      Q 40.23 38.78
        43.24 36.04
    " stroke="rgba(0,0,0,0.35)" stroke-width="0.8" fill="none" />
  
    
      <ellipse cx="38.82" cy="38.51" rx="3.2" ry="2.2" fill="#ff9faa" opacity="0.2"/>
      <ellipse cx="28.4" cy="38.78" rx="2.8" ry="2" fill="#ff9faa" opacity="0.18"/>
    
    
    <ellipse cx="40.23" cy="29.05" rx="4.9" ry="4.3" fill="white" />
    <ellipse cx="41.41" cy="29.12" rx="2.2" ry="2.1" fill="#111" />
    <circle cx="40.61" cy="28.22" r="0.85" fill="white" opacity="0.9" />
  
    
    
    
  </g></svg>
