<svg xmlns="http://www.w3.org/2000/svg" width="640" height="64" viewBox="0 0 640 64" fill="none"><defs><filter id="creature_omnivore-soft-shadow" x="-40%" y="-40%" width="180%" height="180%"><feGaussianBlur in="SourceAlpha" stdDeviation="1.2" /><feOffset dx="0.5" dy="1" result="offsetblur" /><feComponentTransfer><feFuncA type="linear" slope="0.26" /></feComponentTransfer><feMerge><feMergeNode /><feMergeNode in="SourceGraphic" /></feMerge></filter></defs><g transform="translate(0 0)">

    <rect x="0" y="0" width="64" height="64" fill="none"/>
    <ellipse cx="32" cy="48.64" rx="18" ry="4.1" fill="rgba(0,0,0,0.24)"/>


    <path d="
      M 15.09 34.54
      Q 10.14 29.23
        4.09 32.96
      Q 10.47 39.86
        15.09 34.54
      Z
    " fill="currentColor" opacity="0.9"/>
    <path d="
      M 28.32 23.46
      L 25.12 17.49
      L 34.72 22.02
      Z
    " fill="currentColor" opacity="0.78"/>
    <path d="
      M 27.32 46.53
      L 33.36 51.75
      L 29.33 46.53
      Z
    " fill="currentColor" opacity="0.65"/>

    <ellipse cx="23.72" cy="45.11" rx="3.68" ry="2.6" fill="rgba(0,0,0,0.22)"/>
    <ellipse cx="37.89" cy="45.37" rx="4.05" ry="2.7" fill="rgba(0,0,0,0.2)"/>

    <ellipse cx="32" cy="34.74" rx="18.41" ry="13.29" fill="currentColor" filter="url(#creature_omnivore-soft-shadow)"/>
    <ellipse cx="35.31" cy="31.02" rx="8.84" ry="4.52" fill="rgba(255,255,255,0.18)"/>
    <ellipse cx="32" cy="34.74" rx="18.66" ry="13.54" fill="none" stroke="rgba(0,0,0,0.18)" stroke-width="1.1"/>

      <path d="M 28.32 29.74 Q 32.92 27.74 37.89 30.74" stroke="white" stroke-width="1" opacity="0.17" fill="none"/>
      <path d="M 27.21 34.74 Q 32.92 33.14 39 35.84" stroke="white" stroke-width="0.95" opacity="0.2" fill="none"/>


      <circle cx="27.21" cy="32.62" r="1.7" fill="rgba(255,255,255,0.24)"/>
      <circle cx="33.1" cy="37.14" r="1.45" fill="rgba(0,0,0,0.13)"/>
      <circle cx="30.53" cy="40.59" r="1.2" fill="rgba(255,255,255,0.18)"/>





    <path d="
      M 36.79 38.2
      Q 39.92 40.06
        43.05 37.4
    " stroke="rgba(0,0,0,0.35)" stroke-width="0.8" fill="none" />



    <ellipse cx="40.84" cy="31.16" rx="4.6" ry="3.04" fill="white" />
    <ellipse cx="42.02" cy="31.16" rx="2.1" ry="1.5" fill="#121212" />
    <circle cx="41.22" cy="30.26" r="0.85" fill="white" opacity="0.9" />

    <path d="M 35.68 35.74 Q 43.41 36.74 49.3 35.94" stroke="rgba(255,255,255,0.28)" stroke-width="0.8" fill="none"/>


  </g><g transform="translate(64 0)">

    <rect x="0" y="0" width="64" height="64" fill="none"/>
    <ellipse cx="32" cy="48.64" rx="18" ry="4.1" fill="rgba(0,0,0,0.24)"/>


    <path d="
      M 14.84 34.94
      Q 9.89 28.69
        3.84 32.68
      Q 10.22 41.19
        14.84 34.94
      Z
    " fill="currentColor" opacity="0.9"/>
    <path d="
      M 28.27 23.98
      L 25.07 17.59
      L 34.67 22.54
      Z
    " fill="currentColor" opacity="0.78"/>
    <path d="
      M 27.27 46.79
      L 33.31 51.8
      L 29.28 46.79
      Z
    " fill="currentColor" opacity="0.65"/>

    <ellipse cx="23.6" cy="45.4" rx="3.73" ry="2.6" fill="rgba(0,0,0,0.22)"/>
    <ellipse cx="37.97" cy="45.66" rx="4.1" ry="2.7" fill="rgba(0,0,0,0.2)"/>

    <ellipse cx="32" cy="35.14" rx="18.66" ry="13.15" fill="currentColor" filter="url(#creature_omnivore-soft-shadow)"/>
    <ellipse cx="35.36" cy="31.46" rx="8.96" ry="4.47" fill="rgba(255,255,255,0.18)"/>
    <ellipse cx="32" cy="35.14" rx="18.91" ry="13.4" fill="none" stroke="rgba(0,0,0,0.18)" stroke-width="1.1"/>

      <path d="M 28.27 30.14 Q 32.93 28.14 37.97 31.14" stroke="white" stroke-width="1" opacity="0.17" fill="none"/>
      <path d="M 27.15 35.14 Q 32.93 33.54 39.09 36.24" stroke="white" stroke-width="0.95" opacity="0.2" fill="none"/>


      <circle cx="27.15" cy="33.03" r="1.7" fill="rgba(255,255,255,0.24)"/>
      <circle cx="33.12" cy="37.51" r="1.45" fill="rgba(0,0,0,0.13)"/>
      <circle cx="30.51" cy="40.93" r="1.2" fill="rgba(255,255,255,0.18)"/>





    <path d="
      M 36.85 38.56
      Q 40.02 40.4
        43.19 37.77
    " stroke="rgba(0,0,0,0.35)" stroke-width="0.8" fill="none" />



    <ellipse cx="40.96" cy="31.59" rx="4.6" ry="4.1" fill="white" />
    <ellipse cx="42.25" cy="31.76" rx="2.1" ry="1.95" fill="#121212" />
    <circle cx="41.45" cy="30.86" r="0.85" fill="white" opacity="0.9" />

    <path d="M 35.73 36.14 Q 43.57 37.7 49.54 36.34" stroke="rgba(255,255,255,0.28)" stroke-width="0.8" fill="none"/>


  </g><g transform="translate(128 0)">

    <rect x="0" y="0" width="64" height="64" fill="none"/>
    <ellipse cx="32" cy="48.64" rx="18" ry="4.1" fill="rgba(0,0,0,0.24)"/>


    <path d="
      M 14.82 34.87
      Q 9.87 29.69
        3.82 34.79
      Q 10.2 40.04
        14.82 34.87
      Z
    " fill="currentColor" opacity="0.9"/>
    <path d="
      M 28.26 23.92
      L 25.06 15.69
      L 34.66 22.48
      Z
    " fill="currentColor" opacity="0.78"/>
    <path d="
      M 27.26 46.71
      L 33.3 50.8
      L 29.27 46.71
      Z
    " fill="currentColor" opacity="0.65"/>

    <ellipse cx="23.6" cy="45.32" rx="3.74" ry="2.6" fill="rgba(0,0,0,0.22)"/>
    <ellipse cx="37.98" cy="45.58" rx="4.11" ry="2.7" fill="rgba(0,0,0,0.2)"/>

    <ellipse cx="32" cy="35.07" rx="18.68" ry="13.14" fill="currentColor" filter="url(#creature_omnivore-soft-shadow)"/>
    <ellipse cx="35.36" cy="31.39" rx="8.97" ry="4.47" fill="rgba(255,255,255,0.18)"/>
    <ellipse cx="32" cy="35.07" rx="18.93" ry="13.39" fill="none" stroke="rgba(0,0,0,0.18)" stroke-width="1.1"/>

      <path d="M 28.26 30.07 Q 32.93 28.07 37.98 31.07" stroke="white" stroke-width="1" opacity="0.17" fill="none"/>
      <path d="M 27.14 35.07 Q 32.93 33.47 39.1 36.17" stroke="white" stroke-width="0.95" opacity="0.2" fill="none"/>


      <circle cx="27.14" cy="32.97" r="1.7" fill="rgba(255,255,255,0.24)"/>
      <circle cx="33.12" cy="37.43" r="1.45" fill="rgba(0,0,0,0.13)"/>
      <circle cx="30.51" cy="40.85" r="1.2" fill="rgba(255,255,255,0.18)"/>





    <path d="
      M 36.86 38.49
      Q 40.03 40.33
        43.21 37.7
    " stroke="rgba(0,0,0,0.35)" stroke-width="0.8" fill="none" />



    <ellipse cx="40.97" cy="31.52" rx="4.6" ry="4.1" fill="white" />
    <ellipse cx="42.19" cy="31.7" rx="2.1" ry="1.95" fill="#121212" />
    <circle cx="41.39" cy="30.8" r="0.85" fill="white" opacity="0.9" />

    <path d="M 35.74 36.07 Q 43.58 37.48 49.56 36.27" stroke="rgba(255,255,255,0.28)" stroke-width="0.8" fill="none"/>


  </g><g transform="translate(192 0)">

    <rect x="0" y="0" width="64" height="64" fill="none"/>
    <ellipse cx="32" cy="48.64" rx="18" ry="4.1" fill="rgba(0,0,0,0.24)"/>


    <path d="
      M 15.04 34.36
      Q 10.09 30.92
        4.04 36.56
      Q 10.42 37.79
        15.04 34.36
      Z
    " fill="currentColor" opacity="0.9"/>
    <path d="
      M 28.31 23.3
      L 25.11 15.03
      L 34.71 21.86
      Z
    " fill="currentColor" opacity="0.78"/>
    <path d="
      M 27.31 46.32
      L 33.35 50.39
      L 29.32 46.32
      Z
    " fill="currentColor" opacity="0.65"/>

    <ellipse cx="23.69" cy="44.9" rx="3.69" ry="2.6" fill="rgba(0,0,0,0.22)"/>
    <ellipse cx="37.91" cy="45.17" rx="4.06" ry="2.7" fill="rgba(0,0,0,0.2)"/>

    <ellipse cx="32" cy="34.56" rx="18.46" ry="13.26" fill="currentColor" filter="url(#creature_omnivore-soft-shadow)"/>
    <ellipse cx="35.32" cy="30.85" rx="8.86" ry="4.51" fill="rgba(255,255,255,0.18)"/>
    <ellipse cx="32" cy="34.56" rx="18.71" ry="13.51" fill="none" stroke="rgba(0,0,0,0.18)" stroke-width="1.1"/>

      <path d="M 28.31 29.56 Q 32.92 27.56 37.91 30.56" stroke="white" stroke-width="1" opacity="0.17" fill="none"/>
      <path d="M 27.2 34.56 Q 32.92 32.96 39.01 35.66" stroke="white" stroke-width="0.95" opacity="0.2" fill="none"/>


      <circle cx="27.2" cy="32.44" r="1.7" fill="rgba(255,255,255,0.24)"/>
      <circle cx="33.11" cy="36.95" r="1.45" fill="rgba(0,0,0,0.13)"/>
      <circle cx="30.52" cy="40.39" r="1.2" fill="rgba(255,255,255,0.18)"/>





    <path d="
      M 36.8 38.01
      Q 39.94 39.86
        43.07 37.21
    " stroke="rgba(0,0,0,0.35)" stroke-width="0.8" fill="none" />



    <ellipse cx="40.86" cy="30.98" rx="4.6" ry="4.1" fill="white" />
    <ellipse cx="41.87" cy="31" rx="2.1" ry="1.95" fill="#121212" />
    <circle cx="41.07" cy="30.1" r="0.85" fill="white" opacity="0.9" />

    <path d="M 35.69 35.56 Q 43.44 36.3 49.35 35.76" stroke="rgba(255,255,255,0.28)" stroke-width="0.8" fill="none"/>


  </g><g transform="translate(256 0)">

    <rect x="0" y="0" width="64" height="64" fill="none"/>
    <ellipse cx="32" cy="48.64" rx="18" ry="4.1" fill="rgba(0,0,0,0.24)"/>


    <path d="
      M 15.39 33.61
      Q 10.44 30.46
        4.39 35.31
      Q 10.77 36.75
        15.39 33.61
      Z
    " fill="currentColor" opacity="0.9"/>
    <path d="
      M 28.38 22.36
      L 25.18 15.92
      L 34.78 20.92
      Z
    " fill="currentColor" opacity="0.78"/>
    <path d="
      M 27.38 45.75
      L 33.42 50.74
      L 29.39 45.75
      Z
    " fill="currentColor" opacity="0.65"/>

    <ellipse cx="23.85" cy="44.3" rx="3.62" ry="2.6" fill="rgba(0,0,0,0.22)"/>
    <ellipse cx="37.8" cy="44.56" rx="3.98" ry="2.7" fill="rgba(0,0,0,0.2)"/>

    <ellipse cx="32" cy="33.81" rx="18.11" ry="13.45" fill="currentColor" filter="url(#creature_omnivore-soft-shadow)"/>
    <ellipse cx="35.26" cy="30.04" rx="8.69" ry="4.57" fill="rgba(255,255,255,0.18)"/>
    <ellipse cx="32" cy="33.81" rx="18.36" ry="13.7" fill="none" stroke="rgba(0,0,0,0.18)" stroke-width="1.1"/>

      <path d="M 28.38 28.81 Q 32.91 26.81 37.8 29.81" stroke="white" stroke-width="1" opacity="0.17" fill="none"/>
      <path d="M 27.29 33.81 Q 32.91 32.21 38.88 34.91" stroke="white" stroke-width="0.95" opacity="0.2" fill="none"/>


      <circle cx="27.29" cy="31.65" r="1.7" fill="rgba(255,255,255,0.24)"/>
      <circle cx="33.09" cy="36.23" r="1.45" fill="rgba(0,0,0,0.13)"/>
      <circle cx="30.55" cy="39.72" r="1.2" fill="rgba(255,255,255,0.18)"/>





    <path d="
      M 36.71 37.3
      Q 39.79 39.18
        42.87 36.5
    " stroke="rgba(0,0,0,0.35)" stroke-width="0.8" fill="none" />



    <ellipse cx="40.69" cy="30.17" rx="4.6" ry="2.55" fill="white" />
    <ellipse cx="41.45" cy="30.02" rx="2.1" ry="1.3" fill="#121212" />
    <circle cx="40.65" cy="29.12" r="0.85" fill="white" opacity="0.9" />

    <path d="M 35.62 34.81 Q 43.23 35.21 49.02 35.01" stroke="rgba(255,255,255,0.28)" stroke-width="0.8" fill="none"/>


  </g><g transform="translate(320 0)">

    <rect x="0" y="0" width="64" height="64" fill="none"/>
    <ellipse cx="32" cy="48.64" rx="18" ry="4.1" fill="rgba(0,0,0,0.24)"/>


    <path d="
      M 15.69 32.9
      Q 10.74 28.28
        4.69 31.95
      Q 11.07 37.51
        15.69 32.9
      Z
    " fill="currentColor" opacity="0.9"/>
    <path d="
      M 28.44 21.49
      L 25.24 15.54
      L 34.84 20.05
      Z
    " fill="currentColor" opacity="0.78"/>
    <path d="
      M 27.44 45.21
      L 33.48 50.44
      L 29.45 45.21
      Z
    " fill="currentColor" opacity="0.65"/>

    <ellipse cx="23.99" cy="43.71" rx="3.56" ry="2.6" fill="rgba(0,0,0,0.22)"/>
    <ellipse cx="37.7" cy="43.98" rx="3.92" ry="2.7" fill="rgba(0,0,0,0.2)"/>

    <ellipse cx="32" cy="33.1" rx="17.81" ry="13.61" fill="currentColor" filter="url(#creature_omnivore-soft-shadow)"/>
    <ellipse cx="35.21" cy="29.28" rx="8.55" ry="4.63" fill="rgba(255,255,255,0.18)"/>
    <ellipse cx="32" cy="33.1" rx="18.06" ry="13.86" fill="none" stroke="rgba(0,0,0,0.18)" stroke-width="1.1"/>

      <path d="M 28.44 28.1 Q 32.89 26.1 37.7 29.1" stroke="white" stroke-width="1" opacity="0.17" fill="none"/>
      <path d="M 27.37 33.1 Q 32.89 31.5 38.77 34.2" stroke="white" stroke-width="0.95" opacity="0.2" fill="none"/>


      <circle cx="27.37" cy="30.92" r="1.7" fill="rgba(255,255,255,0.24)"/>
      <circle cx="33.07" cy="35.55" r="1.45" fill="rgba(0,0,0,0.13)"/>
      <circle cx="30.58" cy="39.08" r="1.2" fill="rgba(255,255,255,0.18)"/>





    <path d="
      M 36.63 36.63
      Q 39.66 38.54
        42.68 35.82
    " stroke="rgba(0,0,0,0.35)" stroke-width="0.8" fill="none" />



    <ellipse cx="40.55" cy="29.42" rx="4.6" ry="4.1" fill="white" />
    <ellipse cx="41.16" cy="29.23" rx="2.1" ry="1.95" fill="#121212" />
    <circle cx="40.36" cy="28.33" r="0.85" fill="white" opacity="0.9" />

    <path d="M 35.56 34.1 Q 43.04 34.91 48.74 34.3" stroke="rgba(255,255,255,0.28)" stroke-width="0.8" fill="none"/>


  </g><g transform="translate(384 0)">

    <rect x="0" y="0" width="64" height="64" fill="none"/>
    <ellipse cx="32" cy="48.64" rx="18" ry="4.1" fill="rgba(0,0,0,0.24)"/>


    <path d="
      M 15.8 32.5
      Q 10.85 26.48
        4.8 30.1
      Q 11.18 38.52
        15.8 32.5
      Z
    " fill="currentColor" opacity="0.9"/>
    <path d="
      M 28.46 21.03
      L 25.26 13.38
      L 34.86 19.59
      Z
    " fill="currentColor" opacity="0.78"/>
    <path d="
      M 27.46 44.87
      L 33.5 49.24
      L 29.47 44.87
      Z
    " fill="currentColor" opacity="0.65"/>

    <ellipse cx="24.03" cy="43.36" rx="3.54" ry="2.6" fill="rgba(0,0,0,0.22)"/>
    <ellipse cx="37.66" cy="43.63" rx="3.89" ry="2.7" fill="rgba(0,0,0,0.2)"/>

    <ellipse cx="32" cy="32.7" rx="17.7" ry="13.67" fill="currentColor" filter="url(#creature_omnivore-soft-shadow)"/>
    <ellipse cx="35.19" cy="28.87" rx="8.5" ry="4.65" fill="rgba(255,255,255,0.18)"/>
    <ellipse cx="32" cy="32.7" rx="17.95" ry="13.92" fill="none" stroke="rgba(0,0,0,0.18)" stroke-width="1.1"/>

      <path d="M 28.46 27.7 Q 32.89 25.7 37.66 28.7" stroke="white" stroke-width="1" opacity="0.17" fill="none"/>
      <path d="M 27.4 32.7 Q 32.89 31.1 38.73 33.8" stroke="white" stroke-width="0.95" opacity="0.2" fill="none"/>


      <circle cx="27.4" cy="30.51" r="1.7" fill="rgba(255,255,255,0.24)"/>
      <circle cx="33.06" cy="35.16" r="1.45" fill="rgba(0,0,0,0.13)"/>
      <circle cx="30.58" cy="38.71" r="1.2" fill="rgba(255,255,255,0.18)"/>





    <path d="
      M 36.6 36.25
      Q 39.61 38.17
        42.62 35.43
    " stroke="rgba(0,0,0,0.35)" stroke-width="0.8" fill="none" />



    <ellipse cx="40.5" cy="29.01" rx="4.6" ry="4.1" fill="white" />
    <ellipse cx="41.14" cy="28.96" rx="2.1" ry="1.95" fill="#121212" />
    <circle cx="40.34" cy="28.06" r="0.85" fill="white" opacity="0.9" />

    <path d="M 35.54 33.7 Q 42.97 35.16 48.64 33.9" stroke="rgba(255,255,255,0.28)" stroke-width="0.8" fill="none"/>


  </g><g transform="translate(448 0)">

    <rect x="0" y="0" width="64" height="64" fill="none"/>
    <ellipse cx="32" cy="48.64" rx="18" ry="4.1" fill="rgba(0,0,0,0.24)"/>


    <path d="
      M 15.66 32.57
      Q 10.71 26.9
        4.66 31.75
      Q 11.04 38.24
        15.66 32.57
      Z
    " fill="currentColor" opacity="0.9"/>
    <path d="
      M 28.43 21.18
      L 25.23 12.61
      L 34.83 19.74
      Z
    " fill="currentColor" opacity="0.78"/>
    <path d="
      M 27.43 44.86
      L 33.47 48.78
      L 29.44 44.86
      Z
    " fill="currentColor" opacity="0.65"/>

    <ellipse cx="23.97" cy="43.37" rx="3.57" ry="2.6" fill="rgba(0,0,0,0.22)"/>
    <ellipse cx="37.71" cy="43.64" rx="3.93" ry="2.7" fill="rgba(0,0,0,0.2)"/>

    <ellipse cx="32" cy="32.77" rx="17.84" ry="13.59" fill="currentColor" filter="url(#creature_omnivore-soft-shadow)"/>
    <ellipse cx="35.21" cy="28.97" rx="8.56" ry="4.62" fill="rgba(255,255,255,0.18)"/>
    <ellipse cx="32" cy="32.77" rx="18.09" ry="13.84" fill="none" stroke="rgba(0,0,0,0.18)" stroke-width="1.1"/>

      <path d="M 28.43 27.77 Q 32.89 25.77 37.71 28.77" stroke="white" stroke-width="1" opacity="0.17" fill="none"/>
      <path d="M 27.36 32.77 Q 32.89 31.17 38.78 33.87" stroke="white" stroke-width="0.95" opacity="0.2" fill="none"/>


      <circle cx="27.36" cy="30.6" r="1.7" fill="rgba(255,255,255,0.24)"/>
      <circle cx="33.07" cy="35.22" r="1.45" fill="rgba(0,0,0,0.13)"/>
      <circle cx="30.57" cy="38.75" r="1.2" fill="rgba(255,255,255,0.18)"/>





    <path d="
      M 36.64 36.31
      Q 39.67 38.21
        42.71 35.49
    " stroke="rgba(0,0,0,0.35)" stroke-width="0.8" fill="none" />



    <ellipse cx="40.56" cy="29.1" rx="4.6" ry="4.1" fill="white" />
    <ellipse cx="41.42" cy="29.24" rx="2.1" ry="1.95" fill="#121212" />
    <circle cx="40.62" cy="28.34" r="0.85" fill="white" opacity="0.9" />

    <path d="M 35.57 33.77 Q 43.06 35.3 48.77 33.97" stroke="rgba(255,255,255,0.28)" stroke-width="0.8" fill="none"/>


  </g><g transform="translate(512 0)">

    <rect x="0" y="0" width="64" height="64" fill="none"/>
    <ellipse cx="32" cy="48.64" rx="18" ry="4.1" fill="rgba(0,0,0,0.24)"/>


    <path d="
      M 15.34 33.08
      Q 10.39 29.03
        4.34 34.88
      Q 10.72 37.13
        15.34 33.08
      Z
    " fill="currentColor" opacity="0.9"/>
    <path d="
      M 28.37 21.86
      L 25.17 14.77
      L 34.77 20.42
      Z
    " fill="currentColor" opacity="0.78"/>
    <path d="
      M 27.37 45.2
      L 33.41 49.85
      L 29.38 45.2
      Z
    " fill="currentColor" opacity="0.65"/>

    <ellipse cx="23.83" cy="43.75" rx="3.63" ry="2.6" fill="rgba(0,0,0,0.22)"/>
    <ellipse cx="37.81" cy="44.02" rx="4" ry="2.7" fill="rgba(0,0,0,0.2)"/>

    <ellipse cx="32" cy="33.28" rx="18.16" ry="13.42" fill="currentColor" filter="url(#creature_omnivore-soft-shadow)"/>
    <ellipse cx="35.27" cy="29.52" rx="8.72" ry="4.56" fill="rgba(255,255,255,0.18)"/>
    <ellipse cx="32" cy="33.28" rx="18.41" ry="13.67" fill="none" stroke="rgba(0,0,0,0.18)" stroke-width="1.1"/>

      <path d="M 28.37 28.28 Q 32.91 26.28 37.81 29.28" stroke="white" stroke-width="1" opacity="0.17" fill="none"/>
      <path d="M 27.28 33.28 Q 32.91 31.68 38.9 34.38" stroke="white" stroke-width="0.95" opacity="0.2" fill="none"/>


      <circle cx="27.28" cy="31.13" r="1.7" fill="rgba(255,255,255,0.24)"/>
      <circle cx="33.09" cy="35.7" r="1.45" fill="rgba(0,0,0,0.13)"/>
      <circle cx="30.55" cy="39.19" r="1.2" fill="rgba(255,255,255,0.18)"/>





    <path d="
      M 36.72 36.77
      Q 39.81 38.65
        42.9 35.96
    " stroke="rgba(0,0,0,0.35)" stroke-width="0.8" fill="none" />



    <ellipse cx="40.72" cy="29.66" rx="4.6" ry="3.18" fill="white" />
    <ellipse cx="41.83" cy="29.85" rx="2.1" ry="1.56" fill="#121212" />
    <circle cx="41.03" cy="28.95" r="0.85" fill="white" opacity="0.9" />

    <path d="M 35.63 34.28 Q 43.26 35.21 49.07 34.48" stroke="rgba(255,255,255,0.28)" stroke-width="0.8" fill="none"/>


  </g><g transform="translate(576 0)">

    <rect x="0" y="0" width="64" height="64" fill="none"/>
    <ellipse cx="32" cy="48.64" rx="18" ry="4.1" fill="rgba(0,0,0,0.24)"/>


    <path d="
      M 15 33.83
      Q 10.05 30.68
        4 35.98
      Q 10.38 36.99
        15 33.83
      Z
    " fill="currentColor" opacity="0.9"/>
    <path d="
      M 28.3 22.8
      L 25.1 17
      L 34.7 21.36
      Z
    " fill="currentColor" opacity="0.78"/>
    <path d="
      M 27.3 45.77
      L 33.34 51.07
      L 29.31 45.77
      Z
    " fill="currentColor" opacity="0.65"/>

    <ellipse cx="23.67" cy="44.36" rx="3.7" ry="2.6" fill="rgba(0,0,0,0.22)"/>
    <ellipse cx="37.92" cy="44.62" rx="4.07" ry="2.7" fill="rgba(0,0,0,0.2)"/>

    <ellipse cx="32" cy="34.03" rx="18.5" ry="13.24" fill="currentColor" filter="url(#creature_omnivore-soft-shadow)"/>
    <ellipse cx="35.33" cy="30.33" rx="8.88" ry="4.5" fill="rgba(255,255,255,0.18)"/>
    <ellipse cx="32" cy="34.03" rx="18.75" ry="13.49" fill="none" stroke="rgba(0,0,0,0.18)" stroke-width="1.1"/>

      <path d="M 28.3 29.03 Q 32.93 27.03 37.92 30.03" stroke="white" stroke-width="1" opacity="0.17" fill="none"/>
      <path d="M 27.19 34.03 Q 32.93 32.43 39.03 35.13" stroke="white" stroke-width="0.95" opacity="0.2" fill="none"/>


      <circle cx="27.19" cy="31.92" r="1.7" fill="rgba(255,255,255,0.24)"/>
      <circle cx="33.11" cy="36.42" r="1.45" fill="rgba(0,0,0,0.13)"/>
      <circle cx="30.52" cy="39.86" r="1.2" fill="rgba(255,255,255,0.18)"/>





    <path d="
      M 36.81 37.48
      Q 39.96 39.33
        43.1 36.68
    " stroke="rgba(0,0,0,0.35)" stroke-width="0.8" fill="none" />



    <ellipse cx="40.88" cy="30.46" rx="4.6" ry="4.1" fill="white" />
    <ellipse cx="42.16" cy="30.53" rx="2.1" ry="1.95" fill="#121212" />
    <circle cx="41.36" cy="29.63" r="0.85" fill="white" opacity="0.9" />

    <path d="M 35.7 35.03 Q 43.47 35.45 49.39 35.23" stroke="rgba(255,255,255,0.28)" stroke-width="0.8" fill="none"/>


  </g></svg>
