<svg xmlns="http://www.w3.org/2000/svg" width="640" height="64" viewBox="0 0 640 64" fill="none"><defs><filter id="creature_omnivore-soft-shadow" x="-40%" y="-40%" width="180%" height="180%"><feGaussianBlur in="SourceAlpha" stdDeviation="1.2" /><feOffset dx="0.5" dy="1" result="offsetblur" /><feComponentTransfer><feFuncA type="linear" slope="0.26" /></feComponentTransfer><feMerge><feMergeNode /><feMergeNode in="SourceGraphic" /></feMerge></filter></defs><g transform="translate(0 0)">
    <rect x="0" y="0" width="64" height="64" fill="none"/>
    
    <path d="
      M 14.58 34.54
      Q 9.72 29.63
        3.78 32.96
      Q 10.05 39.46
        14.58 34.54
      Z
    " fill="currentColor" opacity="0.9"/>
    <path d="
      M 28.22 23.85
      L 25.12 18.49
      L 34.42 22.53
      Z
    " fill="currentColor" opacity="0.78"/>
    <path d="
      M 27.22 46.14
      L 33.26 51.35
      L 29.22 46.14
      Z
    " fill="currentColor" opacity="0.65"/>
    <ellipse cx="32" cy="34.74" rx="18.92" ry="12.89" fill="currentColor" filter="url(#creature_omnivore-soft-shadow)"/>
    
      <path d="M 28.22 29.74 Q 32.95 27.74 38.05 30.74" stroke="white" stroke-width="1" opacity="0.17" fill="none"/>
      <path d="M 27.08 34.74 Q 32.95 33.14 39.19 35.84" stroke="white" stroke-width="0.95" opacity="0.2" fill="none"/>
    
    
    
    
    
    <path d="
      M 36.92 38.1
      Q 40.13 39.9
        43.35 37.32
    " stroke="rgba(0,0,0,0.35)" stroke-width="0.8" fill="none" />
  
    
    
    <ellipse cx="41.08" cy="31.26" rx="4.6" ry="3.04" fill="white" />
    <ellipse cx="42.26" cy="31.26" rx="2.1" ry="1.5" fill="#121212" />
    <circle cx="41.46" cy="30.36" r="0.85" fill="white" opacity="0.9" />
  
    <path d="M 35.78 35.74 Q 43.73 36.74 49.78 35.94" stroke="rgba(255,255,255,0.28)" stroke-width="0.8" fill="none"/>
    
    
  </g><g transform="translate(64 0)">
    <rect x="0" y="0" width="64" height="64" fill="none"/>
    
    <path d="
      M 14.33 34.94
      Q 9.47 29.09
        3.53 32.68
      Q 9.79 40.79
        14.33 34.94
      Z
    " fill="currentColor" opacity="0.9"/>
    <path d="
      M 28.17 24.38
      L 25.07 18.59
      L 34.37 23.06
      Z
    " fill="currentColor" opacity="0.78"/>
    <path d="
      M 27.17 46.4
      L 33.21 51.41
      L 29.17 46.4
      Z
    " fill="currentColor" opacity="0.65"/>
    <ellipse cx="32" cy="35.14" rx="19.17" ry="12.76" fill="currentColor" filter="url(#creature_omnivore-soft-shadow)"/>
    
      <path d="M 28.17 30.14 Q 32.96 28.14 38.13 31.14" stroke="white" stroke-width="1" opacity="0.17" fill="none"/>
      <path d="M 27.02 35.14 Q 32.96 33.54 39.28 36.24" stroke="white" stroke-width="0.95" opacity="0.2" fill="none"/>
    
    
    
    
    
    <path d="
      M 36.98 38.46
      Q 40.24 40.24
        43.5 37.69
    " stroke="rgba(0,0,0,0.35)" stroke-width="0.8" fill="none" />
  
    
    
    <ellipse cx="41.2" cy="31.69" rx="4.6" ry="4.1" fill="white" />
    <ellipse cx="42.5" cy="31.86" rx="2.1" ry="1.95" fill="#121212" />
    <circle cx="41.7" cy="30.96" r="0.85" fill="white" opacity="0.9" />
  
    <path d="M 35.83 36.14 Q 43.89 37.7 50.02 36.34" stroke="rgba(255,255,255,0.28)" stroke-width="0.8" fill="none"/>
    
    
  </g><g transform="translate(128 0)">
    <rect x="0" y="0" width="64" height="64" fill="none"/>
    
    <path d="
      M 14.31 34.87
      Q 9.45 30.09
        3.51 34.79
      Q 9.77 39.64
        14.31 34.87
      Z
    " fill="currentColor" opacity="0.9"/>
    <path d="
      M 28.16 24.32
      L 25.06 16.68
      L 34.36 23
      Z
    " fill="currentColor" opacity="0.78"/>
    <path d="
      M 27.16 46.32
      L 33.2 50.4
      L 29.17 46.32
      Z
    " fill="currentColor" opacity="0.65"/>
    <ellipse cx="32" cy="35.07" rx="19.19" ry="12.75" fill="currentColor" filter="url(#creature_omnivore-soft-shadow)"/>
    
      <path d="M 28.16 30.07 Q 32.96 28.07 38.14 31.07" stroke="white" stroke-width="1" opacity="0.17" fill="none"/>
      <path d="M 27.01 35.07 Q 32.96 33.47 39.29 36.17" stroke="white" stroke-width="0.95" opacity="0.2" fill="none"/>
    
    
    
    
    
    <path d="
      M 36.99 38.38
      Q 40.25 40.17
        43.51 37.62
    " stroke="rgba(0,0,0,0.35)" stroke-width="0.8" fill="none" />
  
    
    
    <ellipse cx="41.21" cy="31.63" rx="4.6" ry="4.1" fill="white" />
    <ellipse cx="42.44" cy="31.81" rx="2.1" ry="1.95" fill="#121212" />
    <circle cx="41.64" cy="30.91" r="0.85" fill="white" opacity="0.9" />
  
    <path d="M 35.84 36.07 Q 43.9 37.48 50.04 36.27" stroke="rgba(255,255,255,0.28)" stroke-width="0.8" fill="none"/>
    
    
  </g><g transform="translate(192 0)">
    <rect x="0" y="0" width="64" height="64" fill="none"/>
    
    <path d="
      M 14.53 34.36
      Q 9.67 31.32
        3.73 36.56
      Q 10 37.39
        14.53 34.36
      Z
    " fill="currentColor" opacity="0.9"/>
    <path d="
      M 28.21 23.69
      L 25.11 16.03
      L 34.41 22.37
      Z
    " fill="currentColor" opacity="0.78"/>
    <path d="
      M 27.21 45.92
      L 33.25 49.99
      L 29.21 45.92
      Z
    " fill="currentColor" opacity="0.65"/>
    <ellipse cx="32" cy="34.56" rx="18.97" ry="12.87" fill="currentColor" filter="url(#creature_omnivore-soft-shadow)"/>
    
      <path d="M 28.21 29.56 Q 32.95 27.56 38.07 30.56" stroke="white" stroke-width="1" opacity="0.17" fill="none"/>
      <path d="M 27.07 34.56 Q 32.95 32.96 39.21 35.66" stroke="white" stroke-width="0.95" opacity="0.2" fill="none"/>
    
    
    
    
    
    <path d="
      M 36.93 37.9
      Q 40.16 39.71
        43.38 37.13
    " stroke="rgba(0,0,0,0.35)" stroke-width="0.8" fill="none" />
  
    
    
    <ellipse cx="41.1" cy="31.09" rx="4.6" ry="4.1" fill="white" />
    <ellipse cx="42.11" cy="31.11" rx="2.1" ry="1.95" fill="#121212" />
    <circle cx="41.31" cy="30.21" r="0.85" fill="white" opacity="0.9" />
  
    <path d="M 35.79 35.56 Q 43.76 36.3 49.83 35.76" stroke="rgba(255,255,255,0.28)" stroke-width="0.8" fill="none"/>
    
    
  </g><g transform="translate(256 0)">
    <rect x="0" y="0" width="64" height="64" fill="none"/>
    
    <path d="
      M 14.89 33.61
      Q 10.03 30.86
        4.09 35.31
      Q 10.36 36.35
        14.89 33.61
      Z
    " fill="currentColor" opacity="0.9"/>
    <path d="
      M 28.28 22.76
      L 25.18 16.92
      L 34.48 21.44
      Z
    " fill="currentColor" opacity="0.78"/>
    <path d="
      M 27.28 45.35
      L 33.32 50.33
      L 29.29 45.35
      Z
    " fill="currentColor" opacity="0.65"/>
    <ellipse cx="32" cy="33.81" rx="18.61" ry="13.05" fill="currentColor" filter="url(#creature_omnivore-soft-shadow)"/>
    
      <path d="M 28.28 28.81 Q 32.93 26.81 37.95 29.81" stroke="white" stroke-width="1" opacity="0.17" fill="none"/>
      <path d="M 27.16 33.81 Q 32.93 32.21 39.07 34.91" stroke="white" stroke-width="0.95" opacity="0.2" fill="none"/>
    
    
    
    
    
    <path d="
      M 36.84 37.2
      Q 40 39.02
        43.16 36.41
    " stroke="rgba(0,0,0,0.35)" stroke-width="0.8" fill="none" />
  
    
    
    <ellipse cx="40.93" cy="30.28" rx="4.6" ry="2.55" fill="white" />
    <ellipse cx="41.69" cy="30.13" rx="2.1" ry="1.3" fill="#121212" />
    <circle cx="40.89" cy="29.23" r="0.85" fill="white" opacity="0.9" />
  
    <path d="M 35.72 34.81 Q 43.54 35.21 49.49 35.01" stroke="rgba(255,255,255,0.28)" stroke-width="0.8" fill="none"/>
    
    
  </g><g transform="translate(320 0)">
    <rect x="0" y="0" width="64" height="64" fill="none"/>
    
    <path d="
      M 15.2 32.9
      Q 10.34 28.68
        4.4 31.95
      Q 10.67 37.11
        15.2 32.9
      Z
    " fill="currentColor" opacity="0.9"/>
    <path d="
      M 28.34 21.89
      L 25.24 16.55
      L 34.54 20.57
      Z
    " fill="currentColor" opacity="0.78"/>
    <path d="
      M 27.34 44.8
      L 33.38 50.03
      L 29.35 44.8
      Z
    " fill="currentColor" opacity="0.65"/>
    <ellipse cx="32" cy="33.1" rx="18.3" ry="13.2" fill="currentColor" filter="url(#creature_omnivore-soft-shadow)"/>
    
      <path d="M 28.34 28.1 Q 32.91 26.1 37.85 29.1" stroke="white" stroke-width="1" opacity="0.17" fill="none"/>
      <path d="M 27.24 33.1 Q 32.91 31.5 38.95 34.2" stroke="white" stroke-width="0.95" opacity="0.2" fill="none"/>
    
    
    
    
    
    <path d="
      M 36.76 36.53
      Q 39.87 38.38
        42.98 35.74
    " stroke="rgba(0,0,0,0.35)" stroke-width="0.8" fill="none" />
  
    
    
    <ellipse cx="40.78" cy="29.53" rx="4.6" ry="4.1" fill="white" />
    <ellipse cx="41.39" cy="29.34" rx="2.1" ry="1.95" fill="#121212" />
    <circle cx="40.59" cy="28.44" r="0.85" fill="white" opacity="0.9" />
  
    <path d="M 35.66 34.1 Q 43.34 34.91 49.2 34.3" stroke="rgba(255,255,255,0.28)" stroke-width="0.8" fill="none"/>
    
    
  </g><g transform="translate(384 0)">
    <rect x="0" y="0" width="64" height="64" fill="none"/>
    
    <path d="
      M 15.31 32.5
      Q 10.45 26.88
        4.51 30.1
      Q 10.78 38.12
        15.31 32.5
      Z
    " fill="currentColor" opacity="0.9"/>
    <path d="
      M 28.36 21.44
      L 25.26 14.39
      L 34.56 20.12
      Z
    " fill="currentColor" opacity="0.78"/>
    <path d="
      M 27.36 44.46
      L 33.4 48.84
      L 29.37 44.46
      Z
    " fill="currentColor" opacity="0.65"/>
    <ellipse cx="32" cy="32.7" rx="18.19" ry="13.26" fill="currentColor" filter="url(#creature_omnivore-soft-shadow)"/>
    
      <path d="M 28.36 27.7 Q 32.91 25.7 37.82 28.7" stroke="white" stroke-width="1" opacity="0.17" fill="none"/>
      <path d="M 27.27 32.7 Q 32.91 31.1 38.91 33.8" stroke="white" stroke-width="0.95" opacity="0.2" fill="none"/>
    
    
    
    
    
    <path d="
      M 36.73 36.15
      Q 39.82 38
        42.91 35.35
    " stroke="rgba(0,0,0,0.35)" stroke-width="0.8" fill="none" />
  
    
    
    <ellipse cx="40.73" cy="29.12" rx="4.6" ry="4.1" fill="white" />
    <ellipse cx="41.38" cy="29.07" rx="2.1" ry="1.95" fill="#121212" />
    <circle cx="40.58" cy="28.17" r="0.85" fill="white" opacity="0.9" />
  
    <path d="M 35.64 33.7 Q 43.28 35.16 49.1 33.9" stroke="rgba(255,255,255,0.28)" stroke-width="0.8" fill="none"/>
    
    
  </g><g transform="translate(448 0)">
    <rect x="0" y="0" width="64" height="64" fill="none"/>
    
    <path d="
      M 15.17 32.57
      Q 10.31 27.3
        4.37 31.75
      Q 10.63 37.84
        15.17 32.57
      Z
    " fill="currentColor" opacity="0.9"/>
    <path d="
      M 28.33 21.59
      L 25.23 13.61
      L 34.53 20.27
      Z
    " fill="currentColor" opacity="0.78"/>
    <path d="
      M 27.33 44.46
      L 33.37 48.37
      L 29.34 44.46
      Z
    " fill="currentColor" opacity="0.65"/>
    <ellipse cx="32" cy="32.77" rx="18.33" ry="13.19" fill="currentColor" filter="url(#creature_omnivore-soft-shadow)"/>
    
      <path d="M 28.33 27.77 Q 32.92 25.77 37.87 28.77" stroke="white" stroke-width="1" opacity="0.17" fill="none"/>
      <path d="M 27.23 32.77 Q 32.92 31.17 38.97 33.87" stroke="white" stroke-width="0.95" opacity="0.2" fill="none"/>
    
    
    
    
    
    <path d="
      M 36.77 36.2
      Q 39.88 38.05
        43 35.41
    " stroke="rgba(0,0,0,0.35)" stroke-width="0.8" fill="none" />
  
    
    
    <ellipse cx="40.8" cy="29.21" rx="4.6" ry="4.1" fill="white" />
    <ellipse cx="41.65" cy="29.35" rx="2.1" ry="1.95" fill="#121212" />
    <circle cx="40.85" cy="28.45" r="0.85" fill="white" opacity="0.9" />
  
    <path d="M 35.67 33.77 Q 43.37 35.3 49.23 33.97" stroke="rgba(255,255,255,0.28)" stroke-width="0.8" fill="none"/>
    
    
  </g><g transform="translate(512 0)">
    <rect x="0" y="0" width="64" height="64" fill="none"/>
    
    <path d="
      M 14.84 33.08
      Q 9.98 29.43
        4.04 34.88
      Q 10.3 36.73
        14.84 33.08
      Z
    " fill="currentColor" opacity="0.9"/>
    <path d="
      M 28.27 22.26
      L 25.17 15.77
      L 34.47 20.94
      Z
    " fill="currentColor" opacity="0.78"/>
    <path d="
      M 27.27 44.8
      L 33.31 49.45
      L 29.28 44.8
      Z
    " fill="currentColor" opacity="0.65"/>
    <ellipse cx="32" cy="33.28" rx="18.66" ry="13.02" fill="currentColor" filter="url(#creature_omnivore-soft-shadow)"/>
    
      <path d="M 28.27 28.28 Q 32.93 26.28 37.97 29.28" stroke="white" stroke-width="1" opacity="0.17" fill="none"/>
      <path d="M 27.15 33.28 Q 32.93 31.68 39.09 34.38" stroke="white" stroke-width="0.95" opacity="0.2" fill="none"/>
    
    
    
    
    
    <path d="
      M 36.85 36.67
      Q 40.03 38.49
        43.2 35.88
    " stroke="rgba(0,0,0,0.35)" stroke-width="0.8" fill="none" />
  
    
    
    <ellipse cx="40.96" cy="29.77" rx="4.6" ry="3.18" fill="white" />
    <ellipse cx="42.07" cy="29.96" rx="2.1" ry="1.56" fill="#121212" />
    <circle cx="41.27" cy="29.06" r="0.85" fill="white" opacity="0.9" />
  
    <path d="M 35.73 34.28 Q 43.57 35.21 49.54 34.48" stroke="rgba(255,255,255,0.28)" stroke-width="0.8" fill="none"/>
    
    
  </g><g transform="translate(576 0)">
    <rect x="0" y="0" width="64" height="64" fill="none"/>
    
    <path d="
      M 14.49 33.83
      Q 9.63 31.08
        3.69 35.98
      Q 9.95 36.59
        14.49 33.83
      Z
    " fill="currentColor" opacity="0.9"/>
    <path d="
      M 28.2 23.19
      L 25.1 17.99
      L 34.4 21.87
      Z
    " fill="currentColor" opacity="0.78"/>
    <path d="
      M 27.2 45.38
      L 33.24 50.68
      L 29.21 45.38
      Z
    " fill="currentColor" opacity="0.65"/>
    <ellipse cx="32" cy="34.03" rx="19.01" ry="12.84" fill="currentColor" filter="url(#creature_omnivore-soft-shadow)"/>
    
      <path d="M 28.2 29.03 Q 32.95 27.03 38.08 30.03" stroke="white" stroke-width="1" opacity="0.17" fill="none"/>
      <path d="M 27.06 34.03 Q 32.95 32.43 39.22 35.13" stroke="white" stroke-width="0.95" opacity="0.2" fill="none"/>
    
    
    
    
    
    <path d="
      M 36.94 37.37
      Q 40.18 39.17
        43.41 36.6
    " stroke="rgba(0,0,0,0.35)" stroke-width="0.8" fill="none" />
  
    
    
    <ellipse cx="41.13" cy="30.57" rx="4.6" ry="4.1" fill="white" />
    <ellipse cx="42.4" cy="30.64" rx="2.1" ry="1.95" fill="#121212" />
    <circle cx="41.6" cy="29.74" r="0.85" fill="white" opacity="0.9" />
  
    <path d="M 35.8 35.03 Q 43.79 35.45 49.87 35.23" stroke="rgba(255,255,255,0.28)" stroke-width="0.8" fill="none"/>
    
    
  </g></svg>
