<svg xmlns="http://www.w3.org/2000/svg" viewBox="0 0 512 512" role="img" aria-label="Creature Sandbox">
  <rect width="512" height="512" rx="112" fill="#0a0f1e"/>
  <circle cx="256" cy="266" r="154" fill="#07140f" stroke="#244f46" stroke-width="10"/>
  <path d="M126 184c48-58 126-75 192-44 54 26 87 79 88 142" fill="none" stroke="#7ddf64" stroke-width="24" stroke-linecap="round"/>
  <path d="M170 306c56 61 155 65 216 10" fill="none" stroke="#38d16f" stroke-width="24" stroke-linecap="round"/>
  <ellipse cx="228" cy="248" rx="76" ry="54" fill="#92e96f"/>
  <ellipse cx="306" cy="245" rx="52" ry="43" fill="#4cc3f1"/>
  <circle cx="328" cy="232" r="14" fill="#07111c"/>
  <circle cx="332" cy="227" r="5" fill="#ffffff"/>
  <circle cx="184" cy="246" r="11" fill="#07111c"/>
  <circle cx="188" cy="242" r="4" fill="#ffffff"/>
  <path d="M205 312c28 21 78 20 108-2" fill="none" stroke="#0a0f1e" stroke-width="14" stroke-linecap="round"/>
  <circle cx="150" cy="340" r="24" fill="#facc15"/>
  <circle cx="376" cy="164" r="18" fill="#c084fc"/>
</svg>
